<svg id="Imagen_No_8_Lista_de_chequeo._No_2" data-name="Imagen No 8 Lista de chequeo. No 2" xmlns="http://www.w3.org/2000/svg" width="1504" height="604.16" viewBox="0 0 1504 604.16">
  <rect id="Rectángulo_3499" data-name="Rectángulo 3499" width="1504" height="604.16" fill="#fee066"/>
  <path id="Trazado_23691" data-name="Trazado 23691" d="M1413.67,330.45q-48.09,1.1-28.22,38.59,7-19.1,9.87-24.6c3.6-.18,5.25-1.44,5-3.76Z" fill="#e3393c" fill-rule="evenodd"/>
  <path id="Trazado_23692" data-name="Trazado 23692" d="M1362.48,331.58l33.38,8.57q-12.34,14.3-10.11,32.48Q1336,360.69,1340.3,359.3,1344,336.91,1362.48,331.58Z" fill="#d1c6b3" fill-rule="evenodd"/>
  <path id="Trazado_23693" data-name="Trazado 23693" d="M1362.48,331.58l33.38,8.57q14.1-13.5,27.82-8.52-7.53-7.94-36.56-8.55Z" fill="#d1c6b3" fill-rule="evenodd"/>
  <path id="Trazado_23694" data-name="Trazado 23694" d="M1430.54,327.68s-16.06-2.39-24.09.34-10.59,12.13-10.59,12.13l-39.4-8.57c-.55-.12,2.44-7.94,8.47-11.08,7.57-3.95,18.66-3.41,19-3.34Z" fill="#e5e5e5" fill-rule="evenodd"/>
  <path id="Trazado_23695" data-name="Trazado 23695" d="M1112,509c207,0,375.89-10.11,375.89-22.51S1319.05,464,1112,464s-375.89,10.11-375.89,22.51S905,509,1112,509Z" fill="#f7b64d" fill-rule="evenodd"/>
  <path id="Trazado_23696" data-name="Trazado 23696" d="M910.41,197.86h403.73a19.63,19.63,0,0,1,19.58,19.57V439.36H890.84V217.43a19.62,19.62,0,0,1,19.57-19.57Z" fill="#333" fill-rule="evenodd"/>
  <path id="Trazado_23697" data-name="Trazado 23697" d="M1334,439.69H890.51V217.43a19.92,19.92,0,0,1,19.9-19.89h403.73a19.92,19.92,0,0,1,19.9,19.89ZM891.16,439H1333.4V217.43a19.28,19.28,0,0,0-19.26-19.25H910.41a19.28,19.28,0,0,0-19.25,19.25Z" fill="#666"/>
  <rect id="Rectángulo_3500" data-name="Rectángulo 3500" width="404.41" height="207.65" transform="translate(908.47 214.68)" fill="#336654"/>
  <path id="Trazado_23698" data-name="Trazado 23698" d="M1319.34,428.78H902V208.22h417.33ZM914.93,415.86h391.49V221.13H914.93Z" fill="#fee066"/>
  <path id="Trazado_23699" data-name="Trazado 23699" d="M1208.17,270.43q70.8-8.08,97.63.72,25-118.68-38.2-130.4-138.19,21.47-76.42,76.95Q1162.11,241.76,1208.17,270.43Z" fill="#633639" fill-rule="evenodd"/>
  <path id="Trazado_23700" data-name="Trazado 23700" d="M1296.08,217.29q-87.55,17.94-80.47-59.14-56.08,22-19.38,54.63-24.29,31.85,11.94,57.65,73-12.27,91.48-6.12Q1310.44,227.52,1296.08,217.29Z" fill="#542b2e" fill-rule="evenodd"/>
  <path id="Trazado_23701" data-name="Trazado 23701" d="M1198,208.49l-10.18-3.67s.22-1.81,1.49-2.14,9.31,3.17,9.31,3.17Z" fill="#9e282a" fill-rule="evenodd"/>
  <rect id="Rectángulo_3501" data-name="Rectángulo 3501" width="584.5" height="25.75" rx="5.79" transform="translate(819.86 466.51)" fill="#d6d6d6"/>
  <path id="Trazado_23702" data-name="Trazado 23702" d="M1404.36,480.78H819.86v5.69a5.81,5.81,0,0,0,5.79,5.79h572.92a5.81,5.81,0,0,0,5.79-5.79Z" fill="#b5b5b5" fill-rule="evenodd"/>
  <path id="Trazado_23703" data-name="Trazado 23703" d="M825.65,466.51l65.18-27.15h442.89l67.04,27.58Z" fill="#f2f2f2" fill-rule="evenodd"/>
  <path id="Trazado_23704" data-name="Trazado 23704" d="M951.56,441.35l-51.8,22.48,419.6.26-57.6-23.2Z" fill="#47413e" fill-rule="evenodd"/>
  <path id="Trazado_23705" data-name="Trazado 23705" d="M1320.12,455.1H885.61v-.33h432.05l-27.12-7.27H913.81v-.32h376.77l.02.01Z" fill="#f2f2f2"/>
  <path id="Trazado_23706" data-name="Trazado 23706" d="M917.4,466.75l.75-.38,51.78-26.27.15.28-51.04,25.9,29.1-2.58,43.06-22.55,20.29-.02-37.5,25.22h204.57l-18.79-25.37h21.85l.05.04,25.25,25.33h25.39l-30.95-25.54h22.28l.04.02,36.76,25.51,26.47-2.39-41.97-22.88.15-.28L1288,464.17l-.53.05-27.12,2.46-.05-.04-36.76-25.51h-21.28l30.95,25.54h-26.43l-.05-.05-25.25-25.32h-21.07l18.79,25.37H972.93l.44-.29,37.06-24.92-19.19.02L948.2,464.02Z" fill="#b2b2b2"/>
  <path id="Trazado_23707" data-name="Trazado 23707" d="M1148.02,455.1h-21.56l-.04-.08-8.9-14.37-16.03.15,2.73,14.3H1082.6V441.3h-13.24l-3.81,13.8h-16.52l.08-.22,5.28-14.32-11.96-.08-10.72,14.62h-19.29l14.99-14.08.22.24-14.4,13.51h18.32l10.72-14.61h.08l12.51.08-.08.22-5.29,14.31h15.81l3.82-13.79h13.8v13.79h20.91l-2.73-14.29h.2l16.4-.15.04.08,8.9,14.36h20.81l-8.86-14.64.28-.17Z" fill="#b2b2b2"/>
  <path id="Trazado_23708" data-name="Trazado 23708" d="M1270,238.19s-3.52,5.3-8.27,12.19-10.92,19.37-10.92,19.37-7,11.27-9.36,9.34-6.88-7.59-6.88-7.59l2.16-4.61,2.85-11.32S1260.19,252.75,1270,238.19Z" fill="#ffa89a" fill-rule="evenodd"/>
  <path id="Trazado_23709" data-name="Trazado 23709" d="M1340.44,338s-29.12,2.67-35.66,1.22-6.44-1.63-6.44-1.63l8.63-12.3,36.89,3.18Z" fill="#ffa89a" fill-rule="evenodd"/>
  <path id="Trazado_23710" data-name="Trazado 23710" d="M1080.23,311.39q11.8,14.92,20.89,4.86-4.08-13-18.72-9.15a19.69,19.69,0,0,1-9.87-2Q1071,311.87,1080.23,311.39Z" fill="#ffa89a" fill-rule="evenodd"/>
  <path id="Trazado_23711" data-name="Trazado 23711" d="M1306.08,175.59q-7.53-22.46-13.95-12.46-22.32,32.48-63.87-.5a89.559,89.559,0,0,0,37.43,30.94q-33.76-11.23-39.42-27.2,10.11,25.69,41.33,34.6,3.54,22,10.81,18.56,5.74-8.64,17.67-2.24Q1309.87,197.28,1306.08,175.59Z" fill="#542b2e" fill-rule="evenodd"/>
  <path id="Trazado_23712" data-name="Trazado 23712" d="M1297.59,319.37c1.8,1.64-29.21-42.66-34.1-44.12s-12.76-1.4-12.76-1.4l22.73,35.33,16.56,18.5Z" fill="#b1c2bb" fill-rule="evenodd"/>
  <path id="Trazado_23713" data-name="Trazado 23713" d="M1297.09,430.54l-93.19-.38s-4.76-29.25,2.08-48.3,35.17-40.06,35.17-40.06-33.7-52.27-34.19-58.62,5.86-8.8,10.74-9.29,32.25-.48,32.25-.48l30.29,17.09c-1.8,0-.72,8.91-6.83,13.55s-3.19,7.22-3.19,7.22l.74,24.42.48,12.71s29.32,32,27.85,53.49S1297.09,430.54,1297.09,430.54Z" fill="#2a3842" fill-rule="evenodd"/>
  <path id="Trazado_23714" data-name="Trazado 23714" d="M1272.1,354.77l-2.42,75.66,27.41.11C1297.92,418,1306.76,398.22,1272.1,354.77Z" fill="#202b33" fill-rule="evenodd"/>
  <path id="Trazado_23715" data-name="Trazado 23715" d="M1213.48,296.75c13.52,28.53,27.17,36.16,10.31,60.23l-9.39,10.53,46.07,11.73,3.41-10.91,12.83,8.37,10.66-7.4-6.34-9.12-9.59-11.78s1.23-35.27.48-36.45,5.61-2.19,7.17-8.13a51.251,51.251,0,0,0,1.15-13.32l-22.6-12.75-1.05-3.65s-31.58-.59-35.23-.4a59.946,59.946,0,0,0-8.79,1.43Z" fill="#ceded8" fill-rule="evenodd"/>
  <path id="Trazado_23716" data-name="Trazado 23716" d="M1252.41,267.34s9.36,11.64,3.1,14.28-8.86-8.25-8.86-8.25Z" fill="#fff" fill-rule="evenodd"/>
  <path id="Trazado_23717" data-name="Trazado 23717" d="M1236.86,266.18l9.79,7.19s2.19,4.31-4.4,7.74-12.79-5.71-12.79-5.71Z" fill="#fff" fill-rule="evenodd"/>
  <path id="Trazado_23718" data-name="Trazado 23718" d="M1217.15,157.53s-14.25,4.56-15.54,20.34-1.26,27.27-5.38,34.91-4.94,13.38-.85,19.35,13.95,24.26,17.1,26.82,29-2.26,29-2.26,9.5-1.59,15-4.94,13.32-11.25,13.32-11.25,6.42,7.71,15.87-1.05,16.29-19.06,9.12-23.12-15.8-1.05-16.88,4.9-6.37,3.56-7.53-1.53S1268,210,1268,210,1224,202.37,1217.15,157.53Z" fill="#ffc9a8" fill-rule="evenodd"/>
  <path id="Trazado_23719" data-name="Trazado 23719" d="M1219.5,249.77l2.8-5.8-11.15-2.44,1.12,6.74S1217.13,247.15,1219.5,249.77Z" fill="#ffa89a" fill-rule="evenodd"/>
  <path id="Trazado_23720" data-name="Trazado 23720" d="M1260.29,207.85q16.9-1.89,18.12,11.68,16.42-6,16.48,5.72-14.23,21.9-24.88,12.94-15.32,17.94-36.75,17.25Q1271,235.27,1260.29,207.85Z" fill="#ffa89a" fill-rule="evenodd"/>
  <path id="Trazado_23721" data-name="Trazado 23721" d="M1224.85,281.4l-39.57,53.42-10.56-7.9s27.17-50.15,31.66-52.89S1224.85,281.4,1224.85,281.4Z" fill="#ceded8" fill-rule="evenodd"/>
  <path id="Trazado_23722" data-name="Trazado 23722" d="M1169.62,319.55l13.07-1.91,3.42,19.25-13.18-1.06Z" fill="#fff" fill-rule="evenodd"/>
  <path id="Trazado_23723" data-name="Trazado 23723" d="M1101.78,315.65l68.23,5.82,2.48,12.21-12.26,1-59.4-15.09s-5.54,5.87-9.76,4.73-9.69-1.27-12.06-.67c-2.76.7-8.73.63-10.83-.23,0,0-7.53-4-7.2-4.84s4.21-2.2,4.21-2.2,4.9,2.53,9.35,2c6.24-.71,13-4.61,16.12-5.42C1096.05,311.6,1101.78,315.65,1101.78,315.65Z" fill="#ffc9a8" fill-rule="evenodd"/>
  <path id="Trazado_23724" data-name="Trazado 23724" d="M1300.05,316.04l-3.31,3.63-10.29,11.3,9.86,10.39,10.66-15.19Z" fill="#ceded8" fill-rule="evenodd"/>
  <path id="Trazado_23725" data-name="Trazado 23725" d="M1234.93,235.25a134.66,134.66,0,0,1-29.59-3.08,9.43,9.43,0,0,1,3.33,5.49,29.65,29.65,0,0,0,20,3.14C1230,237.71,1231.55,235.91,1234.93,235.25Z" fill="#fff" fill-rule="evenodd"/>
  <path id="Trazado_23726" data-name="Trazado 23726" d="M1204.82,230.92c.11-.24,1.75.92,2.72.77,3.42-.51,3.77-4.47,8.7-.68,7-1.27,6.48-.61,12.8,2.87a13.44,13.44,0,0,0,7.74.31C1227.65,240.69,1203.39,234.06,1204.82,230.92Z" fill="#fb578b" fill-rule="evenodd"/>
  <path id="Trazado_23727" data-name="Trazado 23727" d="M1229.84,240.91c-15.82-1.51-22.39-3.55-22.39-3.55C1211.57,248,1223.65,244.59,1229.84,240.91Z" fill="#fe728e" fill-rule="evenodd"/>
  <path id="Trazado_23728" data-name="Trazado 23728" d="M1267.71,310.59q14.65-6.75,10.31-18.84-7.44,14.67-19.53,9.48c-12.22,6.85-23.4,3.45-29.13-5.29-1.47,12.92,7.08,19.51,21.25,14.9Q1259.69,303.63,1267.71,310.59Z" fill="#bfcfc9" fill-rule="evenodd"/>
  <path id="Trazado_23729" data-name="Trazado 23729" d="M1224.85,281.4l-11.3,15.15c10.7,21,33.68,48.66.85,71l32.34,8.23,4.34-30C1241.21,312.22,1226.66,314,1224.85,281.4Z" fill="#bfcfc9" fill-rule="evenodd"/>
  <path id="Trazado_23730" data-name="Trazado 23730" d="M1213.91,183s.34,2-.78,2.75-4.48.25-7.4,1.74a18.87,18.87,0,0,0-5,3.87S1201.08,184.54,1213.91,183Z" fill="#542b2e" fill-rule="evenodd"/>
  <path id="Trazado_23731" data-name="Trazado 23731" d="M1286.77,231.99l-9.11.25-6.49,4.87,6.86-7.86Z" fill="#ff8d90" fill-rule="evenodd"/>
  <path id="Trazado_23732" data-name="Trazado 23732" d="M1290.13,221.39,1281.4,228v-2.62Z" fill="#ff8d90" fill-rule="evenodd"/>
  <path id="Trazado_23733" data-name="Trazado 23733" d="M1219.51,227.1a28,28,0,0,0-7.42-.68q-5.05-4.24-2.89-9.68,10.58-.66,11.91-10.39.09,11.24-10.16,11.31,3.72,5.11,7.58,4.39a2.29,2.29,0,0,0,0-2.66Q1223.61,222.51,1219.51,227.1Z" fill="#ff8d90" fill-rule="evenodd"/>
  <path id="Trazado_23734" data-name="Trazado 23734" d="M1216.49,219c-.76-.1-1.41.15-1.47.57s.5.84,1.25.95,1.42-.15,1.48-.56S1217.24,219.15,1216.49,219Z" fill="#ffd8c4" fill-rule="evenodd"/>
  <path id="Trazado_23735" data-name="Trazado 23735" d="M1218.54,225.58a2.27,2.27,0,0,0-2-1.88,20.652,20.652,0,0,0-3.42-.31,11,11,0,0,0,5.42,2.19Z" fill="#c75256" fill-rule="evenodd"/>
  <path id="Trazado_23736" data-name="Trazado 23736" d="M1219.07,242.75c1.3,0,2.35-.32,2.35-.72s-1.05-.71-2.35-.71-2.35.32-2.35.71S1217.78,242.75,1219.07,242.75Z" fill="#ffd8c4" fill-rule="evenodd"/>
  <path id="Trazado_23737" data-name="Trazado 23737" d="M1275.56,238.3c.7,1.89.28,1.88,2.08,2.53-2,.19-1.49.1-2.76,1.73,1.82.78,1.51,1.08,3.28.22-1.31,1.55-1,1.15-.82,3.18,1.87-.78,1.85-.36,2.55-2.22.11,2,0,1.52,1.6,2.76.83-1.89,1.11-1.58.33-3.36,1.47,1.28,1.09,1,3.09.73-.7-1.88-.28-1.88-2.09-2.53,2-.19,1.5-.1,2.76-1.73-1.81-.78-1.5-1.08-3.27-.22,1.3-1.54,1-1.15.82-3.18-1.87.78-1.85.36-2.55,2.22-.12-2,0-1.52-1.61-2.76-.82,1.89-1.11,1.58-.33,3.36C1277.18,237.75,1277.55,238,1275.56,238.3Z" fill="#f4e9a6" fill-rule="evenodd"/>
  <path id="Trazado_23738" data-name="Trazado 23738" d="M1282.11,215.81l-21.52-12-.53,5.4,2.3.94,1.81-.33s14.94,9.47,14.24,9.72S1280.55,216.85,1282.11,215.81Z" fill="#9e282a" fill-rule="evenodd"/>
  <path id="Trazado_23739" data-name="Trazado 23739" d="M1244.64,217.32c-9.31.87-16.9-2.35-17-7.19a5.183,5.183,0,0,1,.49-2.22c1.81-4,8.4-7.4,16.27-8.13,9.31-.88,16.9,2.35,17,7.19S1253.95,216.45,1244.64,217.32Zm0-1.48c7.95-.63,14.35-4.34,14.29-8.28s-6.56-6.63-14.51-6-14.36,4.34-14.3,8.29,6.56,6.63,14.52,5.99Z" fill="#b02e30" fill-rule="evenodd"/>
  <path id="Trazado_23740" data-name="Trazado 23740" d="M1200.82,215.62c-8.71-1.57-15.09-6.49-14.25-11s8.58-6.89,17.3-5.32,15.09,6.49,14.25,11S1209.54,217.18,1200.82,215.62Zm.28-1.37c7.42,1.44,13.65-.57,14.32-4.24s-4.48-7.61-11.9-9-14,.36-14.66,4S1193.67,212.81,1201.1,214.25Z" fill="#b02e30" fill-rule="evenodd"/>
  <path id="Trazado_23741" data-name="Trazado 23741" d="M1244.46,200.81c7.94-.45,14.44,1.83,14.53,5.09a2.587,2.587,0,0,0,0-.56c-.06-3.45-6.56-5.79-14.51-5.24s-14.15,3.69-14.29,7.07c.38-3.12,6.58-5.92,14.23-6.36Zm-28.61,7.07c.67-3.31-4.81-7-12.23-8.35a23.06,23.06,0,0,0-11.07.45c-1.9.68-3.18,1.7-3.54,3a6.33,6.33,0,0,1,3.44-2.25,23.51,23.51,0,0,1,10.78-.36c7.43,1.31,12.9,5,12.23,8.35a1.073,1.073,0,0,1,0,.19A2.82,2.82,0,0,0,1215.85,207.88Z" fill="#9e282a" fill-rule="evenodd"/>
  <path id="Trazado_23742" data-name="Trazado 23742" d="M1224.13,208.19l4.5,2.28.16-4A37.2,37.2,0,0,0,1223,205a16.78,16.78,0,0,0-6,.87l-.65,4.05S1218.84,206.74,1224.13,208.19Z" fill="#b02e30" fill-rule="evenodd"/>
  <path id="Trazado_23743" data-name="Trazado 23743" d="M1356.46,331.58q-14,12.92-21.39,1.55,6.06-12.21,19.92-6.12a19.741,19.741,0,0,0,10.06-.45Q1365.47,333.48,1356.46,331.58Z" fill="#ffa89a" fill-rule="evenodd"/>
  <path id="Trazado_23744" data-name="Trazado 23744" d="M1344.52,343.3s9.85-7.79,13-7.92,3.37,1.08,3.37,1.08,4.65-2.7,6.59-1.49a8.348,8.348,0,0,1,2.31,1.75s5.83-1.29,7.3-.41a3.559,3.559,0,0,1,1.72,1.8,40.779,40.779,0,0,1,6.1-.2c1.62.24,1.9,2.82,1.9,2.82s-11,1.79-14.43,3.17a18.872,18.872,0,0,0-5.61,3.43Z" fill="#ffc9a8" fill-rule="evenodd"/>
  <path id="Trazado_23745" data-name="Trazado 23745" d="M931.64,282.92,1084,315.62s3.83-.65,2.69-2.92-155.26-32.17-155.26-32.17S929.24,281.89,931.64,282.92Z" fill="#b59046" fill-rule="evenodd"/>
  <path id="Trazado_23746" data-name="Trazado 23746" d="M1335.54,354.5s2.23-11.38,8.38-17.08,12.54-5.84,12.54-5.84l39.4,8.57a23.23,23.23,0,0,0-14,16.4c-2.91,12.65-1.71,13.67-1.71,13.67Z" fill="#f2f2f2" fill-rule="evenodd"/>
  <path id="Trazado_23747" data-name="Trazado 23747" d="M1244.53,204.12a4.94,4.94,0,0,1,5.07,5,5.25,5.25,0,0,1-4.6,5.65,4.93,4.93,0,0,1-5.07-5,5.26,5.26,0,0,1,4.6-5.65Z" fill="#458783" fill-rule="evenodd"/>
  <path id="Trazado_23748" data-name="Trazado 23748" d="M1241.68,207.77a.8.8,0,0,1,.78.84.86.86,0,0,1-.7.94.8.8,0,0,1-.78-.84.85.85,0,0,1,.7-.94Z" fill="#ffceb5" fill-rule="evenodd"/>
  <path id="Trazado_23749" data-name="Trazado 23749" d="M1247,204.38a6.27,6.27,0,0,1,2.59,4.23,10.619,10.619,0,0,0-.61-.89c-1.27-1.74-7.34-1.34-7.6-1.14a3.16,3.16,0,0,1-.91.51,5.46,5.46,0,0,1,2.32-2.85,3.89,3.89,0,0,1,1.74-.53,4,4,0,0,1,2.47.67Z" fill="#b37c6b" fill-rule="evenodd"/>
  <path id="Trazado_23750" data-name="Trazado 23750" d="M1249.78,207.83c1.17,1.63.5,1,.5,1-3.24-2.53-7.13-1.53-10-1.58-1.82,0-3.27-2.16-3.27-2.16s3.36,2.13,5.54.87C1242.8,205.83,1248.6,206.2,1249.78,207.83Z" fill="#63262b" fill-rule="evenodd"/>
  <path id="Trazado_23751" data-name="Trazado 23751" d="M1231.85,209.28a1.32,1.32,0,0,0-.65,1.76,1.37,1.37,0,0,0,1.62,1,1.32,1.32,0,0,0,.66-1.76,1.38,1.38,0,0,0-1.63-1Z" fill="#fff" fill-rule="evenodd"/>
  <path id="Trazado_23752" data-name="Trazado 23752" d="M1236.09,204.8c-.67-.36-2.23.14-3.48,1.12s-1.71,2.07-1,2.44,2.23-.14,3.48-1.12S1236.77,205.16,1236.09,204.8Z" fill="#fff" fill-rule="evenodd"/>
  <path id="Trazado_23753" data-name="Trazado 23753" d="M1204.92,202.75a4.93,4.93,0,0,1,5.07,5,5.26,5.26,0,0,1-4.6,5.65,5,5,0,0,1-5.07-5,5.25,5.25,0,0,1,4.6-5.65Z" fill="#458783" fill-rule="evenodd"/>
  <path id="Trazado_23754" data-name="Trazado 23754" d="M1202.07,206.39a.81.81,0,0,1,.78.84.86.86,0,0,1-.7.94.79.79,0,0,1-.78-.83.86.86,0,0,1,.7-.95Z" fill="#ffceb5" fill-rule="evenodd"/>
  <path id="Trazado_23755" data-name="Trazado 23755" d="M1207.35,203a6.289,6.289,0,0,1,2.59,4.23c-.12-.19-.31-.47-.61-.89-1.27-1.74-7.34-1.34-7.6-1.14a2.941,2.941,0,0,1-.91.51,5.46,5.46,0,0,1,2.32-2.85,4,4,0,0,1,4.21.14Z" fill="#b37c6b" fill-rule="evenodd"/>
  <path id="Trazado_23756" data-name="Trazado 23756" d="M1210.17,206.45c1.17,1.63.5,1,.5,1-3.24-2.53-7.13-1.52-10-1.57-1.82,0-3.27-2.17-3.27-2.17s3.36,2.13,5.54.88C1203.19,204.45,1209,204.82,1210.17,206.45Z" fill="#63262b" fill-rule="evenodd"/>
  <path id="Trazado_23757" data-name="Trazado 23757" d="M1191,206.15a1.33,1.33,0,0,0-.65,1.77,1.38,1.38,0,0,0,1.62,1,1.33,1.33,0,0,0,.66-1.76,1.4,1.4,0,0,0-1.63-1.01Z" fill="#fff" fill-rule="evenodd"/>
  <path id="Trazado_23758" data-name="Trazado 23758" d="M1195.27,201.68c-.67-.37-2.23.14-3.48,1.12s-1.71,2.07-1,2.43,2.23-.13,3.48-1.12S1195.94,202,1195.27,201.68Z" fill="#fff" fill-rule="evenodd"/>
  <path id="Trazado_23759" data-name="Trazado 23759" d="M1261.4,302.21q-14.55-26.43-14.58-26.79l11.67,25.81c5.13,44.75,5.13,67.92,5.13,67.92C1263.65,349.4,1264.61,326.56,1261.4,302.21Z" fill="#a3b3ad" fill-rule="evenodd"/>
  <path id="Trazado_23760" data-name="Trazado 23760" d="M1377.38,466.51l-556.91,3.21s-.64-2.11,6.46-3.21S1377.38,466.51,1377.38,466.51Z" fill="#fff" fill-rule="evenodd"/>
  <path id="Trazado_23761" data-name="Trazado 23761" d="M1090.56,319.9s-9.67-8-12.86-8.23-3.39,1-3.39,1-4.59-2.8-6.56-1.64a8.361,8.361,0,0,0-2.35,1.7s-5.79-1.43-7.28-.58a3.53,3.53,0,0,0-1.76,1.76,41,41,0,0,0-6.1-.35c-1.63.2-2,2.78-2,2.78s10.94,2.05,14.36,3.5a18.909,18.909,0,0,1,5.53,3.57Z" fill="#ffc9a8" fill-rule="evenodd"/>
  <path id="Trazado_23762" data-name="Trazado 23762" d="M1303.38,331.29l-4.57,6.51c.65.2,2.22.61,6,1.45a43.39,43.39,0,0,0,8.1.42c6.51-.07,15-.64,20.84-1.09,4-.3,6.72-.55,6.72-.55v-.12a10.839,10.839,0,0,1-4.84-4l-1.92.12a144.582,144.582,0,0,1-14.87.19,58,58,0,0,1-6-.66,65.179,65.179,0,0,1-9.46-2.27Z" fill="#ed8c7d" fill-rule="evenodd"/>
  <path id="Trazado_23763" data-name="Trazado 23763" d="M1288.7,331.1l11.35-15.06-3.84,10.71,2.31,3.16,8.45-3.74-10.76,13.48Z" fill="#b1c2bb" fill-rule="evenodd"/>
  <path id="Trazado_23764" data-name="Trazado 23764" d="M1170.8,321.11l4.19,10.08,6.83-.43-.04-11.26,4.33,17.39-13.18-1.06Z" fill="#ceded8" fill-rule="evenodd"/>
  <path id="Trazado_23765" data-name="Trazado 23765" d="M1291.6,325.32c-3.86-2.55-9.21-18.87-11.61-26.76a35.05,35.05,0,0,1-.9,5.26,10.42,10.42,0,0,1-4.92,6.16l15.57,17.38Z" fill="#a3b3ad" fill-rule="evenodd"/>
  <path id="Trazado_23766" data-name="Trazado 23766" d="M1248.67,282.58c.59,0,1.24.78,1.46,1.75s-.1,1.75-.69,1.75-1.24-.78-1.45-1.75S1248.08,282.58,1248.67,282.58Z" fill="#adadad" fill-rule="evenodd"/>
  <path id="Trazado_23767" data-name="Trazado 23767" d="M1256.53,299.45c.59,0,1.24.78,1.45,1.75s-.09,1.75-.68,1.75-1.24-.78-1.45-1.75S1255.94,299.45,1256.53,299.45Z" fill="#adadad" fill-rule="evenodd"/>
  <path id="Trazado_23768" data-name="Trazado 23768" d="M1258.93,320.64c.59,0,1.14.78,1.24,1.75s-.32,1.75-.91,1.75-1.14-.78-1.23-1.75S1258.34,320.64,1258.93,320.64Z" fill="#adadad" fill-rule="evenodd"/>
  <path id="Trazado_23769" data-name="Trazado 23769" d="M1260.08,339.35c.59,0,1.14.78,1.23,1.75s-.31,1.75-.9,1.75-1.14-.79-1.23-1.75S1259.49,339.35,1260.08,339.35Z" fill="#adadad" fill-rule="evenodd"/>
  <path id="Trazado_23770" data-name="Trazado 23770" d="M1261.79,361.9c.59,0,1.14.78,1.23,1.75s-.31,1.75-.9,1.75-1.14-.78-1.23-1.75S1261.2,361.9,1261.79,361.9Z" fill="#adadad" fill-rule="evenodd"/>
  <path id="Trazado_23771" data-name="Trazado 23771" d="M1212.83,281.3l-29.63,39.18,2.32,14,38.53-52a12.15,12.15,0,0,0-11.22-1.18Z" fill="#bfcfc9" fill-rule="evenodd"/>
  <path id="Trazado_23772" data-name="Trazado 23772" d="M79.4,191.45a49.23,49.23,0,0,1,3.72-9.52l2.24-.24A60.35,60.35,0,0,0,83,191.05Zm5.92,0A49.23,49.23,0,0,1,89,181.93l2.24-.24a56.139,56.139,0,0,0-2.36,9.36Z"/>
  <path id="Trazado_23773" data-name="Trazado 23773" d="M95.16,182.41h3.52v24H110.2v2.91h-15Z"/>
  <path id="Trazado_23774" data-name="Trazado 23774" d="M130.92,199.53c0,7.16-5,10.27-9.64,10.27-5.2,0-9.28-3.83-9.28-10,0-6.44,4.28-10.24,9.6-10.24C127.16,189.61,130.92,193.65,130.92,199.53Zm-15.32.2c0,4.24,2.4,7.44,5.84,7.44s5.88-3.16,5.88-7.52c0-3.28-1.64-7.4-5.8-7.4S115.6,196.09,115.6,199.73Z"/>
  <path id="Trazado_23775" data-name="Trazado 23775" d="M134.88,205.81a9.94,9.94,0,0,0,4.68,1.36c2.52,0,3.72-1.24,3.72-2.88s-1-2.56-3.56-3.52c-3.52-1.28-5.16-3.16-5.16-5.48,0-3.12,2.56-5.68,6.68-5.68a9,9,0,0,1,4.72,1.2l-.84,2.56a7.5,7.5,0,0,0-4-1.16c-2.08,0-3.2,1.2-3.2,2.64,0,1.6,1.12,2.32,3.64,3.32,3.32,1.24,5.08,2.92,5.08,5.8,0,3.44-2.68,5.83-7.2,5.83a11,11,0,0,1-5.44-1.36Z"/>
  <path id="Trazado_23776" data-name="Trazado 23776" d="M166.62,181.65l-4.88,5.72h-2.48l3.52-5.72Zm-7.16,27.71V190H163v19.35Z"/>
  <path id="Trazado_23777" data-name="Trazado 23777" d="M173.06,185.37V190h5v2.68h-5v10.44c0,2.4.68,3.76,2.64,3.76a6.57,6.57,0,0,0,2-.24l.16,2.67a9.6,9.6,0,0,1-3.12.48,5,5,0,0,1-3.8-1.48c-1-1.07-1.36-2.79-1.36-5.07V192.69h-3V190h3v-3.6Z"/>
  <path id="Trazado_23778" data-name="Trazado 23778" d="M183.78,200.33c.08,4.76,3.08,6.71,6.64,6.71a12.77,12.77,0,0,0,5.36-1l.64,2.51a15.61,15.61,0,0,1-6.48,1.24c-6,0-9.52-4-9.52-9.79s3.44-10.4,9.08-10.4c6.36,0,8,5.52,8,9.08a8.579,8.579,0,0,1-.12,1.64Zm10.32-2.52c0-2.2-.92-5.68-4.88-5.68-3.6,0-5.12,3.24-5.4,5.68Z"/>
  <path id="Trazado_23779" data-name="Trazado 23779" d="M201.86,195.25c0-2-.08-3.64-.16-5.24h3.08l.16,3.16h.12a6.69,6.69,0,0,1,6.12-3.56,5.71,5.71,0,0,1,5.44,3.88h.08a7.64,7.64,0,0,1,2.2-2.52,6.49,6.49,0,0,1,4.24-1.36c2.6,0,6.4,1.68,6.4,8.4v11.35H226.1V198.45c0-3.76-1.4-6-4.2-6a4.62,4.62,0,0,0-4.2,3.16,6,6,0,0,0-.28,1.76v12H214v-11.6c0-3.08-1.36-5.28-4-5.28a4.85,4.85,0,0,0-4.36,3.52,4.71,4.71,0,0,0-.28,1.72v11.63h-3.44Z"/>
  <path id="Trazado_23780" data-name="Trazado 23780" d="M234.74,205.81a9.94,9.94,0,0,0,4.68,1.36c2.52,0,3.72-1.24,3.72-2.88s-1-2.56-3.56-3.52c-3.52-1.28-5.16-3.16-5.16-5.48,0-3.12,2.56-5.68,6.68-5.68a9,9,0,0,1,4.72,1.2l-.84,2.56a7.5,7.5,0,0,0-4-1.16c-2.08,0-3.2,1.2-3.2,2.64,0,1.6,1.12,2.32,3.64,3.32,3.32,1.24,5.08,2.92,5.08,5.8,0,3.44-2.68,5.83-7.2,5.83a11,11,0,0,1-5.44-1.36Z"/>
  <path id="Trazado_23781" data-name="Trazado 23781" d="M272.53,206.41h-.08a7,7,0,0,1-6.32,3.39c-4.52,0-8.2-3.87-8.2-9.75,0-7.28,4.68-10.44,8.76-10.44a6.41,6.41,0,0,1,6,3.32h.08l.12-2.92h3.32c-.09,1.6-.17,3.32-.17,5.32v21.95h-3.47Zm0-8.56a5.679,5.679,0,0,0-.16-1.44,5.18,5.18,0,0,0-5-4c-3.64,0-5.84,3.08-5.84,7.4,0,3.88,1.84,7.2,5.72,7.2a5.25,5.25,0,0,0,5-3.8,6.438,6.438,0,0,0,.28-1.72Z"/>
  <path id="Trazado_23782" data-name="Trazado 23782" d="M298,204.05c0,2,0,3.8.16,5.31h-3.12l-.19-3.15h-.08a7.23,7.23,0,0,1-6.4,3.59c-3,0-6.68-1.72-6.68-8.47V190h3.52v10.68c0,3.68,1.16,6.2,4.32,6.2a5.06,5.06,0,0,0,4.64-3.24,4.841,4.841,0,0,0,.31-1.8V190H298Z"/>
  <path id="Trazado_23783" data-name="Trazado 23783" d="M305.85,200.33c.08,4.76,3.08,6.71,6.64,6.71a12.72,12.72,0,0,0,5.35-1l.64,2.51A15.51,15.51,0,0,1,312,209.8c-6,0-9.52-4-9.52-9.79s3.44-10.4,9.08-10.4c6.35,0,8,5.52,8,9.08a8.583,8.583,0,0,1-.12,1.64Zm10.32-2.52c0-2.2-.92-5.68-4.88-5.68-3.6,0-5.12,3.24-5.4,5.68Z"/>
  <path id="Trazado_23784" data-name="Trazado 23784" d="M346,208.69a13.65,13.65,0,0,1-5.56,1.11c-5.84,0-9.64-4-9.64-9.87s4.08-10.32,10.4-10.32a11.08,11.08,0,0,1,4.88,1l-.8,2.68a8.62,8.62,0,0,0-4.08-.92c-4.44,0-6.84,3.32-6.84,7.32,0,4.48,2.88,7.24,6.72,7.24a10.08,10.08,0,0,0,4.32-.92Z"/>
  <path id="Trazado_23785" data-name="Trazado 23785" d="M367.39,199.53c0,7.16-5,10.27-9.64,10.27-5.2,0-9.28-3.83-9.28-10,0-6.44,4.28-10.24,9.6-10.24C363.63,189.61,367.39,193.65,367.39,199.53Zm-15.32.2c0,4.24,2.4,7.44,5.84,7.44s5.88-3.16,5.88-7.52c0-3.28-1.64-7.4-5.8-7.4S352.07,196.09,352.07,199.73Z"/>
  <path id="Trazado_23786" data-name="Trazado 23786" d="M371.83,195.25c0-2,0-3.64-.16-5.24h3.12l.2,3.2h.08a7.17,7.17,0,0,1,6.4-3.6c2.68,0,6.84,1.6,6.84,8.24v11.51h-3.52V198.21c0-3.12-1.16-5.72-4.48-5.72a5.16,5.16,0,0,0-5,5.24v11.63h-3.52Z"/>
  <path id="Trazado_23787" data-name="Trazado 23787" d="M394.39,209.36V192.69h-2.68V190h2.68v-.92c0-2.72.64-5.2,2.24-6.76a6.74,6.74,0,0,1,4.72-1.8,8,8,0,0,1,3,.56l-.48,2.72a5.12,5.12,0,0,0-2.24-.44c-3,0-3.76,2.6-3.76,5.6v1h4.68v2.68h-4.68v16.67Z"/>
  <path id="Trazado_23788" data-name="Trazado 23788" d="M422.71,199.53c0,7.16-5,10.27-9.64,10.27-5.2,0-9.28-3.83-9.28-10,0-6.44,4.28-10.24,9.6-10.24C419,189.61,422.71,193.65,422.71,199.53Zm-15.32.2c0,4.24,2.4,7.44,5.84,7.44s5.88-3.16,5.88-7.52c0-3.28-1.64-7.4-5.8-7.4s-5.92,3.84-5.92,7.48Z"/>
  <path id="Trazado_23789" data-name="Trazado 23789" d="M427.15,196.05c0-2.28,0-4.24-.16-6h3.08l.16,3.84h.12a5.85,5.85,0,0,1,5.4-4.24,7.171,7.171,0,0,1,1,.08V193a5.479,5.479,0,0,0-1.2-.08c-2.48,0-4.24,1.84-4.72,4.48a10.532,10.532,0,0,0-.12,1.64v10.31h-3.52Z"/>
  <path id="Trazado_23790" data-name="Trazado 23790" d="M440.39,195.25c0-2-.08-3.64-.16-5.24h3.08l.16,3.16h.12a6.69,6.69,0,0,1,6.12-3.56,5.71,5.71,0,0,1,5.44,3.88h.08a7.64,7.64,0,0,1,2.2-2.52,6.49,6.49,0,0,1,4.24-1.36c2.6,0,6.4,1.68,6.4,8.4v11.35h-3.44V198.45c0-3.76-1.4-6-4.2-6a4.62,4.62,0,0,0-4.2,3.16,6,6,0,0,0-.28,1.76v12h-3.44v-11.6c0-3.08-1.36-5.28-4-5.28a4.85,4.85,0,0,0-4.36,3.52,4.709,4.709,0,0,0-.28,1.72v11.63h-3.44Z"/>
  <path id="Trazado_23791" data-name="Trazado 23791" d="M487.35,204.73a32.339,32.339,0,0,0,.28,4.63h-3.16l-.28-2.43h-.12a7.23,7.23,0,0,1-5.92,2.87,5.51,5.51,0,0,1-5.92-5.55c0-4.68,4.16-7.24,11.64-7.2v-.4c0-1.56-.44-4.48-4.4-4.44a9.33,9.33,0,0,0-5.08,1.44l-.8-2.36a12.54,12.54,0,0,1,6.4-1.68c5.92,0,7.36,4,7.36,7.88Zm-3.4-5.24c-3.84-.08-8.2.6-8.2,4.36a3.08,3.08,0,0,0,3.28,3.36,4.89,4.89,0,0,0,4.76-3.24,4,4,0,0,0,.16-1.12Z"/>
  <path id="Trazado_23792" data-name="Trazado 23792" d="M493,195.25c0-2,0-3.64-.16-5.24H496l.2,3.2h.08a7.17,7.17,0,0,1,6.4-3.6c2.68,0,6.84,1.6,6.84,8.24v11.51H506V198.21c0-3.12-1.16-5.72-4.48-5.72a5.16,5.16,0,0,0-5,5.24v11.63H493Z"/>
  <path id="Trazado_23793" data-name="Trazado 23793" d="M537.29,208.69a13.63,13.63,0,0,1-5.55,1.11c-5.84,0-9.64-4-9.64-9.87s4.08-10.32,10.4-10.32a11.07,11.07,0,0,1,4.87,1l-.8,2.68a8.57,8.57,0,0,0-4.07-.92c-4.44,0-6.84,3.32-6.84,7.32,0,4.48,2.88,7.24,6.72,7.24a10,10,0,0,0,4.31-.92Z"/>
  <path id="Trazado_23794" data-name="Trazado 23794" d="M555,204.73a32.335,32.335,0,0,0,.28,4.63h-3.16l-.28-2.43h-.12a7.2,7.2,0,0,1-5.91,2.87,5.51,5.51,0,0,1-5.92-5.55c0-4.68,4.16-7.24,11.63-7.2v-.4c0-1.56-.44-4.48-4.39-4.44a9.33,9.33,0,0,0-5.08,1.44l-.8-2.36a12.54,12.54,0,0,1,6.4-1.68c5.91,0,7.35,4,7.35,7.88Zm-3.4-5.24c-3.83-.08-8.19.6-8.19,4.36a3.08,3.08,0,0,0,3.28,3.36,4.89,4.89,0,0,0,4.76-3.24,4.333,4.333,0,0,0,.15-1.12Z"/>
  <path id="Trazado_23795" data-name="Trazado 23795" d="M577.37,181v23.4c0,1.72.08,3.67.16,5h-3.12l-.16-3.35h-.12a7,7,0,0,1-6.51,3.79c-4.68,0-8.32-4-8.32-9.83,0-6.44,4-10.36,8.68-10.36a6.48,6.48,0,0,1,5.83,2.92h.08V181Zm-3.48,16.92a6.209,6.209,0,0,0-.16-1.48,5.18,5.18,0,0,0-5.07-4c-3.64,0-5.8,3.2-5.8,7.44,0,3.92,2,7.16,5.72,7.16a5.33,5.33,0,0,0,5.15-4.2,6.112,6.112,0,0,0,.16-1.52Z"/>
  <path id="Trazado_23796" data-name="Trazado 23796" d="M596.85,204.73a32.343,32.343,0,0,0,.28,4.63H594l-.28-2.43h-.12a7.23,7.23,0,0,1-5.91,2.87,5.51,5.51,0,0,1-5.92-5.55c0-4.68,4.16-7.24,11.63-7.2v-.4c0-1.56-.44-4.48-4.39-4.44a9.33,9.33,0,0,0-5.08,1.44l-.8-2.36a12.54,12.54,0,0,1,6.4-1.68c5.91,0,7.35,4,7.35,7.88Zm-3.4-5.24c-3.84-.08-8.19.6-8.19,4.36a3.08,3.08,0,0,0,3.28,3.36,4.88,4.88,0,0,0,4.75-3.24,4,4,0,0,0,.16-1.12Z"/>
  <path id="Trazado_23797" data-name="Trazado 23797" d="M624.6,208.69a13.65,13.65,0,0,1-5.6,1.11c-5.84,0-9.64-4-9.64-9.87s4.08-10.32,10.4-10.32a11.08,11.08,0,0,1,4.88,1l-.8,2.68a8.62,8.62,0,0,0-4.08-.92c-4.44,0-6.84,3.32-6.84,7.32,0,4.48,2.88,7.24,6.72,7.24a10.08,10.08,0,0,0,4.32-.92Z"/>
  <path id="Trazado_23798" data-name="Trazado 23798" d="M628.72,196.05c0-2.28,0-4.24-.16-6h3.08l.16,3.84h.12a5.85,5.85,0,0,1,5.4-4.24,7.172,7.172,0,0,1,1,.08V193a5.48,5.48,0,0,0-1.2-.08c-2.48,0-4.24,1.84-4.72,4.48a10.528,10.528,0,0,0-.12,1.64v10.31h-3.52Z"/>
  <path id="Trazado_23799" data-name="Trazado 23799" d="M645.88,184.57a2.1,2.1,0,0,1-2.24,2.16,2.07,2.07,0,0,1-2.12-2.16,2.14,2.14,0,0,1,2.2-2.2,2.11,2.11,0,0,1,2.16,2.2ZM642,209.36V190h3.52v19.35Z"/>
  <path id="Trazado_23800" data-name="Trazado 23800" d="M655.56,185.37V190h5v2.68h-5v10.44c0,2.4.68,3.76,2.64,3.76a6.569,6.569,0,0,0,2-.24l.16,2.67a9.6,9.6,0,0,1-3.12.48,5,5,0,0,1-3.8-1.48c-1-1.07-1.36-2.79-1.36-5.07V192.69h-3V190h3v-3.6Z"/>
  <path id="Trazado_23801" data-name="Trazado 23801" d="M666.28,200.33c.08,4.76,3.08,6.71,6.64,6.71a12.77,12.77,0,0,0,5.36-1l.64,2.51a15.61,15.61,0,0,1-6.48,1.24c-6,0-9.52-4-9.52-9.79s3.44-10.4,9.08-10.4c6.36,0,8,5.52,8,9.08a8.578,8.578,0,0,1-.12,1.64Zm10.32-2.52c0-2.2-.92-5.68-4.88-5.68-3.6,0-5.12,3.24-5.4,5.68Z"/>
  <path id="Trazado_23802" data-name="Trazado 23802" d="M684.36,196.05c0-2.28,0-4.24-.16-6h3.08l.16,3.84h.12a5.85,5.85,0,0,1,5.4-4.24,7.171,7.171,0,0,1,1,.08V193a5.48,5.48,0,0,0-1.2-.08c-2.48,0-4.24,1.84-4.72,4.48a10.521,10.521,0,0,0-.12,1.64v10.31H684.4Z"/>
  <path id="Trazado_23803" data-name="Trazado 23803" d="M701.52,184.57a2.1,2.1,0,0,1-2.24,2.16,2.07,2.07,0,0,1-2.12-2.16,2.14,2.14,0,0,1,2.2-2.2,2.11,2.11,0,0,1,2.16,2.2Zm-3.92,24.79V190h3.52v19.35Z"/>
  <path id="Trazado_23804" data-name="Trazado 23804" d="M724.48,199.53c0,7.16-5,10.27-9.64,10.27-5.2,0-9.28-3.83-9.28-10,0-6.44,4.28-10.24,9.6-10.24C720.72,189.61,724.48,193.65,724.48,199.53Zm-15.32.2c0,4.24,2.4,7.44,5.84,7.44s5.88-3.16,5.88-7.52c0-3.28-1.64-7.4-5.8-7.4S709.16,196.09,709.16,199.73Z"/>
  <path id="Trazado_23805" data-name="Trazado 23805" d="M98.44,247.53c0,7.16-5,10.27-9.64,10.27-5.2,0-9.28-3.83-9.28-10,0-6.44,4.28-10.24,9.6-10.24C94.68,237.61,98.44,241.65,98.44,247.53Zm-15.32.2c0,4.24,2.4,7.44,5.84,7.44s5.88-3.16,5.88-7.52c0-3.28-1.64-7.4-5.8-7.4S83.12,244.09,83.12,247.73Z"/>
  <path id="Trazado_23806" data-name="Trazado 23806" d="M120.3,257.36V240.69h-2.68V238h2.68v-.92c0-2.72.64-5.2,2.24-6.76a6.74,6.74,0,0,1,4.72-1.8,8,8,0,0,1,3,.56l-.48,2.72a5.12,5.12,0,0,0-2.24-.44c-3,0-3.76,2.6-3.76,5.6v1h4.68v2.68h-4.68v16.67Z"/>
  <path id="Trazado_23807" data-name="Trazado 23807" d="M147.81,252.05c0,2,0,3.8.16,5.31h-3.12l-.19-3.15h-.08a7.23,7.23,0,0,1-6.4,3.59c-3,0-6.68-1.72-6.68-8.47V238H135v10.68c0,3.68,1.16,6.2,4.32,6.2a5.06,5.06,0,0,0,4.64-3.24,4.84,4.84,0,0,0,.31-1.8V238h3.52Z"/>
  <path id="Trazado_23808" data-name="Trazado 23808" d="M153.66,243.25c0-2,0-3.64-.16-5.24h3.12l.2,3.2h.08a7.17,7.17,0,0,1,6.4-3.6c2.68,0,6.83,1.6,6.83,8.24v11.51h-3.51V246.21c0-3.12-1.16-5.72-4.48-5.72a5.16,5.16,0,0,0-5,5.24v11.63h-3.52Z"/>
  <path id="Trazado_23809" data-name="Trazado 23809" d="M189.65,256.69a13.59,13.59,0,0,1-5.55,1.11c-5.84,0-9.64-4-9.64-9.87s4.08-10.32,10.4-10.32a11,11,0,0,1,4.87,1l-.8,2.68a8.57,8.57,0,0,0-4.07-.92c-4.44,0-6.84,3.32-6.84,7.32,0,4.48,2.88,7.24,6.72,7.24a10,10,0,0,0,4.31-.92Z"/>
  <path id="Trazado_23810" data-name="Trazado 23810" d="M197.7,232.57a2.1,2.1,0,0,1-2.24,2.16,2.07,2.07,0,0,1-2.12-2.16,2.14,2.14,0,0,1,2.2-2.2,2.11,2.11,0,0,1,2.16,2.2Zm-3.92,24.79V238h3.52v19.35Z"/>
  <path id="Trazado_23811" data-name="Trazado 23811" d="M220.65,247.53c0,7.16-5,10.27-9.63,10.27-5.2,0-9.28-3.83-9.28-10,0-6.44,4.28-10.24,9.6-10.24C216.89,237.61,220.65,241.65,220.65,247.53Zm-15.31.2c0,4.24,2.4,7.44,5.84,7.44s5.87-3.16,5.87-7.52c0-3.28-1.64-7.4-5.79-7.4S205.34,244.09,205.34,247.73Zm11.11-18.08-4.87,5.72H209.1l3.48-5.72Z"/>
  <path id="Trazado_23812" data-name="Trazado 23812" d="M225.1,243.25c0-2,0-3.64-.16-5.24h3.12l.2,3.2h.08a7.17,7.17,0,0,1,6.4-3.6c2.67,0,6.83,1.6,6.83,8.24v11.51h-3.52V246.21c0-3.12-1.16-5.72-4.47-5.72a5.16,5.16,0,0,0-5,5.24v11.63H225.1Z"/>
  <path id="Trazado_23813" data-name="Trazado 23813" d="M245,262.32a59,59,0,0,0,2.4-9.59l3.92-.4A51,51,0,0,1,247.5,262Z"/>
  <path id="Trazado_23814" data-name="Trazado 23814" d="M289.31,229v23.4c0,1.72.08,3.67.16,5h-3.12l-.16-3.35h-.12a7,7,0,0,1-6.52,3.79c-4.68,0-8.32-4-8.32-9.83,0-6.44,4-10.36,8.68-10.36a6.49,6.49,0,0,1,5.84,2.92h.08V229Zm-3.48,16.92a6.21,6.21,0,0,0-.16-1.48,5.18,5.18,0,0,0-5.08-4c-3.64,0-5.8,3.2-5.8,7.44,0,3.92,2,7.16,5.72,7.16a5.33,5.33,0,0,0,5.16-4.2,6.109,6.109,0,0,0,.16-1.52Z"/>
  <path id="Trazado_23815" data-name="Trazado 23815" d="M297.15,248.33c.08,4.76,3.08,6.71,6.64,6.71a12.77,12.77,0,0,0,5.36-1l.64,2.51a15.61,15.61,0,0,1-6.48,1.24c-6,0-9.52-4-9.52-9.79s3.44-10.4,9.08-10.4c6.36,0,8,5.52,8,9.08a8.583,8.583,0,0,1-.12,1.64Zm10.32-2.52c0-2.2-.92-5.68-4.88-5.68-3.6,0-5.12,3.24-5.4,5.68Z"/>
  <path id="Trazado_23816" data-name="Trazado 23816" d="M332.29,229h3.52v28.39h-3.52Z"/>
  <path id="Trazado_23817" data-name="Trazado 23817" d="M355.33,252.73a32.339,32.339,0,0,0,.28,4.63h-3.16l-.28-2.43h-.12a7.23,7.23,0,0,1-5.92,2.87,5.51,5.51,0,0,1-5.92-5.55c0-4.68,4.16-7.24,11.64-7.2v-.4c0-1.56-.44-4.48-4.4-4.44a9.33,9.33,0,0,0-5.08,1.44l-.8-2.36a12.54,12.54,0,0,1,6.4-1.68c5.92,0,7.36,4,7.36,7.88Zm-3.4-5.24c-3.84-.08-8.2.6-8.2,4.36a3.08,3.08,0,0,0,3.28,3.36,4.89,4.89,0,0,0,4.76-3.24,4,4,0,0,0,.16-1.12Z"/>
  <path id="Trazado_23818" data-name="Trazado 23818" d="M378.07,229h3.52v28.39h-3.52Z"/>
  <path id="Trazado_23819" data-name="Trazado 23819" d="M391.43,232.57a2.1,2.1,0,0,1-2.24,2.16,2.07,2.07,0,0,1-2.12-2.16,2.14,2.14,0,0,1,2.2-2.2,2.11,2.11,0,0,1,2.16,2.2Zm-3.92,24.79V238H391v19.35Z"/>
  <path id="Trazado_23820" data-name="Trazado 23820" d="M396.39,253.81a9.94,9.94,0,0,0,4.68,1.36c2.52,0,3.72-1.24,3.72-2.88s-1-2.56-3.56-3.52c-3.52-1.28-5.16-3.16-5.16-5.48,0-3.12,2.56-5.68,6.68-5.68a9,9,0,0,1,4.72,1.2l-.84,2.56a7.5,7.5,0,0,0-4-1.16c-2.08,0-3.2,1.2-3.2,2.64,0,1.6,1.12,2.32,3.64,3.32,3.32,1.24,5.08,2.92,5.08,5.8,0,3.44-2.68,5.83-7.2,5.83a11,11,0,0,1-5.44-1.36Z"/>
  <path id="Trazado_23821" data-name="Trazado 23821" d="M417,233.37V238h5v2.68h-5v10.44c0,2.4.68,3.76,2.64,3.76a6.57,6.57,0,0,0,2-.24l.16,2.67a9.6,9.6,0,0,1-3.12.48,5,5,0,0,1-3.8-1.48c-1-1.07-1.36-2.79-1.36-5.07V240.69h-3V238h3v-3.6Z"/>
  <path id="Trazado_23822" data-name="Trazado 23822" d="M439.55,252.73a32.335,32.335,0,0,0,.28,4.63h-3.16l-.28-2.43h-.12a7.23,7.23,0,0,1-5.92,2.87,5.51,5.51,0,0,1-5.92-5.55c0-4.68,4.16-7.24,11.64-7.2v-.4c0-1.56-.44-4.48-4.4-4.44a9.33,9.33,0,0,0-5.08,1.44l-.8-2.36a12.54,12.54,0,0,1,6.4-1.68c5.92,0,7.36,4,7.36,7.88Zm-3.4-5.24c-3.84-.08-8.2.6-8.2,4.36a3.08,3.08,0,0,0,3.28,3.36A4.89,4.89,0,0,0,436,252a4,4,0,0,0,.16-1.12Z"/>
  <path id="Trazado_23823" data-name="Trazado 23823" d="M479,229v23.4c0,1.72.08,3.67.16,5H476l-.16-3.35h-.12a7,7,0,0,1-6.51,3.79c-4.68,0-8.32-4-8.32-9.83,0-6.44,4-10.36,8.67-10.36a6.49,6.49,0,0,1,5.84,2.92h.08V229Zm-3.48,16.92a6.21,6.21,0,0,0-.16-1.48,5.18,5.18,0,0,0-5.07-4c-3.64,0-5.8,3.2-5.8,7.44,0,3.92,2,7.16,5.72,7.16a5.33,5.33,0,0,0,5.15-4.2,6.109,6.109,0,0,0,.16-1.52Z"/>
  <path id="Trazado_23824" data-name="Trazado 23824" d="M486.81,248.33c.08,4.76,3.08,6.71,6.63,6.71a12.77,12.77,0,0,0,5.36-1l.64,2.51A15.61,15.61,0,0,1,493,257.8c-5.95,0-9.51-4-9.51-9.79s3.44-10.4,9.07-10.4c6.36,0,8,5.52,8,9.08a8.58,8.58,0,0,1-.12,1.64Zm10.31-2.52c0-2.2-.92-5.68-4.87-5.68-3.6,0-5.12,3.24-5.4,5.68Z"/>
  <path id="Trazado_23825" data-name="Trazado 23825" d="M535.74,256.69a13.649,13.649,0,0,1-5.56,1.11c-5.84,0-9.64-4-9.64-9.87s4.08-10.32,10.4-10.32a11.08,11.08,0,0,1,4.88,1l-.8,2.68a8.62,8.62,0,0,0-4.08-.92c-4.44,0-6.84,3.32-6.84,7.32,0,4.48,2.88,7.24,6.72,7.24a10.08,10.08,0,0,0,4.32-.92Z"/>
  <path id="Trazado_23826" data-name="Trazado 23826" d="M539.86,229h3.52v12.12h.08a6.63,6.63,0,0,1,2.52-2.52,7.22,7.22,0,0,1,3.6-1c2.6,0,6.76,1.6,6.76,8.24v11.51h-3.52v-11.1c0-3.12-1.16-5.72-4.48-5.72a5.11,5.11,0,0,0-4.72,3.48,4.5,4.5,0,0,0-.24,1.68v11.67h-3.52Z"/>
  <path id="Trazado_23827" data-name="Trazado 23827" d="M564,248.33c.08,4.76,3.08,6.71,6.64,6.71a12.77,12.77,0,0,0,5.36-1l.64,2.51a15.61,15.61,0,0,1-6.48,1.24c-6,0-9.52-4-9.52-9.79s3.44-10.4,9.08-10.4c6.36,0,8,5.52,8,9.08a8.587,8.587,0,0,1-.12,1.64Zm10.32-2.52c0-2.2-.92-5.68-4.88-5.68-3.6,0-5.12,3.24-5.4,5.68Z"/>
  <path id="Trazado_23828" data-name="Trazado 23828" d="M595.3,254.41h-.08a7,7,0,0,1-6.32,3.39c-4.52,0-8.2-3.87-8.2-9.75,0-7.28,4.68-10.44,8.76-10.44a6.41,6.41,0,0,1,6,3.32h.08l.12-2.92h3.32c-.08,1.6-.16,3.32-.16,5.32v21.95H595.3Zm0-8.56a5.684,5.684,0,0,0-.16-1.44,5.18,5.18,0,0,0-5-4c-3.64,0-5.84,3.08-5.84,7.4,0,3.88,1.84,7.2,5.72,7.2a5.25,5.25,0,0,0,5-3.8,6.439,6.439,0,0,0,.28-1.72Z"/>
  <path id="Trazado_23829" data-name="Trazado 23829" d="M620.82,252.05c0,2,0,3.8.16,5.31h-3.12l-.2-3.15h-.08a7.23,7.23,0,0,1-6.4,3.59c-3,0-6.68-1.72-6.68-8.47V238H608v10.68c0,3.68,1.16,6.2,4.32,6.2a5.06,5.06,0,0,0,4.64-3.24,4.83,4.83,0,0,0,.32-1.8V238h3.52Z"/>
  <path id="Trazado_23830" data-name="Trazado 23830" d="M628.62,248.33c.08,4.76,3.08,6.71,6.64,6.71a12.77,12.77,0,0,0,5.36-1l.64,2.51a15.611,15.611,0,0,1-6.48,1.24c-6,0-9.52-4-9.52-9.79s3.44-10.4,9.08-10.4c6.36,0,8,5.52,8,9.08a8.578,8.578,0,0,1-.12,1.64Zm10.32-2.52c0-2.2-.92-5.68-4.88-5.68-3.6,0-5.12,3.24-5.4,5.68Z"/>
  <path id="Trazado_23831" data-name="Trazado 23831" d="M664.22,247.53c0,7.16-5,10.27-9.64,10.27-5.2,0-9.28-3.83-9.28-10,0-6.44,4.28-10.24,9.6-10.24C660.46,237.61,664.22,241.65,664.22,247.53Zm-15.32.2c0,4.24,2.4,7.44,5.84,7.44s5.88-3.16,5.88-7.52c0-3.28-1.64-7.4-5.8-7.4s-5.92,3.84-5.92,7.48Z"/>
  <path id="Trazado_23832" data-name="Trazado 23832" d="M665.42,262.32a59,59,0,0,0,2.4-9.59l3.92-.4A51,51,0,0,1,667.9,262Z"/>
  <path id="Trazado_23833" data-name="Trazado 23833" d="M692.56,253.81a9.94,9.94,0,0,0,4.68,1.36c2.52,0,3.72-1.24,3.72-2.88s-1-2.56-3.56-3.52c-3.52-1.28-5.16-3.16-5.16-5.48,0-3.12,2.56-5.68,6.68-5.68a9,9,0,0,1,4.72,1.2l-.84,2.56a7.5,7.5,0,0,0-4-1.16c-2.08,0-3.2,1.2-3.2,2.64,0,1.6,1.12,2.32,3.64,3.32,3.32,1.24,5.08,2.92,5.08,5.8,0,3.44-2.68,5.83-7.2,5.83a11,11,0,0,1-5.44-1.36Z"/>
  <path id="Trazado_23834" data-name="Trazado 23834" d="M710.84,248.33c.08,4.76,3.08,6.71,6.64,6.71a12.77,12.77,0,0,0,5.36-1l.64,2.51A15.611,15.611,0,0,1,717,257.8c-6,0-9.52-4-9.52-9.79s3.44-10.4,9.08-10.4c6.36,0,8,5.52,8,9.08a8.578,8.578,0,0,1-.12,1.64Zm10.32-2.52c0-2.2-.92-5.68-4.88-5.68-3.6,0-5.12,3.24-5.4,5.68Z"/>
  <path id="Trazado_23835" data-name="Trazado 23835" d="M80.92,292.33c0-2.48-.08-4.48-.16-6.32h3.12l.2,3.32h.08A7.54,7.54,0,0,1,91,285.61c4.72,0,8.24,4,8.24,9.8,0,7-4.28,10.39-8.84,10.39a6.78,6.78,0,0,1-6-3h0v10.51H80.92Zm3.48,5.16a5.48,5.48,0,0,0,.16,1.44A5.42,5.42,0,0,0,89.84,303c3.72,0,5.88-3,5.88-7.47,0-3.84-2-7.16-5.76-7.16a5.54,5.54,0,0,0-5.32,4.32,5.711,5.711,0,0,0-.24,1.4Z"/>
  <path id="Trazado_23836" data-name="Trazado 23836" d="M103.68,292.05c0-2.28,0-4.24-.16-6h3.08l.16,3.84h.12a5.85,5.85,0,0,1,5.4-4.24,7.17,7.17,0,0,1,1,.08V289a5.48,5.48,0,0,0-1.2-.08c-2.48,0-4.24,1.84-4.72,4.48a10.528,10.528,0,0,0-.12,1.64v10.32h-3.52Z"/>
  <path id="Trazado_23837" data-name="Trazado 23837" d="M133.88,295.53c0,7.16-5,10.27-9.64,10.27-5.2,0-9.28-3.83-9.28-9.95,0-6.44,4.28-10.24,9.6-10.24C130.12,285.61,133.88,289.65,133.88,295.53Zm-15.32.2c0,4.24,2.4,7.44,5.84,7.44s5.88-3.16,5.88-7.52c0-3.28-1.64-7.4-5.8-7.4s-5.92,3.84-5.92,7.48Z"/>
  <path id="Trazado_23838" data-name="Trazado 23838" d="M138.68,305.37V288.69H136V286h2.68v-.92c0-2.72.64-5.2,2.24-6.76a6.74,6.74,0,0,1,4.72-1.8,8,8,0,0,1,3,.56l-.48,2.72a5.12,5.12,0,0,0-2.24-.44c-3,0-3.76,2.6-3.76,5.6v1h4.68v2.68h-4.68v16.68Z"/>
  <path id="Trazado_23839" data-name="Trazado 23839" d="M166.2,300.05c0,2,0,3.8.16,5.32h-3.12l-.2-3.16H163a7.23,7.23,0,0,1-6.4,3.59c-3,0-6.68-1.72-6.68-8.47V286h3.52v10.68c0,3.68,1.16,6.2,4.32,6.2a5.06,5.06,0,0,0,4.64-3.24,4.83,4.83,0,0,0,.32-1.8V286h3.52Z"/>
  <path id="Trazado_23840" data-name="Trazado 23840" d="M172,291.25c0-2,0-3.64-.16-5.24H175l.2,3.2h.08a7.17,7.17,0,0,1,6.4-3.6c2.68,0,6.84,1.6,6.84,8.24v11.52H185V294.21c0-3.12-1.16-5.72-4.48-5.72a5.16,5.16,0,0,0-5,5.24v11.64H172Z"/>
  <path id="Trazado_23841" data-name="Trazado 23841" d="M210.92,277v23.4c0,1.72.08,3.67.16,5H208l-.2-3.4h-.12a7,7,0,0,1-6.52,3.79c-4.68,0-8.32-3.95-8.32-9.83,0-6.44,4-10.36,8.68-10.36a6.49,6.49,0,0,1,5.84,2.92h.08V277Zm-3.48,16.92a6.21,6.21,0,0,0-.16-1.48,5.18,5.18,0,0,0-5.08-4c-3.64,0-5.8,3.2-5.8,7.44,0,3.92,2,7.16,5.72,7.16a5.33,5.33,0,0,0,5.16-4.2,6.11,6.11,0,0,0,.16-1.52Z"/>
  <path id="Trazado_23842" data-name="Trazado 23842" d="M220.72,280.57a2.1,2.1,0,0,1-2.24,2.16,2.07,2.07,0,0,1-2.12-2.16,2.14,2.14,0,0,1,2.2-2.2,2.11,2.11,0,0,1,2.16,2.2Zm-3.92,24.8V286h3.52v19.36Z"/>
  <path id="Trazado_23843" data-name="Trazado 23843" d="M224,303.33l8.72-11.4c.88-1.08,1.68-2,2.56-3v-.08H224.76V286h14.72v2.2l-8.64,11.24a38.054,38.054,0,0,1-2.48,3v.08h11.28v2.8H224Z"/>
  <path id="Trazado_23844" data-name="Trazado 23844" d="M256.88,300.73a32.577,32.577,0,0,0,.28,4.64H254l-.28-2.44h-.12a7.2,7.2,0,0,1-5.92,2.87,5.51,5.51,0,0,1-5.92-5.55c0-4.68,4.16-7.24,11.64-7.2v-.4c0-1.56-.44-4.48-4.4-4.44a9.33,9.33,0,0,0-5.08,1.44l-.8-2.36a12.54,12.54,0,0,1,6.4-1.68c5.92,0,7.36,4,7.36,7.88Zm-3.4-5.24c-3.84-.08-8.2.6-8.2,4.36a3.08,3.08,0,0,0,3.28,3.36,4.89,4.89,0,0,0,4.76-3.24,4,4,0,0,0,.16-1.12Z"/>
  <path id="Trazado_23845" data-name="Trazado 23845" d="M262.56,292.05c0-2.28,0-4.24-.16-6h3.08l.16,3.84h.12a5.85,5.85,0,0,1,5.4-4.24,7.17,7.17,0,0,1,1,.08V289a5.481,5.481,0,0,0-1.2-.08c-2.48,0-4.24,1.84-4.72,4.48a10.529,10.529,0,0,0-.12,1.64v10.32H262.6Z"/>
  <path id="Trazado_23846" data-name="Trazado 23846" d="M289,300.73a32.577,32.577,0,0,0,.28,4.64h-3.15l-.28-2.44h-.12a7.2,7.2,0,0,1-5.92,2.87,5.51,5.51,0,0,1-5.92-5.55c0-4.68,4.16-7.24,11.64-7.2v-.4c0-1.56-.44-4.48-4.4-4.44a9.33,9.33,0,0,0-5.08,1.44l-.8-2.36a12.54,12.54,0,0,1,6.4-1.68c5.92,0,7.35,4,7.35,7.88Zm-3.39-5.24c-3.84-.08-8.2.6-8.2,4.36a3.08,3.08,0,0,0,3.28,3.36,4.89,4.89,0,0,0,4.76-3.24,4,4,0,0,0,.16-1.12Zm1.76-17.84-4.88,5.72H280l3.48-5.72Z"/>
  <path id="Trazado_23847" data-name="Trazado 23847" d="M294.72,291.25c0-2,0-3.64-.16-5.24h3.12l.2,3.2H298a7.17,7.17,0,0,1,6.4-3.6c2.68,0,6.83,1.6,6.83,8.24v11.52h-3.51V294.21c0-3.12-1.16-5.72-4.48-5.72a5.16,5.16,0,0,0-5,5.24v11.64h-3.52Z"/>
  <path id="Trazado_23848" data-name="Trazado 23848" d="M349.13,300.73a32.577,32.577,0,0,0,.28,4.64h-3.16l-.28-2.44h-.12a7.2,7.2,0,0,1-5.92,2.87,5.51,5.51,0,0,1-5.92-5.55c0-4.68,4.16-7.24,11.64-7.2v-.4c0-1.56-.44-4.48-4.4-4.44a9.33,9.33,0,0,0-5.08,1.44l-.8-2.36a12.54,12.54,0,0,1,6.4-1.68c5.92,0,7.36,4,7.36,7.88Zm-3.4-5.24c-3.84-.08-8.2.6-8.2,4.36a3.08,3.08,0,0,0,3.28,3.36,4.89,4.89,0,0,0,4.76-3.24,4,4,0,0,0,.16-1.12Z"/>
  <path id="Trazado_23849" data-name="Trazado 23849" d="M377.66,281.37V286h5v2.68h-5v10.44c0,2.4.68,3.76,2.64,3.76a6.57,6.57,0,0,0,2-.24l.16,2.68a9.641,9.641,0,0,1-3.12.47,5,5,0,0,1-3.8-1.47c-1-1.08-1.36-2.8-1.36-5.08V288.69h-3V286h3v-3.6Z"/>
  <path id="Trazado_23850" data-name="Trazado 23850" d="M386.66,292.05c0-2.28,0-4.24-.16-6h3.08l.16,3.84h.12a5.85,5.85,0,0,1,5.4-4.24,7.17,7.17,0,0,1,1,.08V289a5.481,5.481,0,0,0-1.2-.08c-2.48,0-4.24,1.84-4.72,4.48a10.525,10.525,0,0,0-.12,1.64v10.32H386.7Z"/>
  <path id="Trazado_23851" data-name="Trazado 23851" d="M413.14,300.73a32.577,32.577,0,0,0,.28,4.64h-3.16l-.28-2.44h-.12a7.2,7.2,0,0,1-5.92,2.87,5.51,5.51,0,0,1-5.92-5.55c0-4.68,4.16-7.24,11.64-7.2v-.4c0-1.56-.44-4.48-4.4-4.44a9.33,9.33,0,0,0-5.08,1.44l-.8-2.36a12.54,12.54,0,0,1,6.4-1.68c5.92,0,7.36,4,7.36,7.88Zm-3.4-5.24c-3.84-.08-8.2.6-8.2,4.36a3.08,3.08,0,0,0,3.28,3.36,4.89,4.89,0,0,0,4.76-3.24,4,4,0,0,0,.16-1.12Z"/>
  <path id="Trazado_23852" data-name="Trazado 23852" d="M419.86,286l3.8,10.84c.64,1.8,1.16,3.4,1.56,5h.12c.44-1.6,1-3.2,1.64-5L430.74,286h3.68l-7.6,19.36h-3.36L416.1,286Z"/>
  <path id="Trazado_23853" data-name="Trazado 23853" d="M439.3,296.33c.08,4.76,3.08,6.71,6.64,6.71a12.77,12.77,0,0,0,5.36-1l.64,2.52a15.8,15.8,0,0,1-6.48,1.23c-6,0-9.52-3.95-9.52-9.79s3.44-10.4,9.08-10.4c6.36,0,8,5.52,8,9.08a8.58,8.58,0,0,1-.12,1.64Zm10.32-2.52c0-2.2-.92-5.68-4.88-5.68-3.6,0-5.12,3.24-5.4,5.68Zm.8-16.16-4.88,5.72h-2.48l3.52-5.72Z"/>
  <path id="Trazado_23854" data-name="Trazado 23854" d="M456.9,301.81a9.94,9.94,0,0,0,4.68,1.36c2.52,0,3.72-1.24,3.72-2.88s-1-2.56-3.56-3.52c-3.52-1.28-5.16-3.16-5.16-5.48,0-3.12,2.56-5.68,6.68-5.68a9,9,0,0,1,4.72,1.2l-.84,2.56a7.5,7.5,0,0,0-4-1.16c-2.08,0-3.2,1.2-3.2,2.64,0,1.6,1.12,2.32,3.64,3.32,3.32,1.24,5.08,2.92,5.08,5.8,0,3.44-2.68,5.83-7.2,5.83a11,11,0,0,1-5.44-1.35Z"/>
  <path id="Trazado_23855" data-name="Trazado 23855" d="M508.51,277v23.4c0,1.72.08,3.67.16,5h-3.12l-.16-3.36h-.12a7,7,0,0,1-6.52,3.79c-4.68,0-8.32-3.95-8.32-9.83,0-6.44,4-10.36,8.68-10.36a6.49,6.49,0,0,1,5.84,2.92H505V277ZM505,293.89a6.207,6.207,0,0,0-.16-1.48,5.18,5.18,0,0,0-5.08-4c-3.64,0-5.8,3.2-5.8,7.44,0,3.92,2,7.16,5.72,7.16a5.33,5.33,0,0,0,5.16-4.2,6.111,6.111,0,0,0,.16-1.52Z"/>
  <path id="Trazado_23856" data-name="Trazado 23856" d="M516.35,296.33c.08,4.76,3.08,6.71,6.64,6.71a12.77,12.77,0,0,0,5.36-1l.64,2.52a15.8,15.8,0,0,1-6.48,1.23c-6,0-9.52-3.95-9.52-9.79s3.44-10.4,9.08-10.4c6.36,0,8,5.52,8,9.08a8.583,8.583,0,0,1-.12,1.64Zm10.32-2.52c0-2.2-.92-5.68-4.88-5.68-3.6,0-5.12,3.24-5.4,5.68Z"/>
  <path id="Trazado_23857" data-name="Trazado 23857" d="M534.43,277H538v28.4h-3.52Z"/>
  <path id="Trazado_23858" data-name="Trazado 23858" d="M579.16,277v23.4c0,1.72.08,3.67.16,5H576.2L576,302h-.12a7,7,0,0,1-6.52,3.79c-4.68,0-8.32-3.95-8.32-9.83,0-6.44,4-10.36,8.68-10.36a6.49,6.49,0,0,1,5.84,2.92h.08V277Zm-3.48,16.92a6.209,6.209,0,0,0-.16-1.48,5.18,5.18,0,0,0-5.08-4c-3.64,0-5.8,3.2-5.8,7.44,0,3.92,2,7.16,5.72,7.16a5.33,5.33,0,0,0,5.16-4.2,6.109,6.109,0,0,0,.16-1.52Z"/>
  <path id="Trazado_23859" data-name="Trazado 23859" d="M587,296.33c.08,4.76,3.08,6.71,6.64,6.71a12.77,12.77,0,0,0,5.36-1l.64,2.52a15.8,15.8,0,0,1-6.48,1.23c-6,0-9.52-3.95-9.52-9.79s3.44-10.4,9.08-10.4c6.36,0,8,5.52,8,9.08a8.578,8.578,0,0,1-.12,1.64Zm10.32-2.52c0-2.2-.92-5.68-4.88-5.68-3.6,0-5.12,3.24-5.4,5.68Z"/>
  <path id="Trazado_23860" data-name="Trazado 23860" d="M604.6,301.81a9.94,9.94,0,0,0,4.68,1.36c2.52,0,3.72-1.24,3.72-2.88s-1-2.56-3.56-3.52c-3.52-1.28-5.16-3.16-5.16-5.48,0-3.12,2.56-5.68,6.68-5.68a9,9,0,0,1,4.72,1.2l-.84,2.56a7.5,7.5,0,0,0-4-1.16c-2.08,0-3.2,1.2-3.2,2.64,0,1.6,1.12,2.32,3.64,3.32,3.32,1.24,5.08,2.92,5.08,5.8,0,3.44-2.68,5.83-7.2,5.83a11,11,0,0,1-5.44-1.35Z"/>
  <path id="Trazado_23861" data-name="Trazado 23861" d="M634.52,300.73a32.573,32.573,0,0,0,.28,4.64h-3.16l-.28-2.44h-.12a7.2,7.2,0,0,1-5.92,2.87,5.51,5.51,0,0,1-5.92-5.55c0-4.68,4.16-7.24,11.64-7.2v-.4c0-1.56-.44-4.48-4.4-4.44a9.33,9.33,0,0,0-5.08,1.44l-.8-2.36a12.54,12.54,0,0,1,6.4-1.68c5.92,0,7.36,4,7.36,7.88Zm-3.4-5.24c-3.84-.08-8.2.6-8.2,4.36a3.08,3.08,0,0,0,3.28,3.36A4.89,4.89,0,0,0,631,300a4,4,0,0,0,.16-1.12Z"/>
  <path id="Trazado_23862" data-name="Trazado 23862" d="M640.2,292.05c0-2.28,0-4.24-.16-6h3.08l.16,3.84h.12a5.85,5.85,0,0,1,5.4-4.24,7.171,7.171,0,0,1,1,.08V289a5.48,5.48,0,0,0-1.2-.08c-2.48,0-4.24,1.84-4.72,4.48a10.536,10.536,0,0,0-.12,1.64v10.32H640.2Z"/>
  <path id="Trazado_23863" data-name="Trazado 23863" d="M653.44,292.05c0-2.28,0-4.24-.16-6h3.08l.16,3.84h.12a5.85,5.85,0,0,1,5.4-4.24,7.171,7.171,0,0,1,1,.08V289a5.48,5.48,0,0,0-1.2-.08c-2.48,0-4.24,1.84-4.72,4.48a10.528,10.528,0,0,0-.12,1.64v10.32h-3.52Z"/>
  <path id="Trazado_23864" data-name="Trazado 23864" d="M683.64,295.53c0,7.16-5,10.27-9.64,10.27-5.2,0-9.28-3.83-9.28-9.95,0-6.44,4.28-10.24,9.6-10.24C679.88,285.61,683.64,289.65,683.64,295.53Zm-15.32.2c0,4.24,2.4,7.44,5.84,7.44S680,300,680,295.65c0-3.28-1.64-7.4-5.8-7.4S668.32,292.09,668.32,295.73Z"/>
  <path id="Trazado_23865" data-name="Trazado 23865" d="M688.08,277h3.52v28.4h-3.52Z"/>
  <path id="Trazado_23866" data-name="Trazado 23866" d="M697.52,277H701v28.4h-3.52Z"/>
  <path id="Trazado_23867" data-name="Trazado 23867" d="M724.48,295.53c0,7.16-5,10.27-9.64,10.27-5.2,0-9.28-3.83-9.28-9.95,0-6.44,4.28-10.24,9.6-10.24C720.72,285.61,724.48,289.65,724.48,295.53Zm-15.32.2c0,4.24,2.4,7.44,5.84,7.44s5.88-3.16,5.88-7.52c0-3.28-1.64-7.4-5.8-7.4S709.16,292.09,709.16,295.73Z"/>
  <path id="Trazado_23868" data-name="Trazado 23868" d="M97.6,325v23.4c0,1.72.08,3.67.16,5H94.64l-.16-3.4h-.12a7,7,0,0,1-6.52,3.79c-4.68,0-8.32-3.95-8.32-9.83,0-6.44,4-10.36,8.68-10.36a6.49,6.49,0,0,1,5.8,2.93h.08V325Zm-3.48,16.92a6.21,6.21,0,0,0-.16-1.48,5.18,5.18,0,0,0-5.08-4c-3.64,0-5.8,3.2-5.8,7.44,0,3.92,2,7.16,5.72,7.16a5.33,5.33,0,0,0,5.16-4.2,6.111,6.111,0,0,0,.16-1.52Z"/>
  <path id="Trazado_23869" data-name="Trazado 23869" d="M105.44,344.33c.08,4.76,3.08,6.71,6.64,6.71a12.61,12.61,0,0,0,5.36-1l.64,2.52a15.8,15.8,0,0,1-6.48,1.23c-6,0-9.52-3.95-9.52-9.79s3.44-10.4,9.08-10.4c6.36,0,8,5.52,8,9.08a8.581,8.581,0,0,1-.12,1.64Zm10.32-2.52c0-2.2-.92-5.68-4.88-5.68-3.6,0-5.12,3.24-5.4,5.68Z"/>
  <path id="Trazado_23870" data-name="Trazado 23870" d="M137,325h3.52v28.4H137Z"/>
  <path id="Trazado_23871" data-name="Trazado 23871" d="M160,348.73a32.577,32.577,0,0,0,.28,4.64h-3.16l-.28-2.44h-.12a7.2,7.2,0,0,1-5.91,2.87,5.51,5.51,0,0,1-5.92-5.55c0-4.68,4.16-7.24,11.63-7.2v-.4c0-1.56-.44-4.48-4.39-4.44a9.33,9.33,0,0,0-5.08,1.44l-.8-2.36a12.54,12.54,0,0,1,6.4-1.68c5.91,0,7.35,4,7.35,7.88Zm-3.4-5.24c-3.83-.08-8.19.6-8.19,4.36a3.08,3.08,0,0,0,3.28,3.36,4.87,4.87,0,0,0,4.75-3.24,4,4,0,0,0,.16-1.12Z"/>
  <path id="Trazado_23872" data-name="Trazado 23872" d="M165.21,349.81a9.94,9.94,0,0,0,4.68,1.36c2.51,0,3.71-1.24,3.71-2.88s-1-2.56-3.55-3.52c-3.52-1.28-5.16-3.16-5.16-5.48,0-3.12,2.56-5.68,6.67-5.68a9,9,0,0,1,4.72,1.2l-.84,2.56a7.49,7.49,0,0,0-3.95-1.16c-2.08,0-3.2,1.2-3.2,2.64,0,1.6,1.12,2.32,3.64,3.32,3.31,1.24,5.07,2.92,5.07,5.8,0,3.44-2.68,5.83-7.19,5.83a11,11,0,0,1-5.44-1.35Z"/>
  <path id="Trazado_23873" data-name="Trazado 23873" d="M199.21,329.37V334h5v2.68h-5v10.44c0,2.4.68,3.76,2.64,3.76a6.569,6.569,0,0,0,2-.24l.16,2.68a9.641,9.641,0,0,1-3.12.47,5,5,0,0,1-3.8-1.47c-1-1.08-1.36-2.8-1.36-5.08V336.69h-3V334h3v-3.6Z"/>
  <path id="Trazado_23874" data-name="Trazado 23874" d="M209.93,344.33c.08,4.76,3.08,6.71,6.64,6.71a12.61,12.61,0,0,0,5.36-1l.64,2.52a15.8,15.8,0,0,1-6.48,1.23c-6,0-9.52-3.95-9.52-9.79s3.44-10.4,9.08-10.4c6.36,0,8,5.52,8,9.08a8.579,8.579,0,0,1-.12,1.64Zm10.32-2.52c0-2.2-.92-5.68-4.88-5.68-3.6,0-5.12,3.24-5.4,5.68Z"/>
  <path id="Trazado_23875" data-name="Trazado 23875" d="M228,339.25c0-2-.08-3.64-.16-5.24h3.08l.16,3.16h.12a6.69,6.69,0,0,1,6.12-3.56,5.71,5.71,0,0,1,5.44,3.88h.08a7.64,7.64,0,0,1,2.2-2.52,6.49,6.49,0,0,1,4.24-1.36c2.6,0,6.4,1.68,6.4,8.4v11.36h-3.44V342.45c0-3.76-1.4-6-4.2-6a4.62,4.62,0,0,0-4.2,3.16,6,6,0,0,0-.28,1.76v12h-3.44v-11.6c0-3.08-1.36-5.28-4-5.28a4.85,4.85,0,0,0-4.36,3.52,4.709,4.709,0,0,0-.28,1.72v11.64H228Z"/>
  <path id="Trazado_23876" data-name="Trazado 23876" d="M275,348.73a32.577,32.577,0,0,0,.28,4.64h-3.16l-.28-2.44h-.12a7.2,7.2,0,0,1-5.92,2.87,5.51,5.51,0,0,1-5.92-5.55c0-4.68,4.16-7.24,11.64-7.2v-.4c0-1.56-.44-4.48-4.4-4.44a9.33,9.33,0,0,0-5.08,1.44l-.8-2.36a12.54,12.54,0,0,1,6.4-1.68c5.92,0,7.36,4,7.36,7.88Zm-3.4-5.24c-3.84-.08-8.2.6-8.2,4.36a3.08,3.08,0,0,0,3.28,3.36,4.89,4.89,0,0,0,4.76-3.24,4,4,0,0,0,.16-1.12Zm1.76-17.84-4.88,5.72H266l3.48-5.72Z"/>
  <path id="Trazado_23877" data-name="Trazado 23877" d="M284.73,329.37V334h5v2.68h-5v10.44c0,2.4.68,3.76,2.64,3.76a6.569,6.569,0,0,0,2-.24l.16,2.68a9.641,9.641,0,0,1-3.12.47,5,5,0,0,1-3.8-1.47c-1-1.08-1.36-2.8-1.36-5.08V336.69h-3V334h3v-3.6Z"/>
  <path id="Trazado_23878" data-name="Trazado 23878" d="M297.65,328.57a2.1,2.1,0,0,1-2.24,2.16,2.07,2.07,0,0,1-2.12-2.16,2.14,2.14,0,0,1,2.2-2.2,2.11,2.11,0,0,1,2.16,2.2Zm-3.92,24.8V334h3.52v19.36Z"/>
  <path id="Trazado_23879" data-name="Trazado 23879" d="M316.89,352.69a13.65,13.65,0,0,1-5.56,1.11c-5.84,0-9.64-3.95-9.64-9.87s4.08-10.32,10.4-10.32a11.08,11.08,0,0,1,4.88,1l-.8,2.68a8.62,8.62,0,0,0-4.08-.92c-4.44,0-6.84,3.32-6.84,7.32,0,4.48,2.88,7.24,6.72,7.24a10.08,10.08,0,0,0,4.32-.92Z"/>
  <path id="Trazado_23880" data-name="Trazado 23880" d="M334.61,348.73a32.577,32.577,0,0,0,.28,4.64h-3.16l-.28-2.44h-.12a7.2,7.2,0,0,1-5.92,2.87,5.51,5.51,0,0,1-5.92-5.55c0-4.68,4.16-7.24,11.64-7.2v-.4c0-1.56-.44-4.48-4.4-4.44a9.33,9.33,0,0,0-5.08,1.44l-.8-2.36a12.54,12.54,0,0,1,6.4-1.68c5.92,0,7.36,4,7.36,7.88Zm-3.4-5.24c-3.84-.08-8.2.6-8.2,4.36a3.08,3.08,0,0,0,3.28,3.36,4.89,4.89,0,0,0,4.76-3.24,4,4,0,0,0,.16-1.12Z"/>
  <path id="Trazado_23881" data-name="Trazado 23881" d="M339.81,349.81a9.94,9.94,0,0,0,4.68,1.36c2.52,0,3.72-1.24,3.72-2.88s-1-2.56-3.56-3.52c-3.52-1.28-5.16-3.16-5.16-5.48,0-3.12,2.56-5.68,6.68-5.68a9,9,0,0,1,4.72,1.2l-.84,2.56a7.5,7.5,0,0,0-4-1.16c-2.08,0-3.2,1.2-3.2,2.64,0,1.6,1.12,2.32,3.64,3.32,3.32,1.24,5.08,2.92,5.08,5.8,0,3.44-2.68,5.83-7.2,5.83a11,11,0,0,1-5.44-1.35Z"/>
  <path id="Trazado_23882" data-name="Trazado 23882" d="M386.26,325v23.4c0,1.72.08,3.67.16,5H383.3l-.16-3.36H383a7,7,0,0,1-6.52,3.79c-4.68,0-8.32-3.95-8.32-9.83,0-6.44,4-10.36,8.68-10.36a6.49,6.49,0,0,1,5.84,2.92h.08V325Zm-3.48,16.92a6.21,6.21,0,0,0-.16-1.48,5.18,5.18,0,0,0-5.08-4c-3.64,0-5.8,3.2-5.8,7.44,0,3.92,2,7.16,5.72,7.16a5.33,5.33,0,0,0,5.16-4.2,6.11,6.11,0,0,0,.16-1.52Z"/>
  <path id="Trazado_23883" data-name="Trazado 23883" d="M394.1,344.33c.08,4.76,3.08,6.71,6.64,6.71a12.61,12.61,0,0,0,5.36-1l.64,2.52a15.8,15.8,0,0,1-6.48,1.23c-6,0-9.52-3.95-9.52-9.79s3.44-10.4,9.08-10.4c6.36,0,8,5.52,8,9.08a8.583,8.583,0,0,1-.12,1.64Zm10.32-2.52c0-2.2-.92-5.68-4.88-5.68-3.6,0-5.12,3.24-5.4,5.68Z"/>
  <path id="Trazado_23884" data-name="Trazado 23884" d="M427.59,344.33c.08,4.76,3.08,6.71,6.63,6.71a12.61,12.61,0,0,0,5.36-1l.64,2.52a15.8,15.8,0,0,1-6.48,1.23c-5.95,0-9.51-3.95-9.51-9.79s3.44-10.4,9.07-10.4c6.36,0,8,5.52,8,9.08a8.58,8.58,0,0,1-.12,1.64Zm10.31-2.52c0-2.2-.92-5.68-4.88-5.68-3.59,0-5.11,3.24-5.39,5.68Z"/>
  <path id="Trazado_23885" data-name="Trazado 23885" d="M445.19,349.81a9.9,9.9,0,0,0,4.67,1.36c2.52,0,3.72-1.24,3.72-2.88s-1-2.56-3.56-3.52c-3.51-1.28-5.15-3.16-5.15-5.48,0-3.12,2.56-5.68,6.67-5.68a9,9,0,0,1,4.72,1.2l-.84,2.56a7.5,7.5,0,0,0-4-1.16c-2.08,0-3.19,1.2-3.19,2.64,0,1.6,1.11,2.32,3.63,3.32,3.32,1.24,5.08,2.92,5.08,5.8,0,3.44-2.68,5.83-7.19,5.83a11,11,0,0,1-5.44-1.35Z"/>
  <path id="Trazado_23886" data-name="Trazado 23886" d="M465.74,329.37V334h5v2.68h-5v10.44c0,2.4.68,3.76,2.64,3.76a6.57,6.57,0,0,0,2-.24l.16,2.68a9.641,9.641,0,0,1-3.12.47,5,5,0,0,1-3.79-1.47c-1-1.08-1.36-2.8-1.36-5.08V336.69h-3V334h3v-3.6Z"/>
  <path id="Trazado_23887" data-name="Trazado 23887" d="M476.47,344.33c.07,4.76,3.07,6.71,6.63,6.71a12.61,12.61,0,0,0,5.36-1l.64,2.52a15.8,15.8,0,0,1-6.48,1.23c-5.95,0-9.51-3.95-9.51-9.79s3.43-10.4,9.07-10.4c6.36,0,8,5.52,8,9.08a8.583,8.583,0,0,1-.12,1.64Zm10.31-2.52c0-2.2-.92-5.68-4.88-5.68-3.6,0-5.11,3.24-5.4,5.68Z"/>
  <path id="Trazado_23888" data-name="Trazado 23888" d="M521.79,352.69a13.65,13.65,0,0,1-5.56,1.11c-5.84,0-9.64-3.95-9.64-9.87s4.08-10.32,10.4-10.32a11.08,11.08,0,0,1,4.88,1l-.8,2.68a8.621,8.621,0,0,0-4.08-.92c-4.44,0-6.84,3.32-6.84,7.32,0,4.48,2.88,7.24,6.72,7.24a10.081,10.081,0,0,0,4.32-.92Z"/>
  <path id="Trazado_23889" data-name="Trazado 23889" d="M542.11,348.05c0,2,0,3.8.16,5.32h-3.12l-.2-3.16h-.08a7.23,7.23,0,0,1-6.4,3.59c-3,0-6.68-1.72-6.68-8.47V334h3.52v10.68c0,3.68,1.16,6.2,4.32,6.2a5.06,5.06,0,0,0,4.64-3.24,4.831,4.831,0,0,0,.32-1.8V334h3.52Z"/>
  <path id="Trazado_23890" data-name="Trazado 23890" d="M548,340.05c0-2.28,0-4.24-.16-6h3.08l.16,3.84h.12a5.85,5.85,0,0,1,5.4-4.24,7.17,7.17,0,0,1,1,.08V337a5.48,5.48,0,0,0-1.2-.08c-2.48,0-4.24,1.84-4.72,4.48a10.528,10.528,0,0,0-.12,1.64v10.32H548Z"/>
  <path id="Trazado_23891" data-name="Trazado 23891" d="M560.55,349.81a9.94,9.94,0,0,0,4.68,1.36c2.52,0,3.72-1.24,3.72-2.88s-1-2.56-3.56-3.52c-3.52-1.28-5.16-3.16-5.16-5.48,0-3.12,2.56-5.68,6.68-5.68a9,9,0,0,1,4.72,1.2l-.84,2.56a7.5,7.5,0,0,0-4-1.16c-2.08,0-3.2,1.2-3.2,2.64,0,1.6,1.12,2.32,3.64,3.32,3.32,1.24,5.08,2.92,5.08,5.8,0,3.44-2.68,5.83-7.2,5.83a11,11,0,0,1-5.44-1.35Z"/>
  <path id="Trazado_23892" data-name="Trazado 23892" d="M594.39,343.53c0,7.16-5,10.27-9.64,10.27-5.2,0-9.28-3.83-9.28-9.95,0-6.44,4.28-10.24,9.6-10.24C590.63,333.61,594.39,337.65,594.39,343.53Zm-15.32.2c0,4.24,2.4,7.44,5.84,7.44s5.88-3.16,5.88-7.52c0-3.28-1.64-7.4-5.8-7.4S579.07,340.09,579.07,343.73Z"/>
  <path id="Trazado_23893" data-name="Trazado 23893" d="M595.59,358.32a58.994,58.994,0,0,0,2.4-9.59l3.92-.4a51,51,0,0,1-3.84,9.71Z"/>
  <path id="Trazado_23894" data-name="Trazado 23894" d="M636.28,325v23.4c0,1.72.08,3.67.16,5h-3.12l-.16-3.36H633a7,7,0,0,1-6.52,3.79c-4.68,0-8.32-3.95-8.32-9.83,0-6.44,4-10.36,8.68-10.36a6.49,6.49,0,0,1,5.84,2.92h.08V325Zm-3.48,16.92a6.212,6.212,0,0,0-.16-1.48,5.18,5.18,0,0,0-5.08-4c-3.64,0-5.8,3.2-5.8,7.44,0,3.92,2,7.16,5.72,7.16a5.33,5.33,0,0,0,5.16-4.2,6.109,6.109,0,0,0,.16-1.52Z"/>
  <path id="Trazado_23895" data-name="Trazado 23895" d="M659.68,343.53c0,7.16-5,10.27-9.64,10.27-5.2,0-9.28-3.83-9.28-9.95,0-6.44,4.28-10.24,9.6-10.24C655.92,333.61,659.68,337.65,659.68,343.53Zm-15.32.2c0,4.24,2.4,7.44,5.84,7.44s5.88-3.16,5.88-7.52c0-3.28-1.64-7.4-5.8-7.4S644.36,340.09,644.36,343.73Z"/>
  <path id="Trazado_23896" data-name="Trazado 23896" d="M664.12,339.25c0-2,0-3.64-.16-5.24h3.12l.2,3.2h.08a7.17,7.17,0,0,1,6.4-3.6c2.68,0,6.84,1.6,6.84,8.24v11.52h-3.52V342.21c0-3.12-1.16-5.72-4.48-5.72a5.16,5.16,0,0,0-5,5.24v11.64h-3.52Z"/>
  <path id="Trazado_23897" data-name="Trazado 23897" d="M703,325v23.4c0,1.72.08,3.67.16,5H700l-.16-3.36h-.12a7,7,0,0,1-6.52,3.79c-4.68,0-8.32-3.95-8.32-9.83,0-6.44,4-10.36,8.68-10.36a6.49,6.49,0,0,1,5.84,2.92h.08V325Zm-3.48,16.92a6.209,6.209,0,0,0-.16-1.48,5.18,5.18,0,0,0-5.08-4c-3.64,0-5.8,3.2-5.8,7.44,0,3.92,2,7.16,5.72,7.16a5.33,5.33,0,0,0,5.16-4.2,6.109,6.109,0,0,0,.16-1.52Z"/>
  <path id="Trazado_23898" data-name="Trazado 23898" d="M710.84,344.33c.08,4.76,3.08,6.71,6.64,6.71a12.61,12.61,0,0,0,5.36-1l.64,2.52A15.8,15.8,0,0,1,717,353.8c-6,0-9.52-3.95-9.52-9.79s3.44-10.4,9.08-10.4c6.36,0,8,5.52,8,9.08a8.578,8.578,0,0,1-.12,1.64Zm10.32-2.52c0-2.2-.92-5.68-4.88-5.68-3.6,0-5.12,3.24-5.4,5.68Z"/>
  <path id="Trazado_23899" data-name="Trazado 23899" d="M97.12,396.05c0,2,0,3.8.16,5.32H94.16l-.2-3.16h-.08a7.23,7.23,0,0,1-6.4,3.59c-3,0-6.68-1.72-6.68-8.47V382h3.52v10.68c0,3.68,1.16,6.2,4.32,6.2a5.06,5.06,0,0,0,4.64-3.24,4.83,4.83,0,0,0,.32-1.8V382h3.52Z"/>
  <path id="Trazado_23900" data-name="Trazado 23900" d="M102.48,397.81a9.94,9.94,0,0,0,4.68,1.36c2.52,0,3.72-1.24,3.72-2.88s-1-2.56-3.56-3.52c-3.52-1.28-5.16-3.16-5.16-5.48,0-3.12,2.56-5.68,6.68-5.68a9,9,0,0,1,4.72,1.2l-.84,2.56a7.5,7.5,0,0,0-4-1.16c-2.08,0-3.2,1.2-3.2,2.64,0,1.6,1.12,2.32,3.64,3.32,3.32,1.24,5.08,2.92,5.08,5.8,0,3.44-2.68,5.83-7.2,5.83a11,11,0,0,1-5.44-1.35Z"/>
  <path id="Trazado_23901" data-name="Trazado 23901" d="M123,377.37V382h5v2.68h-5v10.44c0,2.4.68,3.76,2.64,3.76a6.569,6.569,0,0,0,2-.24l.16,2.68a9.64,9.64,0,0,1-3.12.47,5,5,0,0,1-3.8-1.47c-1-1.08-1.36-2.8-1.36-5.08V384.69h-3V382h3v-3.6Z"/>
  <path id="Trazado_23902" data-name="Trazado 23902" d="M133.76,392.33c.08,4.76,3.08,6.72,6.64,6.72a12.591,12.591,0,0,0,5.36-1l.64,2.52a15.8,15.8,0,0,1-6.48,1.23c-6,0-9.52-3.95-9.52-9.79s3.44-10.4,9.08-10.4c6.36,0,8,5.52,8,9.08a8.579,8.579,0,0,1-.12,1.64Zm10.32-2.52c0-2.2-.92-5.68-4.88-5.68-3.6,0-5.12,3.24-5.4,5.68Z"/>
  <path id="Trazado_23903" data-name="Trazado 23903" d="M168.52,373v23.4c0,1.72.08,3.68.16,5h-3.12l-.16-3.4h-.12a7,7,0,0,1-6.52,3.79c-4.68,0-8.32-3.95-8.32-9.83,0-6.44,4-10.36,8.68-10.36a6.49,6.49,0,0,1,5.84,2.92H165V373ZM165,389.89a6.211,6.211,0,0,0-.16-1.48,5.18,5.18,0,0,0-5.08-4c-3.64,0-5.8,3.2-5.8,7.44,0,3.92,2,7.16,5.72,7.16a5.33,5.33,0,0,0,5.16-4.2,6.111,6.111,0,0,0,.16-1.52Z"/>
  <path id="Trazado_23904" data-name="Trazado 23904" d="M221.4,396.73a31,31,0,0,0,.29,4.64h-3.16l-.28-2.44h-.12a7.2,7.2,0,0,1-5.92,2.87,5.51,5.51,0,0,1-5.92-5.55c0-4.68,4.16-7.24,11.64-7.2v-.4c0-1.56-.44-4.48-4.4-4.44a9.331,9.331,0,0,0-5.08,1.44l-.8-2.36a12.54,12.54,0,0,1,6.4-1.68c5.92,0,7.35,4,7.35,7.88Zm-3.4-5.24c-3.84-.08-8.2.6-8.2,4.36a3.08,3.08,0,0,0,3.28,3.36,4.89,4.89,0,0,0,4.76-3.24,4,4,0,0,0,.16-1.12Z"/>
  <path id="Trazado_23905" data-name="Trazado 23905" d="M227.09,388.33c0-2.48-.08-4.48-.16-6.32h3.12l.2,3.32h.08a7.54,7.54,0,0,1,6.88-3.72c4.71,0,8.23,4,8.23,9.8,0,7-4.28,10.39-8.83,10.39a6.78,6.78,0,0,1-6-3h-.08v10.51h-3.48Zm3.48,5.16a5.43,5.43,0,0,0,5.44,5.56c3.72,0,5.87-3,5.87-7.48,0-3.84-2-7.16-5.75-7.16a5.54,5.54,0,0,0-5.32,4.32,5.712,5.712,0,0,0-.24,1.4Z"/>
  <path id="Trazado_23906" data-name="Trazado 23906" d="M249.85,388.05c0-2.28,0-4.24-.16-6h3.08l.16,3.84h.12a5.85,5.85,0,0,1,5.39-4.24,7.171,7.171,0,0,1,1,.08V385a5.431,5.431,0,0,0-1.19-.08c-2.48,0-4.24,1.84-4.72,4.48a10.529,10.529,0,0,0-.12,1.64v10.32h-3.52Z"/>
  <path id="Trazado_23907" data-name="Trazado 23907" d="M264.49,392.33c.08,4.76,3.08,6.72,6.64,6.72a12.57,12.57,0,0,0,5.35-1l.64,2.52a15.79,15.79,0,0,1-6.47,1.23c-6,0-9.52-3.95-9.52-9.79s3.44-10.4,9.08-10.4c6.35,0,8,5.52,8,9.08a8.58,8.58,0,0,1-.12,1.64Zm10.31-2.52c0-2.2-.92-5.68-4.87-5.68-3.6,0-5.12,3.24-5.4,5.68Z"/>
  <path id="Trazado_23908" data-name="Trazado 23908" d="M282.57,387.25c0-2,0-3.64-.16-5.24h3.12l.2,3.2h.08a7.15,7.15,0,0,1,6.39-3.6c2.68,0,6.84,1.6,6.84,8.24v11.52h-3.52V390.21c0-3.12-1.16-5.72-4.48-5.72a5.16,5.16,0,0,0-5,5.24v11.64h-3.52Z"/>
  <path id="Trazado_23909" data-name="Trazado 23909" d="M321.44,373v23.4c0,1.72.08,3.68.16,5h-3.12l-.16-3.36h-.12a7,7,0,0,1-6.52,3.79c-4.67,0-8.31-3.95-8.31-9.83,0-6.44,4-10.36,8.67-10.36a6.49,6.49,0,0,1,5.84,2.92H318V373ZM318,389.89a6.209,6.209,0,0,0-.16-1.48,5.18,5.18,0,0,0-5.08-4c-3.64,0-5.79,3.2-5.79,7.44,0,3.92,1.95,7.16,5.71,7.16a5.33,5.33,0,0,0,5.16-4.2,6.109,6.109,0,0,0,.16-1.52Z"/>
  <path id="Trazado_23910" data-name="Trazado 23910" d="M329.29,392.33c.07,4.76,3.07,6.72,6.63,6.72a12.591,12.591,0,0,0,5.36-1l.64,2.52a15.8,15.8,0,0,1-6.48,1.23c-6,0-9.51-3.95-9.51-9.79s3.43-10.4,9.07-10.4c6.36,0,8,5.52,8,9.08a8.583,8.583,0,0,1-.12,1.64Zm10.31-2.52c0-2.2-.92-5.68-4.88-5.68-3.6,0-5.12,3.24-5.4,5.68Z"/>
  <path id="Trazado_23911" data-name="Trazado 23911" d="M347.36,388.05c0-2.28,0-4.24-.15-6h3.07l.16,3.84h.12a5.85,5.85,0,0,1,5.4-4.24,7.171,7.171,0,0,1,1,.08V385a5.479,5.479,0,0,0-1.2-.08c-2.48,0-4.24,1.84-4.72,4.48a10.533,10.533,0,0,0-.12,1.64v10.32H347.4Z"/>
  <path id="Trazado_23912" data-name="Trazado 23912" d="M373.84,396.73a32.478,32.478,0,0,0,.28,4.64H371l-.28-2.44h-.12a7.2,7.2,0,0,1-5.92,2.87,5.5,5.5,0,0,1-5.91-5.55c0-4.68,4.15-7.24,11.63-7.2v-.4c0-1.56-.44-4.48-4.4-4.44a9.33,9.33,0,0,0-5.08,1.44l-.8-2.36a12.54,12.54,0,0,1,6.4-1.68c5.92,0,7.36,4,7.36,7.88Zm-3.4-5.24c-3.84-.08-8.2.6-8.2,4.36a3.08,3.08,0,0,0,3.28,3.36,4.89,4.89,0,0,0,4.76-3.24,4,4,0,0,0,.16-1.12Zm1.76-17.84-4.88,5.72h-2.48l3.48-5.72Z"/>
  <path id="Trazado_23913" data-name="Trazado 23913" d="M412.93,388.33c0-2.48-.08-4.48-.16-6.32h3.12l.2,3.32h.08a7.54,7.54,0,0,1,6.88-3.72c4.72,0,8.24,4,8.24,9.8,0,7-4.28,10.39-8.84,10.39a6.78,6.78,0,0,1-6-3h-.08v10.51h-3.48Zm3.48,5.16a5.43,5.43,0,0,0,5.44,5.56c3.72,0,5.88-3,5.88-7.48,0-3.84-2-7.16-5.76-7.16a5.54,5.54,0,0,0-5.32,4.32,5.71,5.71,0,0,0-.24,1.4Z"/>
  <path id="Trazado_23914" data-name="Trazado 23914" d="M449.29,396.73a32.487,32.487,0,0,0,.28,4.64h-3.16l-.28-2.44H446a7.2,7.2,0,0,1-5.92,2.87,5.51,5.51,0,0,1-5.92-5.55c0-4.68,4.16-7.24,11.64-7.2v-.4c0-1.56-.44-4.48-4.4-4.44a9.331,9.331,0,0,0-5.08,1.44l-.8-2.36a12.541,12.541,0,0,1,6.4-1.68c5.92,0,7.36,4,7.36,7.88Zm-3.4-5.24c-3.84-.08-8.2.6-8.2,4.36a3.08,3.08,0,0,0,3.28,3.36,4.89,4.89,0,0,0,4.76-3.24,4,4,0,0,0,.16-1.12Z"/>
  <path id="Trazado_23915" data-name="Trazado 23915" d="M454.49,397.81a9.94,9.94,0,0,0,4.68,1.36c2.52,0,3.72-1.24,3.72-2.88s-1-2.56-3.56-3.52c-3.52-1.28-5.16-3.16-5.16-5.48,0-3.12,2.56-5.68,6.68-5.68a9,9,0,0,1,4.72,1.2l-.84,2.56a7.5,7.5,0,0,0-4-1.16c-2.08,0-3.2,1.2-3.2,2.64,0,1.6,1.12,2.32,3.64,3.32,3.32,1.24,5.08,2.92,5.08,5.8,0,3.44-2.68,5.83-7.2,5.83a11,11,0,0,1-5.44-1.35Z"/>
  <path id="Trazado_23916" data-name="Trazado 23916" d="M488.33,391.53c0,7.16-5,10.27-9.64,10.27-5.2,0-9.28-3.83-9.28-9.95,0-6.44,4.28-10.24,9.6-10.24C484.57,381.61,488.33,385.65,488.33,391.53Zm-15.32.2c0,4.24,2.4,7.44,5.84,7.44s5.88-3.16,5.88-7.52c0-3.28-1.64-7.4-5.8-7.4s-5.93,3.84-5.93,7.48Z"/>
  <path id="Trazado_23917" data-name="Trazado 23917" d="M539.78,396.73a32.483,32.483,0,0,0,.28,4.64H536.9l-.28-2.44h-.12a7.2,7.2,0,0,1-5.92,2.87,5.51,5.51,0,0,1-5.92-5.55c0-4.68,4.16-7.24,11.64-7.2v-.4c0-1.56-.44-4.48-4.4-4.44a9.331,9.331,0,0,0-5.08,1.44l-.8-2.36a12.54,12.54,0,0,1,6.4-1.68c5.92,0,7.36,4,7.36,7.88Zm-3.4-5.24c-3.84-.08-8.2.6-8.2,4.36a3.08,3.08,0,0,0,3.28,3.36,4.89,4.89,0,0,0,4.76-3.24,4,4,0,0,0,.16-1.12Z"/>
  <path id="Trazado_23918" data-name="Trazado 23918" d="M578.87,388.33c0-2.48-.08-4.48-.16-6.32h3.12l.2,3.32h.08a7.54,7.54,0,0,1,6.88-3.72c4.72,0,8.24,4,8.24,9.8,0,7-4.28,10.39-8.84,10.39a6.78,6.78,0,0,1-6-3h-.08v10.51h-3.48Zm3.48,5.16a5.43,5.43,0,0,0,5.44,5.56c3.72,0,5.88-3,5.88-7.48,0-3.84-2-7.16-5.76-7.16a5.54,5.54,0,0,0-5.32,4.32,5.712,5.712,0,0,0-.24,1.4Z"/>
  <path id="Trazado_23919" data-name="Trazado 23919" d="M615.23,396.73a32.483,32.483,0,0,0,.28,4.64h-3.16l-.28-2.44H612a7.2,7.2,0,0,1-6,2.87,5.51,5.51,0,0,1-5.92-5.55c0-4.68,4.16-7.24,11.64-7.2v-.4c0-1.56-.44-4.48-4.4-4.44a9.33,9.33,0,0,0-5.08,1.44l-.8-2.36a12.54,12.54,0,0,1,6.4-1.68c5.92,0,7.36,4,7.36,7.88Zm-3.4-5.24c-3.84-.08-8.2.6-8.2,4.36a3.08,3.08,0,0,0,3.28,3.36,4.89,4.89,0,0,0,4.76-3.24,4,4,0,0,0,.16-1.12Z"/>
  <path id="Trazado_23920" data-name="Trazado 23920" d="M620.43,397.81a9.94,9.94,0,0,0,4.68,1.36c2.52,0,3.72-1.24,3.72-2.88s-1-2.56-3.56-3.52c-3.52-1.28-5.16-3.16-5.16-5.48,0-3.12,2.56-5.68,6.68-5.68a9,9,0,0,1,4.72,1.2l-.84,2.56a7.5,7.5,0,0,0-4-1.16c-2.08,0-3.2,1.2-3.2,2.64,0,1.6,1.12,2.32,3.64,3.32,3.32,1.24,5.08,2.92,5.08,5.8,0,3.44-2.68,5.83-7.2,5.83a11,11,0,0,1-5.44-1.35Z"/>
  <path id="Trazado_23921" data-name="Trazado 23921" d="M654.26,391.53c0,7.16-5,10.27-9.63,10.27-5.2,0-9.28-3.83-9.28-9.95,0-6.44,4.28-10.24,9.6-10.24C650.51,381.61,654.26,385.65,654.26,391.53Zm-15.31.2c0,4.24,2.4,7.44,5.84,7.44s5.88-3.16,5.88-7.52c0-3.28-1.64-7.4-5.8-7.4s-5.87,3.84-5.87,7.48Z"/>
  <path id="Trazado_23922" data-name="Trazado 23922" d="M655.47,406.32a59.006,59.006,0,0,0,2.4-9.59l3.92-.4A50.732,50.732,0,0,1,658,406Z"/>
  <path id="Trazado_23923" data-name="Trazado 23923" d="M701.4,392.33c.08,4.76,3.08,6.72,6.63,6.72a12.591,12.591,0,0,0,5.36-1l.64,2.52a15.8,15.8,0,0,1-6.48,1.23c-5.95,0-9.51-3.95-9.51-9.79s3.44-10.4,9.07-10.4c6.36,0,8,5.52,8,9.08a8.578,8.578,0,0,1-.12,1.64Zm10.31-2.52c0-2.2-.92-5.68-4.88-5.68-3.59,0-5.11,3.24-5.39,5.68Z"/>
  <path id="Trazado_23924" data-name="Trazado 23924" d="M719.48,373H723v28.4h-3.52Z"/>
  <path id="Trazado_23925" data-name="Trazado 23925" d="M94.12,446.41H94a7,7,0,0,1-6.32,3.39c-4.52,0-8.2-3.87-8.2-9.75,0-7.28,4.68-10.44,8.76-10.44a6.41,6.41,0,0,1,6,3.32h.08l.12-2.92h3.32c-.08,1.6-.16,3.32-.16,5.32v21.95H94.12Zm0-8.56a5.68,5.68,0,0,0-.16-1.44,5.18,5.18,0,0,0-5-4c-3.64,0-5.84,3.08-5.84,7.4,0,3.88,1.84,7.2,5.72,7.2a5.25,5.25,0,0,0,5-3.8,6.439,6.439,0,0,0,.28-1.72Z"/>
  <path id="Trazado_23926" data-name="Trazado 23926" d="M119.64,444.05c0,2,0,3.8.16,5.32h-3.12l-.2-3.16h-.08a7.23,7.23,0,0,1-6.4,3.59c-3,0-6.68-1.72-6.68-8.47V430h3.52v10.68c0,3.68,1.16,6.2,4.32,6.2a5.06,5.06,0,0,0,4.64-3.24,4.83,4.83,0,0,0,.32-1.8V430h3.52Z"/>
  <path id="Trazado_23927" data-name="Trazado 23927" d="M127.44,440.33c.08,4.76,3.08,6.72,6.64,6.72a12.59,12.59,0,0,0,5.36-1l.64,2.52a15.8,15.8,0,0,1-6.48,1.23c-6,0-9.52-3.95-9.52-9.79s3.44-10.4,9.08-10.4c6.36,0,8,5.52,8,9.08a8.58,8.58,0,0,1-.12,1.64Zm10.32-2.52c0-2.2-.92-5.68-4.88-5.68-3.6,0-5.12,3.24-5.4,5.68Z"/>
  <path id="Trazado_23928" data-name="Trazado 23928" d="M145.52,421H149v12.12h.08a6.63,6.63,0,0,1,2.52-2.52,7.22,7.22,0,0,1,3.6-1c2.6,0,6.76,1.6,6.76,8.24v11.52h-3.52V438.25c0-3.12-1.16-5.72-4.48-5.72a5.11,5.11,0,0,0-4.72,3.48,4.5,4.5,0,0,0-.24,1.68v11.68h-3.52Z"/>
  <path id="Trazado_23929" data-name="Trazado 23929" d="M181.32,444.73a32.478,32.478,0,0,0,.28,4.64h-3.16l-.28-2.44H178a7.2,7.2,0,0,1-5.92,2.87,5.51,5.51,0,0,1-5.92-5.55c0-4.68,4.16-7.24,11.64-7.2v-.4c0-1.56-.44-4.48-4.4-4.44a9.33,9.33,0,0,0-5.08,1.44l-.8-2.36a12.54,12.54,0,0,1,6.4-1.68c5.92,0,7.36,4,7.36,7.88Zm-3.4-5.24c-3.84-.08-8.2.6-8.2,4.36a3.08,3.08,0,0,0,3.28,3.36,4.89,4.89,0,0,0,4.76-3.24,4,4,0,0,0,.16-1.12Z"/>
  <path id="Trazado_23930" data-name="Trazado 23930" d="M200.8,448.69a13.65,13.65,0,0,1-5.56,1.11c-5.84,0-9.64-3.95-9.64-9.87s4.08-10.32,10.4-10.32a11.079,11.079,0,0,1,4.88,1l-.8,2.68a8.62,8.62,0,0,0-4.08-.92c-4.44,0-6.84,3.32-6.84,7.32,0,4.48,2.88,7.24,6.72,7.24a10.08,10.08,0,0,0,4.32-.92Z"/>
  <path id="Trazado_23931" data-name="Trazado 23931" d="M206.64,440.33c.08,4.76,3.08,6.72,6.64,6.72a12.59,12.59,0,0,0,5.36-1l.64,2.52a15.8,15.8,0,0,1-6.48,1.23c-6,0-9.52-3.95-9.52-9.79s3.44-10.4,9.08-10.4c6.36,0,8,5.52,8,9.08a8.579,8.579,0,0,1-.12,1.64ZM217,437.81c0-2.2-.92-5.68-4.88-5.68-3.6,0-5.12,3.24-5.4,5.68Z"/>
  <path id="Trazado_23932" data-name="Trazado 23932" d="M224.72,436.05c0-2.28,0-4.24-.16-6h3.08l.16,3.84h.12a5.85,5.85,0,0,1,5.4-4.24,7.17,7.17,0,0,1,1,.08V433a5.478,5.478,0,0,0-1.2-.08c-2.48,0-4.24,1.84-4.72,4.48a10.532,10.532,0,0,0-.12,1.64v10.32h-3.52Z"/>
  <path id="Trazado_23933" data-name="Trazado 23933" d="M263,421v23.4c0,1.72.08,3.68.16,5H260l-.17-3.36h-.11a7,7,0,0,1-6.52,3.79c-4.68,0-8.32-3.95-8.32-9.83,0-6.44,4-10.36,8.68-10.36a6.49,6.49,0,0,1,5.84,2.92h.08V421Zm-3.47,16.92a6.209,6.209,0,0,0-.16-1.48,5.18,5.18,0,0,0-5.08-4c-3.64,0-5.8,3.2-5.8,7.44,0,3.92,2,7.16,5.72,7.16a5.33,5.33,0,0,0,5.16-4.2,6.112,6.112,0,0,0,.16-1.52Z"/>
  <path id="Trazado_23934" data-name="Trazado 23934" d="M270.8,440.33c.08,4.76,3.08,6.72,6.64,6.72a12.541,12.541,0,0,0,5.35-1l.64,2.52A15.749,15.749,0,0,1,277,449.8c-6,0-9.52-3.95-9.52-9.79s3.44-10.4,9.08-10.4c6.35,0,8,5.52,8,9.08a8.583,8.583,0,0,1-.12,1.64Zm10.31-2.52c0-2.2-.91-5.68-4.87-5.68-3.6,0-5.12,3.24-5.4,5.68Z"/>
  <path id="Trazado_23935" data-name="Trazado 23935" d="M288.88,421h3.52v28.4h-3.52Z"/>
  <path id="Trazado_23936" data-name="Trazado 23936" d="M311,425.37V430h5v2.68h-5v10.44c0,2.4.68,3.76,2.63,3.76a6.569,6.569,0,0,0,2-.24l.16,2.68a9.641,9.641,0,0,1-3.12.47,5,5,0,0,1-3.79-1.47c-1-1.08-1.36-2.8-1.36-5.08V432.69h-3V430h3v-3.6Z"/>
  <path id="Trazado_23937" data-name="Trazado 23937" d="M336.23,444.05c0,2,0,3.8.16,5.32h-3.12l-.2-3.16H333a7.23,7.23,0,0,1-6.4,3.59c-3,0-6.67-1.72-6.67-8.47V430h3.52v10.68c0,3.68,1.15,6.2,4.31,6.2a5.06,5.06,0,0,0,4.64-3.24,4.83,4.83,0,0,0,.32-1.8V430h3.52Z"/>
  <path id="Trazado_23938" data-name="Trazado 23938" d="M346.31,425.37V430h5v2.68h-5v10.44c0,2.4.68,3.76,2.64,3.76a6.569,6.569,0,0,0,2-.24l.16,2.68a9.641,9.641,0,0,1-3.12.47,5,5,0,0,1-3.8-1.47c-1-1.08-1.35-2.8-1.35-5.08V432.69h-3V430h3v-3.6Z"/>
  <path id="Trazado_23939" data-name="Trazado 23939" d="M372.59,439.53c0,7.16-5,10.27-9.64,10.27-5.2,0-9.28-3.83-9.28-9.95,0-6.44,4.28-10.24,9.6-10.24C368.83,429.61,372.59,433.65,372.59,439.53Zm-15.32.2c0,4.24,2.4,7.44,5.84,7.44S369,444,369,439.65c0-3.28-1.64-7.4-5.8-7.4S357.27,436.09,357.27,439.73Z"/>
  <path id="Trazado_23940" data-name="Trazado 23940" d="M377,436.05c0-2.28,0-4.24-.15-6H380l.16,3.84h.12a5.85,5.85,0,0,1,5.4-4.24,7.171,7.171,0,0,1,1,.08V433a5.479,5.479,0,0,0-1.2-.08c-2.48,0-4.24,1.84-4.72,4.48a10.528,10.528,0,0,0-.12,1.64v10.32H377Z"/>
  <path id="Trazado_23941" data-name="Trazado 23941" d="M400,430l3.8,10.84c.64,1.8,1.16,3.4,1.56,5h.12c.44-1.6,1-3.2,1.64-5L410.83,430h3.68l-7.6,19.36h-3.36L396.19,430Z"/>
  <path id="Trazado_23942" data-name="Trazado 23942" d="M421.75,424.57a2.1,2.1,0,0,1-2.24,2.16,2.07,2.07,0,0,1-2.12-2.16,2.14,2.14,0,0,1,2.2-2.2,2.11,2.11,0,0,1,2.16,2.2Zm-3.92,24.8V430h3.52v19.36Z"/>
  <path id="Trazado_23943" data-name="Trazado 23943" d="M427.19,436.05c0-2.28,0-4.24-.16-6h3.08l.16,3.84h.12a5.85,5.85,0,0,1,5.4-4.24,7.171,7.171,0,0,1,1,.08V433a5.479,5.479,0,0,0-1.2-.08c-2.48,0-4.24,1.84-4.72,4.48a10.528,10.528,0,0,0-.12,1.64v10.32h-3.52Z"/>
  <path id="Trazado_23944" data-name="Trazado 23944" d="M445.47,425.37V430h5v2.68h-5v10.44c0,2.4.68,3.76,2.64,3.76a6.569,6.569,0,0,0,2-.24l.16,2.68a9.641,9.641,0,0,1-3.12.47,5,5,0,0,1-3.8-1.47c-1-1.08-1.36-2.8-1.36-5.08V432.69h-3V430h3v-3.6Z"/>
  <path id="Trazado_23945" data-name="Trazado 23945" d="M470.67,444.05c0,2,0,3.8.16,5.32h-3.12l-.2-3.16h-.08a7.23,7.23,0,0,1-6.4,3.59c-3,0-6.68-1.72-6.68-8.47V430h3.52v10.68c0,3.68,1.16,6.2,4.32,6.2a5.06,5.06,0,0,0,4.64-3.24,4.83,4.83,0,0,0,.32-1.8V430h3.52Z"/>
  <path id="Trazado_23946" data-name="Trazado 23946" d="M490.11,444.73a32.478,32.478,0,0,0,.28,4.64h-3.16l-.28-2.44h-.12a7.2,7.2,0,0,1-5.92,2.87,5.51,5.51,0,0,1-5.92-5.55c0-4.68,4.16-7.24,11.64-7.2v-.4c0-1.56-.44-4.48-4.4-4.44a9.33,9.33,0,0,0-5.08,1.44l-.8-2.36a12.54,12.54,0,0,1,6.4-1.68c5.92,0,7.36,4,7.36,7.88Zm-3.4-5.24c-3.84-.08-8.2.6-8.2,4.36a3.08,3.08,0,0,0,3.28,3.36,4.89,4.89,0,0,0,4.76-3.24,4,4,0,0,0,.16-1.12Z"/>
  <path id="Trazado_23947" data-name="Trazado 23947" d="M495.79,421h3.52v28.4h-3.52Z"/>
  <path id="Trazado_23948" data-name="Trazado 23948" d="M509.87,421.69a49.229,49.229,0,0,1-3.72,9.52l-2.24.24a56.142,56.142,0,0,0,2.36-9.36Zm5.92,0a49.228,49.228,0,0,1-3.72,9.52l-2.24.24a60.337,60.337,0,0,0,2.36-9.36Z"/>
</svg>
