<svg id="b5e1feca-fb6d-48a8-9f8f-0af1d03fd6a8" data-name="Layer 1" xmlns="http://www.w3.org/2000/svg" viewBox="0 0 356.36 160"><defs><style>.a28254f0-bc01-411b-8eec-7b1c5cd6d4fb{fill:#fa4138;}.bf2880ea-ba24-4e9b-8f99-2c1811ea76f6{fill:#00c689;}</style></defs><path class="a28254f0-bc01-411b-8eec-7b1c5cd6d4fb" d="M323.18,170.23A80,80,0,1,1,363.11,20.9a3.43,3.43,0,0,1-3.43,5.94,73.15,73.15,0,1,0,36.64,63.39,75.62,75.62,0,0,0-.64-9.77,72.39,72.39,0,0,0-9.1-26.73,3.43,3.43,0,1,1,5.94-3.42,79.54,79.54,0,0,1,10,29.24,80,80,0,0,1-79.29,90.68Z" transform="translate(-46.82 -10.23)"/><path class="bf2880ea-ba24-4e9b-8f99-2c1811ea76f6" d="M114.72,104.29l-7,21.2h-9l23-67.41h10.4l23,67.41h-9.3l-7.2-21.2Zm22.2-6.8-6.7-19.4c-1.5-4.4-2.5-8.4-3.5-12.3h-.2c-1,3.9-2,8.1-3.4,12.2l-6.6,19.5Z" transform="translate(-46.82 -10.23)"/><path class="a28254f0-bc01-411b-8eec-7b1c5cd6d4fb" d="M297.48,59.08a111.65,111.65,0,0,1,18.5-1.5c12.51,0,21.41,3,27.31,8.41,6.1,5.5,9.6,13.3,9.6,24.2s-3.5,20-9.7,26.2c-6.4,6.3-16.81,9.7-29.91,9.7a139.12,139.12,0,0,1-15.8-.8Zm8.7,59.61a72.36,72.36,0,0,0,8.8.4c18.71,0,28.71-10.4,28.71-28.6.1-15.9-8.9-26-27.31-26a49.43,49.43,0,0,0-10.2.9Z" transform="translate(-46.82 -10.23)"/><path class="bf2880ea-ba24-4e9b-8f99-2c1811ea76f6" d="M126.82,170.23A80,80,0,1,1,166.75,20.9,3.43,3.43,0,0,1,165,27.29a3.38,3.38,0,0,1-1.7-.45A73.15,73.15,0,1,0,200,90.23a73.88,73.88,0,0,0-.65-9.77,72.58,72.58,0,0,0-9.1-26.73,3.38,3.38,0,0,1-.34-2.6,3.43,3.43,0,0,1,6.28-.83,80,80,0,0,1-69.33,119.93Z" transform="translate(-46.82 -10.23)"/></svg>