<svg xmlns="http://www.w3.org/2000/svg" xmlns:xlink="http://www.w3.org/1999/xlink" width="498.045" height="328.292" viewBox="0 0 498.045 328.292">
  <defs>
    <linearGradient id="linear-gradient" x1="0.5" y1="-0.011" x2="0.5" y2="0.996" gradientUnits="objectBoundingBox">
      <stop offset="0" stop-color="#fff"/>
      <stop offset="1" stop-color="#fff" stop-opacity="0"/>
    </linearGradient>
  </defs>
  <g id="Grupo_14193" data-name="Grupo 14193" transform="translate(-784.717 -170)">
    <path id="Trazado_23503" data-name="Trazado 23503" d="M88.763,362.445s-52.148-60.776,6.6-126.914c47.351-53.311,32.232-73.928,30.049-109.878-1.847-30.43,32.659-75.424,84.3-77.67C294.35,44.3,315.392,71.5,360.332,69.578S425.6,51.922,477.793,58.121c96.859,11.5,83.8,103.3,69.689,171.919s28.3,92.045-2.224,132.46" transform="translate(720.809 122.361)" fill="#334377"/>
    <g id="Grupo_14117" data-name="Grupo 14117" transform="translate(954.561 416.608)">
      <path id="Trazado_23504" data-name="Trazado 23504" d="M405.431,415.544h-81.8l8.885-34.933,2.014-7.923,3.91-15.342h52.185l3.909,15.342,2.014,7.923Z" transform="translate(-285.952 -357.347)" fill="#6f3fba"/>
      <path id="Trazado_23505" data-name="Trazado 23505" d="M398.819,384.536H334.788l2.014-7.923h60Z" transform="translate(-288.225 -361.272)" fill="#5730a0"/>
      <path id="Trazado_23506" data-name="Trazado 23506" d="M427.181,439.341H282.593a6.282,6.282,0,0,1-6.282-6.283h0a6.282,6.282,0,0,1,6.282-6.282H427.181a6.282,6.282,0,0,1,6.283,6.282h0A6.283,6.283,0,0,1,427.181,439.341Z" transform="translate(-276.311 -371.492)" fill="#774cc9"/>
    </g>
    <path id="Trazado_23507" data-name="Trazado 23507" d="M474.316,169.258V323.029a6.63,6.63,0,0,1-6.626,6.627H214.011a6.624,6.624,0,0,1-6.627-6.627V169.258a6.623,6.623,0,0,1,6.627-6.627H467.69A6.63,6.63,0,0,1,474.316,169.258Z" transform="translate(692.293 98.933)" fill="#854dce"/>
    <rect id="Rectángulo_3474" data-name="Rectángulo 3474" width="256.673" height="135.553" transform="translate(904.56 266.428)" fill="#b8b8f4"/>
    <g id="Grupo_14118" data-name="Grupo 14118" transform="translate(909.872 266.428)" opacity="0.3">
      <rect id="Rectángulo_3475" data-name="Rectángulo 3475" width="7.196" height="115.281" transform="translate(218.762)" fill="#eefaff"/>
      <rect id="Rectángulo_3476" data-name="Rectángulo 3476" width="7.196" height="115.281" transform="translate(236.992)" fill="#eefaff"/>
      <rect id="Rectángulo_3477" data-name="Rectángulo 3477" width="7.196" height="115.281" fill="#eefaff"/>
      <rect id="Rectángulo_3478" data-name="Rectángulo 3478" width="7.196" height="115.281" transform="translate(18.23)" fill="#eefaff"/>
      <rect id="Rectángulo_3479" data-name="Rectángulo 3479" width="7.196" height="115.281" transform="translate(36.46)" fill="#eefaff"/>
      <rect id="Rectángulo_3480" data-name="Rectángulo 3480" width="7.196" height="115.281" transform="translate(54.691)" fill="#eefaff"/>
      <rect id="Rectángulo_3481" data-name="Rectángulo 3481" width="7.196" height="115.281" transform="translate(72.921)" fill="#eefaff"/>
      <rect id="Rectángulo_3482" data-name="Rectángulo 3482" width="7.196" height="115.281" transform="translate(91.151)" fill="#eefaff"/>
      <rect id="Rectángulo_3483" data-name="Rectángulo 3483" width="7.196" height="115.281" transform="translate(109.381)" fill="#eefaff"/>
      <rect id="Rectángulo_3484" data-name="Rectángulo 3484" width="7.196" height="115.281" transform="translate(127.611)" fill="#eefaff"/>
      <rect id="Rectángulo_3485" data-name="Rectángulo 3485" width="7.196" height="115.281" transform="translate(145.842)" fill="#eefaff"/>
      <rect id="Rectángulo_3486" data-name="Rectángulo 3486" width="7.196" height="115.281" transform="translate(164.072)" fill="#eefaff"/>
      <rect id="Rectángulo_3487" data-name="Rectángulo 3487" width="7.196" height="115.281" transform="translate(182.302)" fill="#eefaff"/>
      <rect id="Rectángulo_3488" data-name="Rectángulo 3488" width="7.196" height="115.281" transform="translate(200.532)" fill="#eefaff"/>
    </g>
    <rect id="Rectángulo_3489" data-name="Rectángulo 3489" width="256.673" height="20.272" transform="translate(904.56 381.709)" fill="#7272dd"/>
    <path id="Trazado_23508" data-name="Trazado 23508" d="M373.4,359.724h0a6.172,6.172,0,0,1-6.154-6.154h0a6.172,6.172,0,0,1,6.154-6.154h0a6.172,6.172,0,0,1,6.154,6.154h0A6.172,6.172,0,0,1,373.4,359.724Z" transform="translate(659.723 61.285)" fill="#5730a0"/>
    <path id="Trazado_23509" data-name="Trazado 23509" d="M394.073,329.534h-18.03l47.416-166.9h18.029Z" transform="translate(657.931 98.933)" opacity="0.2" fill="url(#linear-gradient)"/>
    <path id="Trazado_23510" data-name="Trazado 23510" d="M445.788,329.534h-38.25l47.416-166.9H493.2Z" transform="translate(651.514 98.933)" opacity="0.2" fill="url(#linear-gradient)"/>
    <g id="Grupo_14119" data-name="Grupo 14119" transform="translate(938.817 388.262)">
      <path id="Trazado_23511" data-name="Trazado 23511" d="M469.109,327.722H258.529a1.991,1.991,0,0,1,0-3.981H469.109a1.991,1.991,0,0,1,0,3.981Z" transform="translate(-256.538 -322.154)" fill="#9494ed"/>
      <path id="Trazado_23512" data-name="Trazado 23512" d="M363.82,323.746v3.981H258.531a1.991,1.991,0,1,1,0-3.981Z" transform="translate(-256.538 -322.155)" fill="#f98094"/>
      <circle id="Elipse_864" data-name="Elipse 864" cx="3.583" cy="3.583" r="3.583" transform="translate(103.749)" fill="#fff"/>
    </g>
    <g id="Grupo_14120" data-name="Grupo 14120" transform="translate(912.114 382.227)">
      <circle id="Elipse_865" data-name="Elipse 865" cx="7.996" cy="7.996" r="7.996" transform="translate(0 15.564) rotate(-76.718)" fill="#fff"/>
      <path id="Trazado_23513" data-name="Trazado 23513" d="M233.46,321.729l4.384,3.378a.265.265,0,0,1,0,.42L233.46,328.9a.265.265,0,0,1-.427-.209v-6.755A.265.265,0,0,1,233.46,321.729Z" transform="translate(-225.047 -315.697)" fill="#854dce"/>
    </g>
    <g id="Grupo_14122" data-name="Grupo 14122" transform="translate(784.717 402.182)">
      <path id="Trazado_23514" data-name="Trazado 23514" d="M91.8,404.328s-38.536-52.056-26.444-63.175S95.122,369.2,91.8,404.328Z" transform="translate(-63.009 -339.229)" fill="#d6d4ff"/>
      <path id="Trazado_23515" data-name="Trazado 23515" d="M70.8,349.212c14.885,21.944,21.193,46.023,23.85,64.908" transform="translate(-64.596 -341.263)" fill="none" stroke="#7878c4" stroke-miterlimit="10" stroke-width="2"/>
      <path id="Trazado_23516" data-name="Trazado 23516" d="M69.392,358.081a61.573,61.573,0,0,1,9.63,7.191" transform="translate(-64.31 -343.07)" fill="none" stroke="#7878c4" stroke-miterlimit="10" stroke-width="1.718"/>
      <path id="Trazado_23517" data-name="Trazado 23517" d="M70.891,362a61.565,61.565,0,0,1,9.629,7.191" transform="translate(-64.615 -343.868)" fill="none" stroke="#7878c4" stroke-miterlimit="10" stroke-width="1.718"/>
    </g>
    <g id="Grupo_14123" data-name="Grupo 14123" transform="translate(819.889 395.663)">
      <path id="Trazado_23518" data-name="Trazado 23518" d="M108.878,396.7s37.154-53.052,24.772-63.848S104.634,361.669,108.878,396.7Z" transform="translate(-107.388 -331.043)" fill="#d6d4ff"/>
      <path id="Trazado_23519" data-name="Trazado 23519" d="M129.75,341.005c-15.393,24.029-20.79,50.267-22.57,69.747" transform="translate(-107.18 -333.072)" fill="none" stroke="#7878c4" stroke-miterlimit="10" stroke-width="2"/>
      <path id="Trazado_23520" data-name="Trazado 23520" d="M110.709,381.593c.143,4.893.459,9.324.829,13.16" transform="translate(-107.899 -341.342)" fill="none" stroke="#0e7c74" stroke-miterlimit="10" stroke-width="1.718"/>
    </g>
    <g id="Grupo_14124" data-name="Grupo 14124" transform="translate(790.918 376.944)">
      <path id="Trazado_23521" data-name="Trazado 23521" d="M98.352,373.1s-37.392-52.884-25.06-63.736S102.437,338.049,98.352,373.1Z" transform="translate(-70.797 -307.534)" fill="#a29ee5"/>
      <path id="Trazado_23522" data-name="Trazado 23522" d="M78.6,317.5c19.629,30.34,23.245,64.3,23.721,83.6" transform="translate(-72.387 -309.565)" fill="none" stroke="#7878c4" stroke-miterlimit="10" stroke-width="2"/>
    </g>
    <g id="Grupo_14125" data-name="Grupo 14125" transform="translate(814.581 418.517)">
      <path id="Trazado_23523" data-name="Trazado 23523" d="M102.511,399.162s23.011-31.624,15.654-38.278S100.332,377.966,102.511,399.162Z" transform="translate(-100.861 -359.744)" fill="#8c8cdd"/>
      <path id="Trazado_23524" data-name="Trazado 23524" d="M115.522,365.769c-12.1,18.158-14.563,38.631-15.008,50.281" transform="translate(-100.514 -360.972)" fill="none" stroke="#7878c4" stroke-miterlimit="10" stroke-width="2"/>
    </g>
    <g id="Grupo_14126" data-name="Grupo 14126" transform="translate(799.012 455.101)">
      <path id="Trazado_23525" data-name="Trazado 23525" d="M114.179,407.334,114,408.543l-.381,2.569-3.675,24.671H88.015l-3.676-24.671-.381-2.569-.181-1.209Z" transform="translate(-81.535 -406.024)" fill="#bfb8f4"/>
      <path id="Trazado_23526" data-name="Trazado 23526" d="M114.044,408.853l-.381,2.569H84.386L84,408.853Z" transform="translate(-81.581 -406.334)" fill="#7878c4"/>
      <path id="Trazado_23527" data-name="Trazado 23527" d="M114.032,409.317H82.775a1.814,1.814,0,0,1-1.814-1.814h0a1.814,1.814,0,0,1,1.814-1.814h31.257a1.813,1.813,0,0,1,1.813,1.814h0A1.813,1.813,0,0,1,114.032,409.317Z" transform="translate(-80.961 -405.689)" fill="#a29ee5"/>
    </g>
    <path id="Trazado_23528" data-name="Trazado 23528" d="M132.575,294.627v16.311a1.1,1.1,0,0,1-.214.66,1.127,1.127,0,0,1-.936.49H107.461a1.175,1.175,0,0,1-.793-.312V296.634a1,1,0,0,1,1.007-1h16.838a1,1,0,0,0,1-1.007,1,1,0,0,1,1-1.008h5.056A1.013,1.013,0,0,1,132.575,294.627Z" transform="translate(712.813 72.245)" fill="#383493"/>
    <path id="Trazado_23529" data-name="Trazado 23529" d="M130.9,312.678a1.127,1.127,0,0,1-.936.49H106a1.175,1.175,0,0,1-.793-.312,1.116,1.116,0,0,1-.241-.339.357.357,0,0,1-.036-.08L99.6,300.263a.962.962,0,0,1,.883-1.346h23.758a.959.959,0,0,1,.882.571l4.994,11.4Z" transform="translate(714.269 71.166)" fill="#5146af"/>
    <line id="Línea_447" data-name="Línea 447" x2="480.846" transform="translate(792.72 485.217)" fill="none" stroke="#5730a0" stroke-linecap="round" stroke-linejoin="round" stroke-width="2"/>
    <path id="Rectángulo_3490" data-name="Rectángulo 3490" d="M4.484,0H112.4a6.647,6.647,0,0,1,6.647,6.647V90.125a1.432,1.432,0,0,1-1.432,1.432H1.432A1.432,1.432,0,0,1,0,90.125V4.484A4.484,4.484,0,0,1,4.484,0Z" transform="translate(840.737 193.598)" fill="#d6d4ff"/>
    <rect id="Rectángulo_3491" data-name="Rectángulo 3491" width="109.798" height="19.712" rx="2.827" transform="translate(845.425 261)" fill="#fff"/>
    <rect id="Rectángulo_3492" data-name="Rectángulo 3492" width="109.798" height="7.995" rx="1.801" transform="translate(845.425 249.744)" fill="#fff"/>
    <g id="Grupo_14129" data-name="Grupo 14129" transform="translate(844.938 205.527)">
      <path id="Trazado_23530" data-name="Trazado 23530" d="M203.053,95.785H140.4a1.764,1.764,0,0,1-1.765-1.765h0a1.764,1.764,0,0,1,1.765-1.765h62.649a1.764,1.764,0,0,1,1.765,1.765h0A1.764,1.764,0,0,1,203.053,95.785Z" transform="translate(-138.639 -92.256)" fill="#fff" opacity="0.31"/>
      <path id="Trazado_23531" data-name="Trazado 23531" d="M203.053,104.944H140.4a1.764,1.764,0,0,1-1.765-1.764h0a1.765,1.765,0,0,1,1.765-1.765h62.648a1.765,1.765,0,0,1,1.765,1.765h0A1.764,1.764,0,0,1,203.053,104.944Z" transform="translate(-138.639 -94.122)" fill="#fff" opacity="0.31"/>
      <path id="Trazado_23532" data-name="Trazado 23532" d="M203.053,114.1H140.4a1.765,1.765,0,0,1-1.765-1.765h0a1.765,1.765,0,0,1,1.765-1.765h62.648a1.764,1.764,0,0,1,1.765,1.765h0A1.764,1.764,0,0,1,203.053,114.1Z" transform="translate(-138.639 -95.988)" fill="#fff" opacity="0.31"/>
      <path id="Trazado_23533" data-name="Trazado 23533" d="M203.053,123.263H140.4a1.764,1.764,0,0,1-1.765-1.764h0a1.765,1.765,0,0,1,1.765-1.765h62.648a1.765,1.765,0,0,1,1.765,1.765h0A1.764,1.764,0,0,1,203.053,123.263Z" transform="translate(-138.639 -97.854)" fill="#fff" opacity="0.31"/>
      <path id="Trazado_23534" data-name="Trazado 23534" d="M203.053,132.423H140.4a1.765,1.765,0,0,1-1.765-1.765h0a1.765,1.765,0,0,1,1.765-1.765h62.648a1.764,1.764,0,0,1,1.765,1.765h0A1.764,1.764,0,0,1,203.053,132.423Z" transform="translate(-138.639 -99.721)" fill="#fff" opacity="0.31"/>
      <path id="Trazado_23535" data-name="Trazado 23535" d="M188.335,141.585H140.4a1.765,1.765,0,0,1-1.765-1.765h0a1.765,1.765,0,0,1,1.765-1.765h47.931a1.765,1.765,0,0,1,1.765,1.765h0A1.765,1.765,0,0,1,188.335,141.585Z" transform="translate(-138.639 -101.587)" fill="#fff" opacity="0.31"/>
    </g>
    <path id="Trazado_23536" data-name="Trazado 23536" d="M251.2,73.475H134.568a1.207,1.207,0,0,0-1.206,1.206v8.932H252.405V74.681A1.207,1.207,0,0,0,251.2,73.475Z" transform="translate(707.374 117.097)" fill="#854dce"/>
    <g id="Grupo_14130" data-name="Grupo 14130" transform="translate(939.915 194.541)">
      <path id="Trazado_23537" data-name="Trazado 23537" d="M260.117,79.559a1.1,1.1,0,1,1-1.1-1.1A1.1,1.1,0,0,1,260.117,79.559Z" transform="translate(-257.917 -78.459)" fill="#fff"/>
      <path id="Trazado_23538" data-name="Trazado 23538" d="M266.981,79.559a1.1,1.1,0,1,1-1.1-1.1A1.1,1.1,0,0,1,266.981,79.559Z" transform="translate(-259.315 -78.459)" fill="#fff"/>
      <path id="Trazado_23539" data-name="Trazado 23539" d="M273.845,79.559a1.1,1.1,0,1,1-1.1-1.1A1.1,1.1,0,0,1,273.845,79.559Z" transform="translate(-260.714 -78.459)" fill="#fff"/>
    </g>
    <g id="Grupo_14131" data-name="Grupo 14131" transform="translate(915.634 205.53)">
      <path id="Trazado_23540" data-name="Trazado 23540" d="M267.012,93.4v37.7a1.151,1.151,0,0,1-1.153,1.152h-37.3a1.149,1.149,0,0,1-1.139-1.152V93.4a1.146,1.146,0,0,1,1.139-1.139h37.3A1.149,1.149,0,0,1,267.012,93.4Z" transform="translate(-227.424 -92.26)" fill="#fff"/>
      <path id="Trazado_23541" data-name="Trazado 23541" d="M272.114,129.7v7.066a1.151,1.151,0,0,1-1.153,1.152h-18.5l.787-8.218,8.707-9.629Z" transform="translate(-232.525 -97.927)" fill="#6c3db7"/>
      <path id="Trazado_23542" data-name="Trazado 23542" d="M261.832,136.889H228.563a1.149,1.149,0,0,1-1.139-1.152v-7.066l13.02-13.664Z" transform="translate(-227.424 -96.894)" fill="#854dce"/>
      <path id="Trazado_23543" data-name="Trazado 23543" d="M268.217,104.673a4.59,4.59,0,1,1-4.59-4.59A4.59,4.59,0,0,1,268.217,104.673Z" transform="translate(-233.865 -93.854)" fill="#854dce"/>
    </g>
    <path id="Trazado_23544" data-name="Trazado 23544" d="M322.167,281.742l-12.446-21.356-19.787,1.558-5.4,4.922c-.693-.805-.541-.621-1.082-1.229-4.175-4.675-13.947-12.448-21.693-20.448a188.329,188.329,0,0,1-15.384-18.175l-1.565.781c.006-.833.011-1.366.011-1.366l-6.964-9.315-8.44-.549-6.266,7.619.322,4.074s.1,6.279,5.006,6.913c1.473.19,5.194.9,6.368,1.7a24.375,24.375,0,0,1,7.866,9.112c5.53,10.842,13.594,26.309,21.165,39.564a15.83,15.83,0,0,0,.868,1.421c2.634,4.2,10.8,16.335,17.471,16.908C290.3,304.574,322.167,281.742,322.167,281.742Z" transform="translate(689.08 87.944)" fill="#f7b59c"/>
    <g id="Grupo_14139" data-name="Grupo 14139" transform="translate(1032.547 194.117)">
      <path id="Trazado_23545" data-name="Trazado 23545" d="M383.083,155.72s2.658-3.969,6.314-4.915-4.012,8.5-4.012,8.5a8.967,8.967,0,0,1-2.3.762C382.847,159.914,383.083,155.72,383.083,155.72Z" transform="translate(-376.029 -92.762)" fill="#01263a"/>
      <path id="Trazado_23546" data-name="Trazado 23546" d="M466.172,121.383s26.072,9.358-4.966,36.257l-4.672-1.422Z" transform="translate(-391.016 -86.781)" fill="#003051"/>
      <path id="Trazado_23547" data-name="Trazado 23547" d="M385.844,209.929a50.754,50.754,0,0,0,29.061,17.578c28.877-.549,33.8-16.459,33.8-16.459l-16.129-3.582s-.487-21.059,8.458-34.051c6.7,1.292,9.843-9.281,8-12.121-2-3.081-4.243-2.675-4.243-2.675-1.9,2.064-3.629,6.923-4.482,9.319l-40.234,20.807a22.859,22.859,0,0,1,1.081,2.893,46.74,46.74,0,0,1,1.8,8.7,59.2,59.2,0,0,1,.349,7.905Zm51.6-37.4c.853-1.454,1.779-2.925,2.8-4.4-.358,1.024-.626,1.95-.821,2.706C438.289,171.792,437.468,172.507,437.444,172.531Z" transform="translate(-376.613 -94.364)" fill="#f7b59c"/>
      <path id="Trazado_23548" data-name="Trazado 23548" d="M405.078,195.8a46.74,46.74,0,0,1,1.8,8.7c33.506-7.345,34.465-25.48,34.465-25.48L424.138,186Z" transform="translate(-380.532 -98.524)" fill="#ed9780"/>
      <path id="Trazado_23549" data-name="Trazado 23549" d="M397.382,107.183s-7.3,13.567-2.271,22.5l11.615-15.056" transform="translate(-378.142 -83.888)" fill="#01263a"/>
      <path id="Trazado_23550" data-name="Trazado 23550" d="M381.41,176.578c7.721,12.193,36.019,11.914,49.294-5.555s15.442-37.509,8.8-49.829c-3.691-6.848-12.518-10.807-21.194-11.447a23.592,23.592,0,0,0-6.905.512,25.184,25.184,0,0,0-13.684,8.326c-.326.384-.628.768-.931,1.164l-2.038,2.691c-.268.349-.512.7-.756,1.071a23.194,23.194,0,0,0-2.946,6.184,22.454,22.454,0,0,0-.827,3.505,23.327,23.327,0,0,1-4.751,11.144C379.651,151.519,373.7,164.4,381.41,176.578Z" transform="translate(-374.963 -84.397)" fill="#f7b59c"/>
      <path id="Trazado_23551" data-name="Trazado 23551" d="M402.833,118.732a34.049,34.049,0,0,0,8.994,2.339c6.751.813,20.36,2.162,24.927,7.126a12.66,12.66,0,0,1,3.046,5.63c1.121,3.9-2.535-13.259-2.535-13.259L416.523,110.4A25.192,25.192,0,0,0,402.833,118.732Z" transform="translate(-380.075 -84.544)" fill="#ed9780"/>
      <path id="Trazado_23552" data-name="Trazado 23552" d="M444.031,146.641s-.065,17.668-9.409,22.34-15.741-1.089-20.008-4.139c-2.454-1.755-3.317,2.743-3.317,2.743s4.875,8.1,7.313,8.1,12.254-.135,13-.609,6.365-3.183,6.365-3.183,3.859-6.6,4.13-7.293,4.672-8.211,4.469-9.159-.135-7.177-.135-7.177Z" transform="translate(-381.799 -91.927)" fill="#ed9780"/>
      <path id="Trazado_23553" data-name="Trazado 23553" d="M393.753,78.06c-2.2.428-4.2,4.95-5.094,6.977a16.908,16.908,0,0,0,1.854,17.641c6.364,8.819,20.109,8.836,30.366,11.477,9.116,2.347,13.66,8.223,13.061,14.919a6.8,6.8,0,0,0,1.694,5.036l.194.223a5.5,5.5,0,0,1,1.245,4.707c-1.07,5.3-4.415,16.154-12.641,18.582-7.109,2.1-10.025-.571-11.2-1.464-4.137-3.148-6.473-6.634-14.545-10.571-4.2-2.047-8.716-1.764-14.6-2.623-1.1-.16-2.611-.3-2.781-2.077,0,0-12.852,15.079-3.86,30.753a16.43,16.43,0,0,0,10.406,7.843,42.57,42.57,0,0,0,27.747-2.97c19.093-8.633,25.39-28.336,27.929-34.531s9.14-22.885,4.216-38.254c-3.039-9.486-12.661-17.506-28.387-18.213C408.4,85.022,400.279,76.79,393.753,78.06Z" transform="translate(-374.252 -77.927)" fill="#003051"/>
      <path id="Trazado_23554" data-name="Trazado 23554" d="M409.464,172.8a9.242,9.242,0,0,1-.812,1.218c-1.722,2.251-6.248,6.5-13.966,2.746a7.711,7.711,0,0,1-4.217-4.371,9.565,9.565,0,0,1,.577-6.768,60.657,60.657,0,0,0,6.752,3.705,34.348,34.348,0,0,0,11.228,3.437C409.171,172.784,409.318,172.792,409.464,172.8Z" transform="translate(-377.473 -95.795)" fill="#8d1612"/>
      <path id="Trazado_23555" data-name="Trazado 23555" d="M409.333,173.033l-.2.682-.373,1.251c-1.722,2.251-6.248,6.5-13.966,2.746a7.711,7.711,0,0,1-4.217-4.371,10.1,10.1,0,0,1,6.362-3.063h5.184Z" transform="translate(-377.577 -96.743)" fill="#ff4c2f"/>
      <path id="Trazado_23556" data-name="Trazado 23556" d="M391.227,165.626s-2.159,2.69-2.165,3.458c-.008,1.194,14.218,7.873,14.98,7.924s2.086-2.69,2.086-2.69l-5.763-3.433" transform="translate(-377.269 -95.795)" fill="#fafff7"/>
      <path id="Trazado_23557" data-name="Trazado 23557" d="M392.547,129.165c-.338.756-.065.051-.372,1.121a2.057,2.057,0,0,0,1.468,2.47c2.666.953,10.749,4.151,10.749,4.151.845.489.857-.419.6-.967-1.061-2.224-2.127-4.988-9.782-7.581C394.132,128,393.008,128.13,392.547,129.165Z" transform="translate(-377.888 -88.165)" fill="#003051"/>
      <path id="Trazado_23558" data-name="Trazado 23558" d="M436.731,147.322c-.317.765.009.084-.557,1.042a2.057,2.057,0,0,1-2.8.634c-2.526-1.28-10.407-4.946-10.407-4.946-.936-.276-.285-.91.292-1.1,2.344-.759,5.083-1.887,12.231,1.885C436.489,145.368,437.165,146.274,436.731,147.322Z" transform="translate(-384.08 -91.019)" fill="#003051"/>
      <path id="Trazado_23559" data-name="Trazado 23559" d="M387.659,165.707s4.482,5.7,10.707,3.961c0,0,.059,4.661,10.519,6.19l.914-3.651s-6.732-3.589-7.174-3.318-6.841-1.709-8.06-1.937-5.382-3.479-5.382-3.479Z" transform="translate(-376.983 -95.356)" fill="#003051"/>
      <path id="Trazado_23560" data-name="Trazado 23560" d="M460.278,163.181s-3.8,5.411-3.214,7.77c0,0,.145-1.37,3.639-1.349,0,0,2.258-3.147,1.122-5.493A1.413,1.413,0,0,0,460.278,163.181Z" transform="translate(-391.111 -95.293)" fill="#ed9780"/>
      <g id="Grupo_14135" data-name="Grupo 14135" transform="translate(38.185 57.066)">
        <g id="Grupo_14133" data-name="Grupo 14133">
          <path id="Trazado_23561" data-name="Trazado 23561" d="M423.257,150.554c-1.193,1.944-1.691,4.063.26,5.606a1.869,1.869,0,0,0,2.249-.232,7.275,7.275,0,0,0,1.711-2.506c1.333-2.529-2.7-5.35-4.22-2.869Z" transform="translate(-422.206 -149.594)" fill="#452e17"/>
        </g>
        <g id="Grupo_14134" data-name="Grupo 14134" transform="translate(1.101 1.813)">
          <path id="Trazado_23562" data-name="Trazado 23562" d="M423.865,152.15c-.313.51-.444,1.066.068,1.471a.491.491,0,0,0,.59-.061c.26-.249.192-.507.345-.8a.588.588,0,0,0-1-.612Z" transform="translate(-423.589 -151.87)" fill="#fff"/>
        </g>
      </g>
      <g id="Grupo_14138" data-name="Grupo 14138" transform="translate(17.526 50.229)">
        <g id="Grupo_14136" data-name="Grupo 14136">
          <path id="Trazado_23563" data-name="Trazado 23563" d="M397.161,141.772c-.985,1.507-1.426,3.168.079,4.431a1.477,1.477,0,0,0,1.781-.133,6.46,6.46,0,0,0,1.36-2.171c1.109-1.966-1.963-4.051-3.22-2.127Z" transform="translate(-396.262 -141.008)" fill="#452e17"/>
        </g>
        <g id="Grupo_14137" data-name="Grupo 14137" transform="translate(0.895 1.455)">
          <path id="Trazado_23564" data-name="Trazado 23564" d="M397.622,143.046c-.258.395-.374.831.021,1.162a.386.386,0,0,0,.467-.035c.211-.19.162-.4.291-.621a.465.465,0,0,0-.779-.506Z" transform="translate(-397.386 -142.835)" fill="#fff"/>
        </g>
      </g>
    </g>
    <path id="Trazado_23565" data-name="Trazado 23565" d="M241.006,223.463s-9.985-21.443-16.952-26.493c0,0-2.452.384-2.165,3.363s4.515,6.635,4.705,9.424-1.683,2.4-3.99,1.872-19.364-10.023-21.047-9.192c-1.715.846.047,2.62,1.248,3.581s10.306,6.687,10.306,6.687-16.405-9-17.632-5.872c-.8,2.03,14.458,9.86,14.458,9.86s-13.1-7.341-13.7-4.618c-.51,2.324,10.59,7.533,10.59,7.533s-6.861-3.591-7.377-2.015c-.655,2,8.874,7.174,11.637,8.977s9.49,4.692,12.157,4.621,4.638-.334,6.1,1.156" transform="translate(694.725 91.937)" fill="#f7b59c"/>
    <path id="Trazado_23566" data-name="Trazado 23566" d="M446.413,272.607,451.924,293H351.842c.008-5.271-.279-11.562-.693-17.773l-21.531,13.186c-7.039-13.951-22.383-27.224-22.6-27.232,14.946-14.664,33.273-31.272,43.258-38.2,4.778-3.32,27.729-4.656,30.707-4.95a7.9,7.9,0,0,0,6.139-4.085s3.193,7.421,8.4,10.1c1.417.581,1.545,9,3.312,8.95.526-.016,4.4-8.807,4.9-8.886,0,0,6.163-1.043,12.971-11.3l1.218,1.664a7.85,7.85,0,0,0,4.547,3.018,114.016,114.016,0,0,1,15.8,4.937c8.584,3.464,18.035,19.938,18.035,19.938l2.126,30.234-12.613-.573Z" transform="translate(671.994 88.708)" fill="#fff"/>
    <path id="Trazado_23567" data-name="Trazado 23567" d="M470.512,281.4l2.38,25.573h12.342l-2.19-16.668Z" transform="translate(638.684 74.734)" fill="#f4f4f4"/>
    <path id="Trazado_23568" data-name="Trazado 23568" d="M509.687,276.336l11.148,29.607H487.591l-5.508-12.023" transform="translate(636.326 75.767)" fill="#f7b59c"/>
    <path id="Trazado_23569" data-name="Trazado 23569" d="M455.607,219.6s25.478,3.685,33.1,11.271c3.8,3.781,6.909,11.026,11.676,21.9,7.8,17.783,11.473,27.469,11.473,27.469s-19.287,13.406-38.612,9.424l-9.468-27.272Z" transform="translate(641.72 87.326)" fill="#fff"/>
    <ellipse id="Elipse_866" data-name="Elipse 866" cx="8.056" cy="7.252" rx="8.056" ry="7.252" transform="translate(1043.132 251.6) rotate(-67.998)" fill="none" stroke="#fff" stroke-miterlimit="10" stroke-width="1"/>
    <ellipse id="Elipse_867" data-name="Elipse 867" cx="8.056" cy="7.252" rx="8.056" ry="7.252" transform="translate(1062.769 259.572) rotate(-67.999)" fill="none" stroke="#fff" stroke-miterlimit="10" stroke-width="1"/>
    <path id="Trazado_23570" data-name="Trazado 23570" d="M408.473,146.867s4.344-.464,5.99,3.088" transform="translate(651.324 102.148)" fill="none" stroke="#fff" stroke-miterlimit="10" stroke-width="1"/>
    <line id="Línea_448" data-name="Línea 448" x2="22.317" y2="1.405" transform="translate(1079.506 256.767)" fill="none" stroke="#fff" stroke-linecap="round" stroke-miterlimit="10" stroke-width="1"/>
    <path id="Trazado_23571" data-name="Trazado 23571" d="M368.6,308.335h-5.462c.008-5.271-.279-11.562-.693-17.773l4.427-2.476S368.722,302.713,368.6,308.335Z" transform="translate(660.702 73.373)" fill="#f4f4f4"/>
    <path id="Trazado_23572" data-name="Trazado 23572" d="M409.64,149.594s-5.811,4.5-6.442,6.848c-.371,1.387,1.958,2.923,1.958,2.923" transform="translate(652.406 101.589)" fill="none" stroke="#ed9780" stroke-linecap="round" stroke-miterlimit="10" stroke-width="1"/>
    <path id="Trazado_23573" data-name="Trazado 23573" d="M206.61,345.208s2.386,8.319-6.56,8.315a7.292,7.292,0,0,1-3.25-.777c-3.3-1.59-4.071-7.137-4.071-7.137,2.8-.716,1.815-4.755,1.815-4.755l9.937.228s-.491,2.6.234,3.34C205.981,345.714,206.61,345.208,206.61,345.208Z" transform="translate(695.279 62.622)" fill="#f7b59c"/>
    <path id="Trazado_23574" data-name="Trazado 23574" d="M186.622,345.984s-.56,7.377,6.385,7.377c6.283,0,6.359-4.887,5.895-7.579,7.174.639,15.02,3.537,19.028,6.826,4.754,6.15,8.053,15.556,8.053,15.556a37.636,37.636,0,0,1-4.46,1.714,18.5,18.5,0,0,0-4.066,1.772l-2.811,37.974H170.7l-.749-38s-2.887-.692-5.223-1.457a14.993,14.993,0,0,1-4.7-2.216,79.435,79.435,0,0,1,6.617-14.185C170.686,350.037,178.238,346.963,186.622,345.984Z" transform="translate(701.941 61.617)" fill="#5146af"/>
    <path id="Trazado_23575" data-name="Trazado 23575" d="M160.029,374.175s-4.191,14.823-3.8,21.9,17.124,17,17.124,17l2.189-7.468s-6.952-2.96-7.983-8.369,4.807-18.971,4.807-18.971-2.579-.756-6.1-1.721A36.556,36.556,0,0,1,160.029,374.175Z" transform="translate(702.722 55.833)" fill="#f7b59c"/>
    <path id="Trazado_23576" data-name="Trazado 23576" d="M238.25,374.175s4.192,14.823,3.805,21.9-17.124,17-17.124,17l-2.189-7.468s6.953-2.96,7.983-8.369-5.012-19.3-5.012-19.3,2.784-.627,6.309-1.593A50.091,50.091,0,0,0,238.25,374.175Z" transform="translate(689.164 55.833)" fill="#f7b59c"/>
    <path id="Trazado_23577" data-name="Trazado 23577" d="M221.145,417.615h-54.3l-1.232-34.023a1.558,1.558,0,0,1,1.557-1.614h53.652a1.558,1.558,0,0,1,1.557,1.614Z" transform="translate(700.804 54.243)" fill="#9999ef"/>
    <g id="Grupo_14141" data-name="Grupo 14141" transform="translate(850.079 462.188)">
      <path id="Trazado_23578" data-name="Trazado 23578" d="M229.78,436.142a5.29,5.29,0,0,1,3.844-1.438c1.743-.047,6.68,1.069,9.034,1.03s4.805-.555,6.156,1.456c2.293,3.41,1.3,6.486-2.559,6.949-2.1.252-3.835-1.135-7.171-.805-3.233.321-8.276-.76-9.744-3.069" transform="translate(-162.259 -418.688)" fill="#4c4051"/>
      <path id="Trazado_23579" data-name="Trazado 23579" d="M223.369,434.515a25.094,25.094,0,0,0,4.332.837c1.728.093,5.6-.338,7.356.764,1.9,1.194,1.194,4.427-.008,5.19-1.941,1.233-3.511.595-7.062-.524a22.186,22.186,0,0,0-7.72-.693" transform="translate(-160.41 -418.649)" fill="#f7b59c"/>
      <path id="Trazado_23580" data-name="Trazado 23580" d="M213.344,438.209s-40.261-.725-50.988-2.138a50.7,50.7,0,0,1-12.277-3.01c-4.825-2.873-6.591-9.716-3.308-16.02,1.531-2.941,6.25-2.414,6.907-2.414.167,0,.255.01.255.01,13.052.51,24.945,3.844,38.389,9.218a155.223,155.223,0,0,0,22.072,7.069C215.1,436.061,213.344,438.209,213.344,438.209Z" transform="translate(-145.095 -414.59)" fill="#0052a3"/>
      <path id="Trazado_23581" data-name="Trazado 23581" d="M242.512,438.645s-1.067-.594-1.422.046a9.388,9.388,0,0,0-.364,3.777c.334.752,1.9.483,1.9.483l1.276-3.442Z" transform="translate(-164.564 -419.44)" fill="#4c4051"/>
    </g>
    <g id="Grupo_14142" data-name="Grupo 14142" transform="translate(851.755 462.412)">
      <path id="Trazado_23582" data-name="Trazado 23582" d="M168.218,436.195a5.494,5.494,0,0,0-3.987-1.508c-1.811-.056-6.942,1.085-9.388,1.035s-4.851-.58-6.411,1.064c-2.939,3.1-.2,6.98,3.805,7.475,2.18.269,2.824-.988,6.289-.632,3.356.346,8.6-.757,10.132-3.151" transform="translate(-147.2 -418.907)" fill="#594a5f"/>
      <path id="Trazado_23583" data-name="Trazado 23583" d="M176.131,434.531a26.112,26.112,0,0,1-4.5.853c-1.8.09-5.821-.372-7.643.765-1.975,1.232-1.257,4.593-.012,5.391,2.012,1.287,3.645.631,7.338-.518a23.051,23.051,0,0,1,8.02-.69" transform="translate(-150.37 -418.876)" fill="#f7b59c"/>
      <path id="Trazado_23584" data-name="Trazado 23584" d="M235.74,432.98l-.01.01a49.436,49.436,0,0,1-12.973,3.255c-10.737,1.373-51.008,1.952-51.008,1.952s-1.745-2.167-1.019-7.3a154.724,154.724,0,0,0,22.1-6.982c13.159-5.187,24.838-8.472,37.536-9.05,2.485.247,5.359,1.343,7.388,5.6C240.461,426.1,238.367,431.99,235.74,432.98Z" transform="translate(-151.958 -414.87)" fill="#0058c4"/>
      <path id="Trazado_23585" data-name="Trazado 23585" d="M162.383,437.016s1.364-.753,1.814.065a11.973,11.973,0,0,1,.446,4.819c-.428.958-2.421.607-2.421.607l-1.612-4.4Z" transform="translate(-149.932 -419.318)" fill="#594a5f"/>
    </g>
    <path id="Trazado_23586" data-name="Trazado 23586" d="M214.854,316.572s3.73-.379-.5,9.281c-1.594,3.641-2.162,3.4-2.189,3.576a3.487,3.487,0,0,1-1.429-1.823c0-.613.061-5.393.123-5.638S214.854,316.572,214.854,316.572Z" transform="translate(691.61 67.569)" fill="#2c1e56"/>
    <path id="Trazado_23587" data-name="Trazado 23587" d="M187.777,319.338s-2.886-.8-1.722,4.957a11.346,11.346,0,0,0,2.867,5.691,3.487,3.487,0,0,0,1.429-1.823c0-.613-.061-5.393-.123-5.638S187.777,319.338,187.777,319.338Z" transform="translate(696.695 67.013)" fill="#2c1e56"/>
    <path id="Trazado_23588" data-name="Trazado 23588" d="M188.865,328.292s-1.225-1.183-1.569.394.936,5.671,2.564,4.094" transform="translate(696.398 65.268)" fill="#e5a18c"/>
    <path id="Trazado_23589" data-name="Trazado 23589" d="M212.779,328.292s1.224-1.183,1.569.394-.937,5.671-2.564,4.094" transform="translate(691.397 65.268)" fill="#e5a18c"/>
    <path id="Trazado_23590" data-name="Trazado 23590" d="M199.029,339.511h-.1c-1.136.068-11.247.166-9.968-18.213h19.263S210.564,338.407,199.029,339.511Z" transform="translate(696.069 66.605)" fill="#f7b59c"/>
    <path id="Trazado_23591" data-name="Trazado 23591" d="M204.319,308.281c3.627,1.075,5.97,5.661,4.179,9.289s-7.56,5.741-14.008,4.368c-3.8-.808-5.017-2.335-7.293-2.22a4.008,4.008,0,0,1-3.956-2.622c-.828-2.232-1.316-5.249,1-7.047C190.527,311.864,198.876,306.668,204.319,308.281Z" transform="translate(697.352 69.322)" fill="#2c1e56"/>
    <path id="Trazado_23592" data-name="Trazado 23592" d="M203.371,402.1a3.494,3.494,0,1,1-3.495-3.494A3.494,3.494,0,0,1,203.371,402.1Z" transform="translate(694.535 50.856)" fill="#d1deff"/>
    <path id="Trazado_23593" data-name="Trazado 23593" d="M195.2,342.247a8.071,8.071,0,0,0,1.44.7,8.424,8.424,0,0,0,3.383.558,9.789,9.789,0,0,0,1.833-.256,11.419,11.419,0,0,0,1.557-.476,11.816,11.816,0,0,0,1.464-.663,6.623,6.623,0,0,1-1.35.915,9,9,0,0,1-1.559.642,8.125,8.125,0,0,1-1.913.327,6.989,6.989,0,0,1-1.948-.191,7.136,7.136,0,0,1-1.581-.606A5.323,5.323,0,0,1,195.2,342.247Z" transform="translate(694.776 62.365)" fill="#eaa18b"/>
    <g id="Grupo_14145" data-name="Grupo 14145" transform="translate(889.248 395.12)">
      <g id="Grupo_14143" data-name="Grupo 14143">
        <path id="Trazado_23594" data-name="Trazado 23594" d="M195.7,330.91c.074.657.131,1.434-.585,1.519a.755.755,0,0,1-.735-.416,2.365,2.365,0,0,1-.088-.937c-.04-.828,1.313-1,1.408-.166Z" transform="translate(-194.287 -330.361)" fill="#452e17"/>
      </g>
      <g id="Grupo_14144" data-name="Grupo 14144" transform="translate(0.735 0.971)">
        <path id="Trazado_23595" data-name="Trazado 23595" d="M195.552,331.714c.033.17.013.334-.167.393a.142.142,0,0,1-.154-.076c-.045-.094,0-.158-.014-.252a.171.171,0,0,1,.335-.065Z" transform="translate(-195.21 -331.58)" fill="#fff"/>
      </g>
    </g>
    <g id="Grupo_14148" data-name="Grupo 14148" transform="translate(898.087 395.12)">
      <g id="Grupo_14146" data-name="Grupo 14146">
        <path id="Trazado_23596" data-name="Trazado 23596" d="M206.8,330.91c.074.657.131,1.434-.585,1.519a.755.755,0,0,1-.735-.416,2.365,2.365,0,0,1-.088-.937c-.04-.828,1.313-1,1.408-.166Z" transform="translate(-205.387 -330.361)" fill="#452e17"/>
      </g>
      <g id="Grupo_14147" data-name="Grupo 14147" transform="translate(0.735 0.971)">
        <path id="Trazado_23597" data-name="Trazado 23597" d="M206.652,331.714c.033.17.013.334-.167.393a.142.142,0,0,1-.154-.076c-.045-.094,0-.158-.014-.252a.171.171,0,0,1,.335-.065Z" transform="translate(-206.31 -331.58)" fill="#fff"/>
      </g>
    </g>
    <path id="Trazado_23598" data-name="Trazado 23598" d="M207.583,327.936c.055.16.014.014.049.229s-.191.361-.486.366c-.731.015-2.96.117-2.96.117-.24.039-.2-.128-.113-.213.37-.346.764-.79,2.856-.807C207.223,327.626,207.508,327.718,207.583,327.936Z" transform="translate(692.982 65.316)" fill="#003051"/>
    <path id="Trazado_23599" data-name="Trazado 23599" d="M192.982,327.936c-.055.16-.015.014-.049.229s.191.361.486.366c.731.015,2.96.117,2.96.117.24.039.2-.128.113-.213-.37-.346-.764-.79-2.856-.807C193.342,327.626,193.057,327.718,192.982,327.936Z" transform="translate(695.238 65.316)" fill="#003051"/>
    <path id="Trazado_23600" data-name="Trazado 23600" d="M200.609,332.584s-.846,1.858-.58,2.222,1.262.381,1.262.381" transform="translate(693.802 64.306)" fill="none" stroke="#eaa18b" stroke-linecap="round" stroke-miterlimit="10" stroke-width="0.5"/>
    <path id="Trazado_23601" data-name="Trazado 23601" d="M197.938,339.229a4.926,4.926,0,0,0,5.051-.125" transform="translate(694.218 62.978)" fill="none" stroke="#c9806f" stroke-linecap="round" stroke-miterlimit="10" stroke-width="0.5"/>
    <g id="Grupo_14151" data-name="Grupo 14151" transform="translate(1074.786 406.824)">
      <g id="Grupo_14150" data-name="Grupo 14150" transform="translate(21.622 3.601)">
        <path id="Trazado_23602" data-name="Trazado 23602" d="M457.57,421.6v-71.73a.291.291,0,0,0-.29-.291H455.54a.291.291,0,0,0-.29.291V421.6a1.015,1.015,0,0,0-.8.983,1.029,1.029,0,0,0,1.03,1.029h1.857a1.029,1.029,0,0,0,1.03-1.029A1.015,1.015,0,0,0,457.57,421.6Z" transform="translate(-454.452 -349.582)" fill="#fff"/>
        <path id="Trazado_23603" data-name="Trazado 23603" d="M636.284,421.555h-.059V349.582H633.9v71.973h-.059a.739.739,0,0,0-.739.739v.581a.739.739,0,0,0,.739.739h2.438a.739.739,0,0,0,.739-.739v-.581A.739.739,0,0,0,636.284,421.555Z" transform="translate(-490.851 -349.582)" fill="#fff"/>
      </g>
      <path id="Trazado_23604" data-name="Trazado 23604" d="M612.408,349.379H429.457a2.159,2.159,0,0,1-2.159-2.159h0a2.159,2.159,0,0,1,2.159-2.159h182.95a2.159,2.159,0,0,1,2.159,2.159h0A2.159,2.159,0,0,1,612.408,349.379Z" transform="translate(-427.298 -345.06)" fill="#9999f1"/>
    </g>
    <path id="Trazado_23605" data-name="Trazado 23605" d="M536.284,332.79H483.476l-10.454-32.866a2.566,2.566,0,0,1,2.445-3.344h47.422a2.567,2.567,0,0,1,2.446,1.788Z" transform="translate(638.197 71.642)" fill="#5146af"/>
    <path id="Trazado_23606" data-name="Trazado 23606" d="M535.669,333.192h-50.01l-10.513-33.385a.962.962,0,0,1,.909-1.255h47.913a1.085,1.085,0,0,1,1.034.763Z" transform="translate(637.749 71.24)" fill="#fff"/>
    <path id="Trazado_23607" data-name="Trazado 23607" d="M505.538,304.759H482.5a.621.621,0,0,1-.621-.621h0a.622.622,0,0,1,.621-.622h23.036a.622.622,0,0,1,.622.622h0A.622.622,0,0,1,505.538,304.759Z" transform="translate(636.367 70.229)" fill="#c2e0f2"/>
    <path id="Trazado_23608" data-name="Trazado 23608" d="M509.34,308.367H483.652a.622.622,0,0,1-.621-.622h0a.621.621,0,0,1,.621-.621H509.34a.621.621,0,0,1,.621.621h0A.622.622,0,0,1,509.34,308.367Z" transform="translate(636.133 69.494)" fill="#c2e0f2"/>
    <path id="Trazado_23609" data-name="Trazado 23609" d="M507.2,311.974H484.827a.622.622,0,0,1-.622-.621h0a.622.622,0,0,1,.622-.622H507.2a.622.622,0,0,1,.621.622h0A.621.621,0,0,1,507.2,311.974Z" transform="translate(635.894 68.759)" fill="#c2e0f2"/>
    <path id="Trazado_23610" data-name="Trazado 23610" d="M503.7,315.582H485.971a.621.621,0,0,1-.621-.621h0a.622.622,0,0,1,.621-.622H503.7a.622.622,0,0,1,.622.622h0A.622.622,0,0,1,503.7,315.582Z" transform="translate(635.661 68.023)" fill="#c2e0f2"/>
    <path id="Trazado_23611" data-name="Trazado 23611" d="M512.838,319.19H487.151a.622.622,0,0,1-.622-.622h0a.622.622,0,0,1,.622-.621h25.687a.621.621,0,0,1,.621.621h0A.622.622,0,0,1,512.838,319.19Z" transform="translate(635.42 67.289)" fill="#c2e0f2"/>
    <path id="Trazado_23612" data-name="Trazado 23612" d="M510.678,322.8H488.305a.621.621,0,0,1-.621-.621h0a.622.622,0,0,1,.621-.622h22.373a.622.622,0,0,1,.621.622h0A.621.621,0,0,1,510.678,322.8Z" transform="translate(635.185 66.554)" fill="#c2e0f2"/>
    <path id="Trazado_23613" data-name="Trazado 23613" d="M516.3,330.012H490.608a.622.622,0,0,1-.622-.621h0a.622.622,0,0,1,.622-.622H516.3a.622.622,0,0,1,.621.622h0A.621.621,0,0,1,516.3,330.012Z" transform="translate(634.716 65.083)" fill="#c2e0f2"/>
    <path id="Trazado_23614" data-name="Trazado 23614" d="M517.469,333.62H491.782a.622.622,0,0,1-.621-.622h0a.621.621,0,0,1,.621-.621h25.687a.622.622,0,0,1,.622.621h0A.622.622,0,0,1,517.469,333.62Z" transform="translate(634.477 64.349)" fill="#c2e0f2"/>
    <path id="Trazado_23615" data-name="Trazado 23615" d="M537.008,327.429h-8.3a1.772,1.772,0,0,1-1.69-1.239L520.1,304.3a1.772,1.772,0,0,1,1.69-2.307h8.3a1.772,1.772,0,0,1,1.69,1.239l6.917,21.893A1.772,1.772,0,0,1,537.008,327.429Z" transform="translate(628.597 70.54)" fill="#c2e0f2"/>
    <path id="Trazado_23616" data-name="Trazado 23616" d="M542.931,344.191H485.5a1.7,1.7,0,0,1-1.7-1.7h0a1.7,1.7,0,0,1,1.7-1.7h57.427a1.7,1.7,0,0,1,1.7,1.7h0A1.7,1.7,0,0,1,542.931,344.191Z" transform="translate(635.975 62.634)" fill="#5146af"/>
    <g id="Grupo_14152" data-name="Grupo 14152" transform="translate(1181.688 355.041)">
      <path id="Trazado_23617" data-name="Trazado 23617" d="M564.476,287.9a1.26,1.26,0,0,1-1.094-.631l-1.665-2.929a1.252,1.252,0,0,1,.5-1.726l4.634-2.447a1.257,1.257,0,0,1,1.685.508l1.581,2.9a1.252,1.252,0,0,1-.5,1.7l-4.551,2.472A1.236,1.236,0,0,1,564.476,287.9Zm2.961-7.3a.665.665,0,0,0-.312.077l-4.634,2.448a.674.674,0,0,0-.271.93h0l1.665,2.928a.678.678,0,0,0,.909.259l4.551-2.472a.674.674,0,0,0,.269-.915l-1.581-2.9A.676.676,0,0,0,567.437,280.6Z" transform="translate(-561.553 -280.027)" fill="#1a1a47"/>
    </g>
    <path id="Trazado_23618" data-name="Trazado 23618" d="M550.782,320.23a9.975,9.975,0,0,1-.67.783,23.175,23.175,0,0,0-3.56-2.308,10.886,10.886,0,0,0-3.367.471c-1.514.311-.885-.928-.885-.928s-1.02.358-1.914.721c-1.021.414-2.083,1.267-2.39,1.341-.584.139-1.155-.15-.61-.967a28.5,28.5,0,0,1,5.329-4.946c1.16-.55,2.738-1.352,4-.881a44.063,44.063,0,0,1,5.389,3.559A5.125,5.125,0,0,1,550.782,320.23Z" transform="translate(625.104 68.22)" fill="#f7b59c"/>
    <path id="Trazado_23619" data-name="Trazado 23619" d="M552.893,319.33s13.658,11.945,23.878,13.161,27.455-18.175,27.455-18.175-1.084-10.329-7.458-9.115-14.915,16.573-18.617,17.29-22.946-7.438-22.946-7.438a5,5,0,0,0-1.19,1.467A12.846,12.846,0,0,0,552.893,319.33Z" transform="translate(621.9 69.905)" fill="#9ca2f2"/>
    <path id="Trazado_23620" data-name="Trazado 23620" d="M585.206,263.375c-3.258-3.729-8.072-4.129-11.789-3.719a12.313,12.313,0,0,0-10.53,8.534,10.962,10.962,0,0,0,.221,7.029c3.033,8.377,6.255,12.992,8.733,15.26,1.089,1,3.386-.361,5.694-1.171a.65.65,0,0,1,.792.3l1.318,2.434,9.517-1.942a33.576,33.576,0,0,1-2.008-5.523C588.4,283.006,591.166,270.2,585.206,263.375Z" transform="translate(619.96 79.191)" fill="#f7b59c"/>
    <path id="Trazado_23621" data-name="Trazado 23621" d="M567.13,274.674a2.455,2.455,0,0,1,2.49,1.461c.7,1.677,1.792,4.022,2.648,4.786a.873.873,0,0,0,.942.009.737.737,0,0,0,.431-.731,19.9,19.9,0,0,0-.991-3.339,2.247,2.247,0,0,1,1.688-3.113,3.815,3.815,0,0,1,1.393.086c2.534.768.788,4.741.737,6.816-.037,1.463,1.714,4.853,2.492,5.158a7.958,7.958,0,0,0,8.449-2.432c2.046-2.527,2.492-10.976,1.372-16.032s-5.164-7.908-6.5-8.233a4.726,4.726,0,0,0-1.589-.123,1.473,1.473,0,0,1-1.116-.365c-1.347-1.171-5.371-3.85-11.738-1.1A14.759,14.759,0,0,0,558.7,271.6c.094,2.159,1.79,2,2.965,1.624a1.962,1.962,0,0,1,1.866.4A4.759,4.759,0,0,0,567.13,274.674Z" transform="translate(620.718 79.844)" fill="#0b0b3a"/>
    <path id="Trazado_23622" data-name="Trazado 23622" d="M581.837,300.589s-.846-.943-.525-1.519c.4-.715,4.713-4.129,9.75-3.949.783.028,1.74.028,2.679,2.071a14.75,14.75,0,0,1,1.16,3.4Z" transform="translate(616.124 71.94)" fill="#9ca2f2"/>
    <path id="Trazado_23623" data-name="Trazado 23623" d="M599.993,362.256c-.3.073-.636.146-.981.212a85.228,85.228,0,0,1-11.23.889c-13.708-.245-19.794-7.637-22.021-11.449a14.258,14.258,0,0,1-1.094-2.234,12.6,12.6,0,0,0,4.555-6.3c1.034-3.4-.053-11.508-1.823-14.6-.975-1.7-3.858-5.137-5.668-8.764-1.485-2.983-2.253-6.092-.63-8.465a30.509,30.509,0,0,1,10.388-9.069s11.667-4.673,21.6-3.613c6.3.662,11.918,3.633,13.417,11.567C610.374,330.875,599.993,362.256,599.993,362.256Z" transform="translate(620.412 71.207)" fill="#b0b2ff"/>
    <path id="Trazado_23624" data-name="Trazado 23624" d="M572.591,428.707a4.527,4.527,0,0,1-2.462,1.389,4.369,4.369,0,0,1-2.867-.532l-.762-2.2,5.26-1.146Z" transform="translate(619.127 45.229)" fill="#f7b59c"/>
    <path id="Trazado_23625" data-name="Trazado 23625" d="M538.047,432.178a4.526,4.526,0,0,1-2.651.98,4.371,4.371,0,0,1-2.746-.98l-.4-2.292h5.4Z" transform="translate(626.106 44.482)" fill="#f7b59c"/>
    <path id="Trazado_23626" data-name="Trazado 23626" d="M569.366,416.319c-.345.158-1.4.589-1.772.722a49.079,49.079,0,0,1-4.817,1.243c-4.523-9.775-11.9-34.375-11.9-34.375-1.028-4.348,2.068-6.1,4.786-6.271a5.762,5.762,0,0,1,2.506.365c2.6,1.1,6.41,8.452,6.41,8.452a45.225,45.225,0,0,1,2.373,7.789C568.164,399.487,569.366,416.319,569.366,416.319Z" transform="translate(622.352 55.129)" fill="#1a1a47"/>
    <path id="Trazado_23627" data-name="Trazado 23627" d="M574.026,375.7c-.033,2.472-.69,6.417-4.4,7.53-5.528,1.657-9.612.716-16.022-.391-5.369-.921-13.848-4.063-16.446-5.051-.338-.126-.276.043-.209.395,1.226,5.992-.759,38.372-.759,38.372a15.375,15.375,0,0,1-1.83.424,7.452,7.452,0,0,1-1.053.092c-1.393,0-3.952-.262-3.952-.262s-4.918-22.807-5.693-35.567,0-14.732,6.049-16.835c6.736-2.343,27.46-1.713,27.46-1.713l.007.006a19.775,19.775,0,0,0,5.833,7.816A24.589,24.589,0,0,0,574.026,375.7Z" transform="translate(627.904 58.188)" fill="#3d3d72"/>
    <g id="Grupo_14153" data-name="Grupo 14153" transform="translate(1171.425 384.875)">
      <path id="Trazado_23628" data-name="Trazado 23628" d="M593.764,395.34v32.768a2.114,2.114,0,0,1-4.229,0V395.34Z" transform="translate(-556.991 -333.355)" fill="#94c1f7"/>
      <path id="Trazado_23629" data-name="Trazado 23629" d="M593.979,397.13v31.252a2.262,2.262,0,0,1-1.821,2.186,2.116,2.116,0,0,1-1.352-.264l-.214-.4V398a.868.868,0,0,1,.868-.868Z" transform="translate(-557.206 -333.719)" fill="#b5d0ff"/>
      <path id="Trazado_23630" data-name="Trazado 23630" d="M595.665,393.492a1.71,1.71,0,0,1-.059.451,1.834,1.834,0,0,1-1.764,1.373h-6.3a1.826,1.826,0,0,1-1.823-1.823,1.832,1.832,0,0,1,1.823-1.823h6.3A1.821,1.821,0,0,1,595.665,393.492Z" transform="translate(-556.214 -332.607)" fill="#94c1f7"/>
      <path id="Trazado_23631" data-name="Trazado 23631" d="M596.142,394.524a1.834,1.834,0,0,1-1.764,1.373h-6.026a1.793,1.793,0,0,1,.471-.842,1.844,1.844,0,0,1,1.292-.53Z" transform="translate(-556.75 -333.188)" fill="#b5d0ff"/>
      <path id="Trazado_23632" data-name="Trazado 23632" d="M610.553,321.209c0,.02-.01.03-.01.05a5.826,5.826,0,0,1-.11.623c-.512,2.139-2.32,6.326-2.581,12.6-.171,3.856-.01,14.088-.191,20.274v.01c-.03.924-.06,1.747-.1,2.46-.331,5.473-2.2,13.586-7.912,17.693-5.8,4.357-17.482,3.6-24.571,3.444S550.425,375,549.02,372.39a2.267,2.267,0,0,1-.331-1.507c0-.01,0-.01.01-.02a1.826,1.826,0,0,1,.541-1,2.735,2.735,0,0,1,2.591-.643c2.862.713,11.377,2.359,15.213-2.5,4.639-5.884,4.056-12.682,6.044-27.011,1.878-13.556,6.106-17.713,13.1-20.414,7.481-2.883,19.5-1.647,22.5-.744A2.568,2.568,0,0,1,610.553,321.209Z" transform="translate(-548.664 -317.495)" fill="#cfe3ff"/>
      <path id="Trazado_23633" data-name="Trazado 23633" d="M610.442,440.384a.777.777,0,0,1-.776.776h-47.5a.774.774,0,0,1-.126-1.538l23.877-3.871,6.006.974,17.865,2.9A.776.776,0,0,1,610.442,440.384Z" transform="translate(-551.256 -341.588)" fill="#b5d0ff"/>
    </g>
    <path id="Trazado_23634" data-name="Trazado 23634" d="M529.483,432.765a8.752,8.752,0,0,0,2.728.566,6.57,6.57,0,0,0,2.686-.566s2.767,3.523,1.3,7.451a.534.534,0,0,1-.5.338H517.137a.416.416,0,0,1-.421-.4,1.552,1.552,0,0,1,1.305-1.53c1.712-.526,3.48-.815,4.805-1.285s3.23-2.417,4.3-2.776A5.782,5.782,0,0,0,529.483,432.765Z" transform="translate(629.27 43.896)" fill="#1a1a47"/>
    <path id="Trazado_23635" data-name="Trazado 23635" d="M564.523,430.2a8.741,8.741,0,0,0,2.783.127,6.569,6.569,0,0,0,2.562-.986s3.292,3.04,2.464,7.15a.533.533,0,0,1-.44.413s-9.791,2.194-13.1,2.668a47,47,0,0,1-5.22.291.443.443,0,0,1-.48-.343,1.552,1.552,0,0,1,1.045-1.719c1.608-.79,3.307-1.357,4.541-2.03s2.8-2.9,3.8-3.423A5.783,5.783,0,0,0,564.523,430.2Z" transform="translate(621.864 44.593)" fill="#1a1a47"/>
    <path id="Trazado_23636" data-name="Trazado 23636" d="M516.408,340.95s-1.9-.788-2.9-1.14c-.4-.139-.769-.238-1.074-.311a5.752,5.752,0,0,0-1.306-.139H500.32a.568.568,0,0,1-.564-.57,1.232,1.232,0,0,1,.564-1.041l1.16-.748,3.467-2.241a6.8,6.8,0,0,1,5.006-1,18.716,18.716,0,0,1,2.126.745c2.026.669,2.466.973,3.813,1.451a9.217,9.217,0,0,0,1.133.344,1.113,1.113,0,0,0,.464.047A6.486,6.486,0,0,1,516.408,340.95Z" transform="translate(632.726 64.082)" fill="#f7b59c"/>
    <path id="Trazado_23637" data-name="Trazado 23637" d="M562.871,310.125c-1.417-.865-5.7-3.244-11.225,5.371s-7.218,12.289-8.815,14.967c-1.933,1.16-21.4.664-21.4.664a17.658,17.658,0,0,0-1.409,4.826,70.956,70.956,0,0,0,24.065,6.111c10.627,0,21.576-20.767,22.073-23.363S566.257,312.193,562.871,310.125Z" transform="translate(628.597 69.079)" fill="#b0b2ff"/>
    <g id="Grupo_14154" data-name="Grupo 14154" transform="translate(1182.222 354.025)">
      <path id="Trazado_23638" data-name="Trazado 23638" d="M562.512,285.665a.288.288,0,0,1-.131-.545l10.765-5.517c1.218-.624,3.712-1.9,5.563.814a.289.289,0,0,1-.477.326c-1.443-2.118-3.164-1.475-4.8-.635l-10.785,5.527A.282.282,0,0,1,562.512,285.665Z" transform="translate(-562.223 -278.751)" fill="#1a1a47"/>
    </g>
    <path id="Trazado_23639" data-name="Trazado 23639" d="M575.908,280l1.421,4.54a1.443,1.443,0,0,0,2.172-.158c1.065-1.227,1.994-5.488.039-6.2A2.568,2.568,0,0,0,575.908,280Z" transform="translate(617.21 75.437)" fill="#f7b59c"/>
    <path id="Trazado_23640" data-name="Trazado 23640" d="M610.121,319.6a.075.075,0,0,1-.01-.029,2.635,2.635,0,0,0-1.416-1.025c-3-.9-15.021-2.139-22.5.744-7,2.7-11.227,6.857-13.1,20.414-1.988,14.329-1.405,21.126-6.044,27.011-3.836,4.86-12.351,3.213-15.213,2.5a2.735,2.735,0,0,0-2.591.643,1.864,1.864,0,0,0-.552,1.024,2.267,2.267,0,0,0,.331,1.507c1.405,2.61,18.968,5.8,26.057,5.974s18.767.913,24.571-3.444c5.713-4.107,7.581-12.22,7.912-17.693.04-.713.07-1.536.1-2.46-.12.5-4.045,11.559-17.862,9.01-13.31-2.454-14.52-17.054-14.044-21.966.063-.533.126-1.052.186-1.534.12-.911.851-4.759,1.757-8.123a16.349,16.349,0,0,1,5.238-8.135,7.834,7.834,0,0,1,1.269-.761c.131-.08.281-.161.432-.241.2-.111.412-.211.653-.322l.693-.3c.171-.07.352-.14.522-.2,10.814-4.278,22.442-1.5,23.205-1.376C610.432,320.939,610.171,319.8,610.121,319.6Z" transform="translate(622.761 67.38)" fill="#94c1f7" opacity="0.5"/>
    <path id="Trazado_23641" data-name="Trazado 23641" d="M255.764,451.37l1.186-3.156s18.82.889,27.744,6.443l-16.981.319Z" transform="translate(682.436 40.748)" fill="#e1efff"/>
    <path id="Trazado_23642" data-name="Trazado 23642" d="M321.027,451.37l-1.186-3.156s-18.82.889-27.745,6.443l16.981.319Z" transform="translate(675.034 40.748)" fill="#e1efff"/>
    <path id="Trazado_23643" data-name="Trazado 23643" d="M284.445,455.221c-10.2-3.957-29.9-4.235-29.9-4.235V457.7h59.806v-6.714S294.64,451.264,284.445,455.221Z" transform="translate(682.685 40.183)" fill="#cce1ff"/>
    <rect id="Rectángulo_3493" data-name="Rectángulo 3493" width="64.428" height="2.275" transform="translate(934.916 496.016)" fill="#7878ff"/>
    <path id="Trazado_23644" data-name="Trazado 23644" d="M496.918,144.534l5.675-3.72a7.556,7.556,0,0,0,4.083,1.2h27.338a7.6,7.6,0,0,0,7.6-7.6v-8.6a7.6,7.6,0,0,0-7.6-7.6H506.676a7.6,7.6,0,0,0-7.6,7.6v8.6a7.557,7.557,0,0,0,1.306,4.258Zm9.736-7.416a.683.683,0,0,1,.682-.681h26.288a.681.681,0,1,1,0,1.362H507.336A.683.683,0,0,1,506.654,137.119Zm26.969-2.872H519.735a.681.681,0,1,1,0-1.362h13.888a.681.681,0,1,1,0,1.362Zm-26.969-4.234a.683.683,0,0,1,.682-.682h26.288a.682.682,0,0,1,0,1.363H507.336A.684.684,0,0,1,506.654,130.012Zm26.969-2.872H514.232a.682.682,0,0,1,0-1.363h19.391a.682.682,0,0,1,0,1.363ZM506.654,122.9a.683.683,0,0,1,.682-.682h26.288a.682.682,0,0,1,0,1.363H507.336A.684.684,0,0,1,506.654,122.9Z" transform="translate(633.304 107.98)" fill="#b5d0ff"/>
    <path id="Trazado_23645" data-name="Trazado 23645" d="M189.856,237.823H150.4a3.2,3.2,0,0,0-3.2,3.2V362.64a3.2,3.2,0,0,0,3.2,3.2h2.857" transform="translate(704.555 83.613)" fill="none" stroke="#9acee2" stroke-linecap="round" stroke-miterlimit="10" stroke-width="1" stroke-dasharray="12 5"/>
    <path id="Trazado_23646" data-name="Trazado 23646" d="M549.1,186.678h75.506a5.632,5.632,0,0,1,5.631,5.632v98.6a5.631,5.631,0,0,1-5.631,5.631h-8.616" transform="translate(622.672 94.033)" fill="none" stroke="#9acee2" stroke-linecap="round" stroke-miterlimit="10" stroke-width="1" stroke-dasharray="12 5"/>
    <path id="Trazado_23647" data-name="Trazado 23647" d="M288.872,92.26h45.486a9.2,9.2,0,0,1,9.2,9.2V144.9" transform="translate(675.691 113.27)" fill="none" stroke="#9acee2" stroke-linecap="round" stroke-miterlimit="10" stroke-width="1" stroke-dasharray="12 5"/>
    <g id="Grupo_14158" data-name="Grupo 14158" transform="translate(1097.206 387.025)">
      <path id="Trazado_23648" data-name="Trazado 23648" d="M461.881,332.171a14.683,14.683,0,0,1-6.427-9.161s4.975,1.03,7.469,9.161" transform="translate(-455.454 -320.769)" fill="#fff"/>
      <path id="Trazado_23649" data-name="Trazado 23649" d="M465.876,332.171a14.683,14.683,0,0,0,6.427-9.161s-4.975,1.03-7.469,9.161" transform="translate(-457.365 -320.769)" fill="#fff"/>
      <path id="Trazado_23650" data-name="Trazado 23650" d="M463.4,331.111a14.683,14.683,0,0,1-2.685-10.863s4.267,2.757,3.657,11.24" transform="translate(-456.484 -320.206)" fill="#fff"/>
      <path id="Trazado_23651" data-name="Trazado 23651" d="M465.412,331.12a14.683,14.683,0,0,0,2.426-10.925s-4.2,2.859-3.389,11.324" transform="translate(-457.266 -320.195)" fill="#fff"/>
    </g>
    <g id="Grupo_14159" data-name="Grupo 14159" transform="translate(1098.796 397.197)">
      <rect id="Rectángulo_3494" data-name="Rectángulo 3494" width="11.509" height="9.625" fill="#cfe3ff"/>
      <rect id="Rectángulo_3495" data-name="Rectángulo 3495" width="3.423" height="9.625" fill="#94c1f7" opacity="0.5"/>
    </g>
    <g id="Grupo_14163" data-name="Grupo 14163" transform="translate(1210.493 319.895)" opacity="0.5">
      <g id="Grupo_14162" data-name="Grupo 14162">
        <g id="Grupo_14161" data-name="Grupo 14161" transform="translate(0.647 15.662)">
          <path id="Trazado_23652" data-name="Trazado 23652" d="M603.746,259.549l-5.205,2.776,2.6-6.767" transform="translate(-598.541 -255.558)" fill="#389fe5"/>
        </g>
        <path id="Trazado_23653" data-name="Trazado 23653" d="M619.732,246.889a11,11,0,1,1-11-11A11,11,0,0,1,619.732,246.889Z" transform="translate(-597.728 -235.888)" fill="#389fe5"/>
      </g>
    </g>
    <path id="Trazado_23654" data-name="Trazado 23654" d="M605.729,247.861l3.338,4.154,5.924-6.213" transform="translate(611.135 81.987)" fill="none" stroke="#fff" stroke-linecap="round" stroke-linejoin="round" stroke-width="1.38"/>
    <g id="Grupo_14167" data-name="Grupo 14167" transform="translate(858.831 356.053)" opacity="0.5">
      <g id="Grupo_14166" data-name="Grupo 14166">
        <g id="Grupo_14165" data-name="Grupo 14165" transform="translate(16.151 15.663)">
          <path id="Trazado_23655" data-name="Trazado 23655" d="M176.371,304.958l5.205,2.776-2.6-6.767" transform="translate(-176.371 -300.968)" fill="#389fe5"/>
        </g>
        <path id="Trazado_23656" data-name="Trazado 23656" d="M156.087,292.3a11,11,0,1,0,11-11A11,11,0,0,0,156.087,292.3Z" transform="translate(-156.087 -281.297)" fill="#389fe5"/>
      </g>
    </g>
    <path id="Trazado_23657" data-name="Trazado 23657" d="M164.088,293.271l3.338,4.154,5.924-6.212" transform="translate(701.114 72.735)" fill="none" stroke="#fff" stroke-linecap="round" stroke-linejoin="round" stroke-width="1.38"/>
    <rect id="Rectángulo_3496" data-name="Rectángulo 3496" width="45.551" height="46.104" rx="1.77" transform="translate(1181.419 226.732)" fill="#fff"/>
    <g id="Grupo_14170" data-name="Grupo 14170" transform="translate(1189.75 231.124)" opacity="0.5">
      <path id="Trazado_23658" data-name="Trazado 23658" d="M597.983,141.442a13.045,13.045,0,0,1-3.707,9.152.034.034,0,0,1-.018.009,12.082,12.082,0,0,1-1.132,1.04,12.294,12.294,0,0,1-1.876,1.278,11.856,11.856,0,0,1-1.619.764,12.858,12.858,0,0,1-4,.883q-.4.027-.8.028a13.155,13.155,0,0,1-3.027-25.957l.119-.027a11.209,11.209,0,0,1,1.279-.23,13.555,13.555,0,0,1,1.628-.1,13.149,13.149,0,0,1,11.58,6.917q.221.413.414.855A13,13,0,0,1,597.983,141.442Z" transform="translate(-571.677 -125.193)" fill="#9999f1"/>
      <g id="Grupo_14169" data-name="Grupo 14169" transform="translate(1.1 3.089)">
        <path id="Trazado_23659" data-name="Trazado 23659" d="M588.42,153.176c.095.66-.709,1.05-1.355,1.207-.381.095-.768.189-1.153.269-.265.018-.534.027-.8.027a13.1,13.1,0,0,1-8.284-2.935,2.154,2.154,0,0,1-.036-.346,6.033,6.033,0,0,1,.283-1.486,6.639,6.639,0,0,0,.175-1.256.637.637,0,0,0-.095-.444.953.953,0,0,0-.35-.193,1.706,1.706,0,0,1-.987-1.957c.639-1.573,2.886-1.058,1.405-4.977-.318-.842.353-1.057.3-1.291-.126-.52-2.073-.378-2.6-.463a1.831,1.831,0,0,1-.991-.328,1.428,1.428,0,0,1-.342-.543,7.239,7.239,0,0,1-.525-2.212,13.168,13.168,0,0,1,9.142-7.553l.041.426q-.2,2.242-.283,4.484a2.285,2.285,0,0,1-.117.781,1.383,1.383,0,0,1-1.44.741,1,1,0,0,0-.628.018c-.3.175-.229.619-.274.965-.085.6-.615,1.01-.979,1.49s-.507,1.3.023,1.593c.135.072.3.108.381.238.1.179-.037.4-.211.521a2.113,2.113,0,0,0-.512.332c-.26.31-.072.8.225,1.077a9.52,9.52,0,0,1,.938.758c.323.395.395.96.749,1.324.862.889,2.635-.041,3.51.839.453.448.453,1.2.853,1.7a4.185,4.185,0,0,0,.969.727,3.127,3.127,0,0,1,1.3,2.347c.058.987-.31,2.145.368,2.863C587.54,152.368,588.33,152.556,588.42,153.176Z" transform="translate(-573.058 -128.366)" fill="#81a8cc" opacity="0.5" style="mix-blend-mode: screen;isolation: isolate"/>
        <path id="Trazado_23660" data-name="Trazado 23660" d="M599.26,135.2a5,5,0,0,0-.659.054.383.383,0,0,0-.229.1.5.5,0,0,0-.063.381,1.471,1.471,0,0,1-.494,1.154.478.478,0,0,1-.224.121c-.247.045-.413-.242-.5-.48-.242-.628-.48-1.261-.717-1.894a1.169,1.169,0,0,0-.319-.52c-.292-.225-.736-.126-1.046-.323-.377-.238-.565-.885-1-.776-.35.085-.354.583-.243.924s.247.78-.026,1.014c-.292.247-.745,0-.97-.31s-.4-.7-.758-.839c-.512-.193-1.037.273-1.319.745s-.534,1.033-1.05,1.217a4.929,4.929,0,0,0-.772.2c-.485.27-.467.974-.3,1.5a2.217,2.217,0,0,1,.166,1.611.434.434,0,0,1-.216.229c-.22.08-.431-.122-.574-.3a20.181,20.181,0,0,1-2.065-3.254,1.29,1.29,0,0,1-.193-.718,2.434,2.434,0,0,1,.148-.458,8.438,8.438,0,0,0,.085-1.647c.116-.929.875-1.8.579-2.693a7.662,7.662,0,0,0-.5-.906.827.827,0,0,1,.049-.952,12.948,12.948,0,0,1,1.629-.1A13.144,13.144,0,0,1,599.26,135.2Z" transform="translate(-575.631 -128.282)" fill="#81a8cc" opacity="0.5" style="mix-blend-mode: screen;isolation: isolate"/>
        <path id="Trazado_23661" data-name="Trazado 23661" d="M602.618,143.428a13.16,13.16,0,0,1-2.531,7.764,0,0,0,0,1,0,0,.631.631,0,0,1-.036-.26,2.2,2.2,0,0,1,.175-.934c.094-.175.229-.327.327-.5A2.587,2.587,0,0,0,600.7,148a1.224,1.224,0,0,0-.256-.763c-.121-.122-.287-.193-.409-.315-.283-.3-.2-.772-.13-1.18s.022-.924-.354-1.077A13.05,13.05,0,0,1,598,146.444a.694.694,0,0,0-.875-.7.979.979,0,0,0-.619,1.059c-.381.01-.467-.533-.413-.911.09-.642.18-1.284.265-1.925-.417-.179-.723.485-1.167.584-.373.08-.722-.292-.763-.674a2.066,2.066,0,0,1,.3-1.09c.2-.4.4-.8.592-1.207a2.694,2.694,0,0,1,1.064-1.342,3.023,3.023,0,0,1,2.06.072,2.091,2.091,0,0,0,2-.256,2.128,2.128,0,0,0,.48-1.127c.072-.35.175-.754.5-.9l.032,0A13.012,13.012,0,0,1,602.618,143.428Z" transform="translate(-577.411 -130.269)" fill="#81a8cc" opacity="0.5" style="mix-blend-mode: screen;isolation: isolate"/>
      </g>
      <path id="Trazado_23662" data-name="Trazado 23662" d="M594.856,149.983q-.276.331-.58.635a.034.034,0,0,1-.018.009,12.08,12.08,0,0,1-1.132,1.04,12.3,12.3,0,0,1-1.876,1.278,11.86,11.86,0,0,1-1.619.764,12.859,12.859,0,0,1-4,.883q-.4.027-.8.028a13.155,13.155,0,0,1-3.027-25.957l.119-.027a11.209,11.209,0,0,1,1.279-.23c.018,0,.046-.01.065-.01a12.778,12.778,0,0,0-3.063,4.268,12.639,12.639,0,0,0,11.571,17.706c.257,0,.515-.01.772-.028A12.014,12.014,0,0,0,594.856,149.983Z" transform="translate(-571.677 -125.216)" fill="#9999f1" opacity="0.3" style="mix-blend-mode: multiply;isolation: isolate"/>
      <path id="Trazado_23663" data-name="Trazado 23663" d="M601.062,140.593a16.188,16.188,0,0,0-16.19-16.19.847.847,0,1,0,0,1.694,14.5,14.5,0,1,1-11.219,23.676.848.848,0,0,0-1.191-.118.845.845,0,0,0-.119,1.191,16.132,16.132,0,0,0,11.532,5.9v2.827h-4.894a1.072,1.072,0,0,0,0,2.144h11.887a1.072,1.072,0,1,0,0-2.144h-4.893v-2.85A16.2,16.2,0,0,0,601.062,140.593Z" transform="translate(-571.773 -124.403)" fill="#7878ff"/>
    </g>
    <g id="Grupo_14172" data-name="Grupo 14172" transform="translate(964.563 447.441)">
      <path id="Trazado_23664" data-name="Trazado 23664" d="M297.7,399.933a4.434,4.434,0,1,1-4.967-3.827A4.433,4.433,0,0,1,297.7,399.933Z" transform="translate(-288.872 -396.069)" fill="#9999f1"/>
      <path id="Trazado_23665" data-name="Trazado 23665" d="M292.044,401.709l1.949,1.454,1.908-3.422" transform="translate(-289.518 -396.817)" fill="none" stroke="#fff" stroke-linecap="round" stroke-linejoin="round" stroke-width="1.056"/>
    </g>
    <g id="Grupo_14173" data-name="Grupo 14173" transform="translate(976.683 214.968)">
      <path id="Trazado_23666" data-name="Trazado 23666" d="M312.742,107.167a4.434,4.434,0,1,1-5.595-2.833A4.434,4.434,0,0,1,312.742,107.167Z" transform="translate(-304.093 -104.113)" fill="#9999f1"/>
      <path id="Trazado_23667" data-name="Trazado 23667" d="M307.416,110.015l2.187,1.065,1.236-3.717" transform="translate(-304.77 -104.775)" fill="none" stroke="#fff" stroke-linecap="round" stroke-linejoin="round" stroke-width="1.056"/>
    </g>
    <g id="Grupo_14174" data-name="Grupo 14174" transform="translate(1210.276 292.921)">
      <path id="Trazado_23668" data-name="Trazado 23668" d="M611,209.292a6.781,6.781,0,1,1-6.264-7.261A6.781,6.781,0,0,1,611,209.292Z" transform="translate(-597.456 -202.013)" fill="#9999f1"/>
      <path id="Trazado_23669" data-name="Trazado 23669" d="M602.2,210.2l2.473,2.778,3.91-4.539" transform="translate(-598.423 -203.322)" fill="none" stroke="#fff" stroke-linecap="round" stroke-linejoin="round" stroke-width="1.616"/>
    </g>
    <path id="Trazado_23670" data-name="Trazado 23670" d="M587.5,209.809a1.63,1.63,0,1,1-1.631-1.63A1.631,1.631,0,0,1,587.5,209.809Z" transform="translate(615.512 89.652)" fill="#9999f1"/>
    <path id="Trazado_23671" data-name="Trazado 23671" d="M518.553,68.969a1.63,1.63,0,1,1-1.63-1.631A1.631,1.631,0,0,1,518.553,68.969Z" transform="translate(629.56 118.347)" fill="#9999f1" opacity="0.3"/>
    <path id="Trazado_23672" data-name="Trazado 23672" d="M184.49,255.447a2.6,2.6,0,1,1-2.6-2.6A2.6,2.6,0,0,1,184.49,255.447Z" transform="translate(698.018 80.552)" fill="#9999f1"/>
    <path id="Trazado_23673" data-name="Trazado 23673" d="M680.529,288.171a4,4,0,1,1-4-4A4,4,0,0,1,680.529,288.171Z" transform="translate(597.526 74.17)" fill="#9999f1" opacity="0.3"/>
    <path id="Trazado_23674" data-name="Trazado 23674" d="M130.942,218.746a4,4,0,1,1-4-4A4,4,0,0,1,130.942,218.746Z" transform="translate(709.498 88.315)" fill="#9999f1" opacity="0.3"/>
    <path id="Trazado_23675" data-name="Trazado 23675" d="M639.961,333.849a2.6,2.6,0,1,1-2.6-2.6A2.6,2.6,0,0,1,639.961,333.849Z" transform="translate(605.221 64.579)" fill="#9999f1" opacity="0.3"/>
    <path id="Trazado_23676" data-name="Trazado 23676" d="M384.914,80.556a2.6,2.6,0,1,1-2.6-2.6A2.6,2.6,0,0,1,384.914,80.556Z" transform="translate(657.184 116.185)" fill="#9999f1" opacity="0.3"/>
    <path id="Trazado_23677" data-name="Trazado 23677" d="M445.747,64.157a2.6,2.6,0,1,1-2.6-2.6A2.6,2.6,0,0,1,445.747,64.157Z" transform="translate(644.79 119.525)" fill="#9999f1" opacity="0.2"/>
    <g id="Grupo_14178" data-name="Grupo 14178" transform="translate(830.902 267.128)">
      <g id="Grupo_14177" data-name="Grupo 14177">
        <g id="Grupo_14175" data-name="Grupo 14175" transform="translate(1.835)">
          <path id="Trazado_23678" data-name="Trazado 23678" d="M123.834,174.327a.519.519,0,0,1-.519-.52v-3.668a.52.52,0,0,1,1.04,0v3.668A.52.52,0,0,1,123.834,174.327Z" transform="translate(-123.315 -169.62)" fill="#9999f1"/>
        </g>
        <g id="Grupo_14176" data-name="Grupo 14176" transform="translate(0 1.834)">
          <path id="Trazado_23679" data-name="Trazado 23679" d="M125.2,172.963h-3.669a.52.52,0,0,1,0-1.04H125.2a.52.52,0,0,1,0,1.04Z" transform="translate(-121.011 -171.923)" fill="#9999f1"/>
        </g>
      </g>
    </g>
    <g id="Grupo_14182" data-name="Grupo 14182" transform="translate(859.687 174.935)" opacity="0.3">
      <g id="Grupo_14181" data-name="Grupo 14181">
        <g id="Grupo_14179" data-name="Grupo 14179" transform="translate(1.834)">
          <path id="Trazado_23680" data-name="Trazado 23680" d="M159.984,58.545a.521.521,0,0,1-.52-.52V54.357a.52.52,0,0,1,1.041,0v3.668A.521.521,0,0,1,159.984,58.545Z" transform="translate(-159.464 -53.837)" fill="#9999f1"/>
        </g>
        <g id="Grupo_14180" data-name="Grupo 14180" transform="translate(0 1.834)">
          <path id="Trazado_23681" data-name="Trazado 23681" d="M161.35,57.18h-3.669a.52.52,0,1,1,0-1.04h3.669a.52.52,0,0,1,0,1.04Z" transform="translate(-157.161 -56.14)" fill="#9999f1"/>
        </g>
      </g>
    </g>
    <g id="Grupo_14186" data-name="Grupo 14186" transform="translate(1164.901 218.84)">
      <g id="Grupo_14185" data-name="Grupo 14185">
        <g id="Grupo_14183" data-name="Grupo 14183" transform="translate(1.834)">
          <path id="Trazado_23682" data-name="Trazado 23682" d="M543.294,113.684a.521.521,0,0,1-.52-.52V109.5a.52.52,0,0,1,1.04,0v3.668A.521.521,0,0,1,543.294,113.684Z" transform="translate(-542.774 -108.976)" fill="#9999f1"/>
        </g>
        <g id="Grupo_14184" data-name="Grupo 14184" transform="translate(0 1.834)">
          <path id="Trazado_23683" data-name="Trazado 23683" d="M544.659,112.319h-3.668a.52.52,0,0,1,0-1.04h3.668a.52.52,0,0,1,0,1.04Z" transform="translate(-540.471 -111.279)" fill="#9999f1"/>
        </g>
      </g>
    </g>
    <g id="Grupo_14190" data-name="Grupo 14190" transform="translate(1278.055 412.5)">
      <g id="Grupo_14189" data-name="Grupo 14189">
        <g id="Grupo_14187" data-name="Grupo 14187" transform="translate(1.834)">
          <path id="Trazado_23684" data-name="Trazado 23684" d="M685.4,356.9a.521.521,0,0,1-.52-.52v-3.669a.52.52,0,0,1,1.04,0v3.669A.521.521,0,0,1,685.4,356.9Z" transform="translate(-684.88 -352.188)" fill="#9999f1"/>
        </g>
        <g id="Grupo_14188" data-name="Grupo 14188" transform="translate(0 1.834)">
          <path id="Trazado_23685" data-name="Trazado 23685" d="M686.765,355.531H683.1a.52.52,0,0,1,0-1.04h3.668a.52.52,0,1,1,0,1.04Z" transform="translate(-682.577 -354.491)" fill="#9999f1"/>
        </g>
      </g>
    </g>
    <g id="Grupo_14192" data-name="Grupo 14192" transform="translate(1128.634 269.639)">
      <path id="Trazado_23686" data-name="Trazado 23686" d="M524.3,173.619V201.6a.854.854,0,0,1-.855.856H495.77a.853.853,0,0,1-.846-.856V173.619a.851.851,0,0,1,.846-.846h27.677A.853.853,0,0,1,524.3,173.619Z" transform="translate(-494.924 -172.773)" fill="#fff"/>
      <path id="Trazado_23687" data-name="Trazado 23687" d="M528.088,200.559V205.8a.854.854,0,0,1-.855.856H513.5l.584-6.1,6.462-7.146Z" transform="translate(-498.71 -176.978)" fill="#9999f1"/>
      <path id="Trazado_23688" data-name="Trazado 23688" d="M520.458,205.892H495.77a.853.853,0,0,1-.846-.856v-5.243l9.662-10.139Z" transform="translate(-494.924 -176.212)" fill="#8787dd"/>
      <path id="Trazado_23689" data-name="Trazado 23689" d="M525.2,181.984a3.406,3.406,0,1,1-3.406-3.406A3.406,3.406,0,0,1,525.2,181.984Z" transform="translate(-499.704 -173.956)" fill="#9999f1"/>
    </g>
    <rect id="Rectángulo_3497" data-name="Rectángulo 3497" width="29.378" height="2.593" rx="0.791" transform="translate(1128.634 301.524)" fill="#fff"/>
    <rect id="Rectángulo_3498" data-name="Rectángulo 3498" width="29.378" height="2.594" rx="0.791" transform="translate(1128.634 306.149)" fill="#fff"/>
  </g>
</svg>
