<?xml version="1.0" encoding="utf-8"?>
<!-- Generator: Adobe Illustrator 24.3.0, SVG Export Plug-In . SVG Version: 6.00 Build 0)  -->
<svg version="1.1" id="Layer_1" xmlns="http://www.w3.org/2000/svg" xmlns:xlink="http://www.w3.org/1999/xlink" x="0px" y="0px"
	 viewBox="0 0 2400 1847.5" style="enable-background:new 0 0 2400 1847.5;" xml:space="preserve">
<style type="text/css">
	.st0{opacity:7.000000e-02;}
	.st1{fill:#FFFFFF;}
</style>
<g class="st0">
	<g>
		<g id="XMLID_75_">
			<path id="XMLID_112_" class="st1" d="M700.9,1057.6c-10.3,0-15.6-5.8-20-10.5c-4.1-4.4-7.3-7.9-14-7.9s-9.9,3.5-14,7.9
				c-4.3,4.7-9.7,10.5-20,10.5s-15.6-5.8-20-10.5c-4.1-4.4-7.3-7.9-14-7.9s-9.9,3.5-14,7.9c-4.3,4.7-9.7,10.5-20,10.5
				s-15.6-5.8-20-10.5c-4.1-4.4-7.3-7.9-14-7.9s-9.9,3.5-14,7.9c-4.3,4.7-9.7,10.5-20,10.5s-15.6-5.8-20-10.5
				c-4.1-4.4-7.3-7.9-14-7.9s-9.9,3.5-14,7.9c-4.3,4.7-9.7,10.5-20,10.5s-15.6-5.8-20-10.5c-4.1-4.4-7.3-7.9-14-7.9s-9.9,3.5-14,7.9
				c-4.3,4.7-9.7,10.5-20,10.5c-2.3,0-4.1-1.8-4.1-4.1c0-2.3,1.8-4.1,4.1-4.1c6.7,0,9.9-3.5,14-7.9c4.3-4.7,9.7-10.5,20-10.5
				s15.6,5.8,20,10.5c4.1,4.4,7.3,7.9,14,7.9s9.9-3.5,14-7.9c4.3-4.7,9.7-10.5,20-10.5s15.6,5.8,20,10.5c4.1,4.4,7.3,7.9,14,7.9
				s9.9-3.5,14-7.9c4.3-4.7,9.7-10.5,20-10.5s15.6,5.8,20,10.5c4.1,4.4,7.3,7.9,14,7.9s9.9-3.5,14-7.9c4.3-4.7,9.7-10.5,20-10.5
				s15.6,5.8,20,10.5c4.1,4.4,7.3,7.9,14,7.9s9.9-3.5,14-7.9c4.3-4.7,9.7-10.5,20-10.5s15.6,5.8,20,10.5c4.1,4.4,7.3,7.9,14,7.9
				c2.3,0,4.1,1.8,4.1,4.1C705,1055.8,703.2,1057.6,700.9,1057.6z"/>
		</g>
		<g id="XMLID_130_">
			<path id="XMLID_131_" class="st1" d="M574.1,1357.9c-10.3,0-15.6-5.8-20-10.5c-4.1-4.4-7.3-7.9-14-7.9s-9.9,3.5-14,7.9
				c-4.3,4.7-9.7,10.5-20,10.5c-10.3,0-15.6-5.8-20-10.5c-4.1-4.4-7.3-7.9-14-7.9s-9.9,3.5-14,7.9c-4.3,4.7-9.7,10.5-20,10.5
				s-15.6-5.8-20-10.5c-4.1-4.4-7.3-7.9-14-7.9s-9.9,3.5-14,7.9c-4.3,4.7-9.7,10.5-20,10.5s-15.6-5.8-20-10.5
				c-4.1-4.4-7.3-7.9-14-7.9s-9.9,3.5-14,7.9c-4.3,4.7-9.7,10.5-20,10.5s-15.6-5.8-20-10.5c-4.1-4.4-7.3-7.9-14-7.9s-9.9,3.5-14,7.9
				c-4.3,4.7-9.7,10.5-20,10.5c-2.3,0-4.1-1.8-4.1-4.1c0-2.3,1.8-4.1,4.1-4.1c6.7,0,9.9-3.5,14-7.9c4.3-4.7,9.7-10.5,20-10.5
				s15.6,5.8,20,10.5c4.1,4.4,7.3,7.9,14,7.9s9.9-3.5,14-7.9c4.3-4.7,9.7-10.5,20-10.5s15.6,5.8,20,10.5c4.1,4.4,7.3,7.9,14,7.9
				s9.9-3.5,14-7.9c4.3-4.7,9.7-10.5,20-10.5s15.6,5.8,20,10.5c4.1,4.4,7.3,7.9,14,7.9s9.9-3.5,14-7.9c4.3-4.7,9.7-10.5,20-10.5
				s15.6,5.8,20,10.5c4.1,4.4,7.3,7.9,14,7.9c6.7,0,9.9-3.5,14-7.9c4.3-4.7,9.7-10.5,20-10.5s15.6,5.8,20,10.5
				c4.1,4.4,7.3,7.9,14,7.9c2.3,0,4.1,1.8,4.1,4.1C578.2,1356,576.4,1357.9,574.1,1357.9z"/>
		</g>
		<g id="XMLID_132_">
			<path id="XMLID_133_" class="st1" d="M1415.7,861.3c-8.5,0-12.9-4.8-16.5-8.7c-3.4-3.6-6-6.5-11.5-6.5s-8.2,2.9-11.5,6.5
				c-3.6,3.9-8,8.7-16.5,8.7s-12.9-4.8-16.5-8.7c-3.4-3.6-6-6.5-11.5-6.5s-8.2,2.9-11.5,6.5c-3.6,3.9-8,8.7-16.5,8.7
				s-12.9-4.8-16.5-8.7c-3.4-3.6-6-6.5-11.5-6.5s-8.2,2.9-11.5,6.5c-3.6,3.9-8,8.7-16.5,8.7s-12.9-4.8-16.5-8.7
				c-3.4-3.6-6-6.5-11.6-6.5c-5.5,0-8.2,2.9-11.5,6.5c-3.6,3.9-8,8.7-16.5,8.7s-12.9-4.8-16.5-8.7c-3.4-3.6-6-6.5-11.6-6.5
				c-5.5,0-8.2,2.9-11.6,6.5c-3.6,3.9-8,8.7-16.5,8.7c-1.9,0-3.4-1.5-3.4-3.4s1.5-3.4,3.4-3.4c5.5,0,8.2-2.9,11.6-6.5
				c3.6-3.9,8-8.7,16.5-8.7s12.9,4.8,16.5,8.7c3.4,3.6,6,6.5,11.6,6.5c5.5,0,8.2-2.9,11.5-6.5c3.6-3.9,8-8.7,16.5-8.7
				s12.9,4.8,16.5,8.7c3.4,3.6,6,6.5,11.6,6.5c5.5,0,8.2-2.9,11.5-6.5c3.6-3.9,8-8.7,16.5-8.7s12.9,4.8,16.5,8.7
				c3.4,3.6,6,6.5,11.5,6.5s8.2-2.9,11.5-6.5c3.6-3.9,8-8.7,16.5-8.7s12.9,4.8,16.5,8.7c3.4,3.6,6,6.5,11.5,6.5s8.2-2.9,11.5-6.5
				c3.6-3.9,8-8.7,16.5-8.7s12.9,4.8,16.5,8.7c3.4,3.6,6,6.5,11.5,6.5c1.9,0,3.4,1.5,3.4,3.4C1419,859.8,1417.5,861.3,1415.7,861.3z
				"/>
		</g>
		<g id="XMLID_1_">
			<path id="XMLID_2_" class="st1" d="M1825,534.8c-8.5,0-12.9-4.8-16.5-8.7c-3.4-3.6-6-6.5-11.5-6.5s-8.2,2.9-11.5,6.5
				c-3.6,3.9-8,8.7-16.5,8.7s-12.9-4.8-16.5-8.7c-3.4-3.6-6-6.5-11.5-6.5s-8.2,2.9-11.5,6.5c-3.6,3.9-8,8.7-16.5,8.7
				s-12.9-4.8-16.5-8.7c-3.4-3.6-6-6.5-11.5-6.5s-8.2,2.9-11.5,6.5c-3.6,3.9-8,8.7-16.5,8.7s-12.9-4.8-16.5-8.7
				c-3.4-3.6-6-6.5-11.6-6.5c-5.5,0-8.2,2.9-11.5,6.5c-3.6,3.9-8,8.7-16.5,8.7s-12.9-4.8-16.5-8.7c-3.4-3.6-6-6.5-11.6-6.5
				c-5.5,0-8.2,2.9-11.6,6.5c-3.6,3.9-8,8.7-16.5,8.7c-1.9,0-3.4-1.5-3.4-3.4s1.5-3.4,3.4-3.4c5.5,0,8.2-2.9,11.6-6.5
				c3.6-3.9,8-8.7,16.5-8.7s12.9,4.8,16.5,8.7c3.4,3.6,6,6.5,11.6,6.5c5.5,0,8.2-2.9,11.5-6.5c3.6-3.9,8-8.7,16.5-8.7
				s12.9,4.8,16.5,8.7c3.4,3.6,6,6.5,11.6,6.5c5.5,0,8.2-2.9,11.5-6.5c3.6-3.9,8-8.7,16.5-8.7s12.9,4.8,16.5,8.7
				c3.4,3.6,6,6.5,11.5,6.5s8.2-2.9,11.5-6.5c3.6-3.9,8-8.7,16.5-8.7s12.9,4.8,16.5,8.7c3.4,3.6,6,6.5,11.5,6.5s8.2-2.9,11.5-6.5
				c3.6-3.9,8-8.7,16.5-8.7s12.9,4.8,16.5,8.7c3.4,3.6,6,6.5,11.5,6.5c1.9,0,3.4,1.5,3.4,3.4C1828.4,533.3,1826.9,534.8,1825,534.8z
				"/>
		</g>
		<g id="XMLID_4_">
			<path id="XMLID_5_" class="st1" d="M1497.1,1632.6c-8.5,0-12.9-4.8-16.5-8.7c-3.4-3.6-6-6.5-11.5-6.5s-8.2,2.9-11.5,6.5
				c-3.6,3.9-8,8.7-16.5,8.7s-12.9-4.8-16.5-8.7c-3.4-3.6-6-6.5-11.5-6.5s-8.2,2.9-11.5,6.5c-3.6,3.9-8,8.7-16.5,8.7
				s-12.9-4.8-16.5-8.7c-3.4-3.6-6-6.5-11.5-6.5s-8.2,2.9-11.5,6.5c-3.6,3.9-8,8.7-16.5,8.7s-12.9-4.8-16.5-8.7
				c-3.4-3.6-6-6.5-11.6-6.5c-5.5,0-8.2,2.9-11.5,6.5c-3.6,3.9-8,8.7-16.5,8.7s-12.9-4.8-16.5-8.7c-3.4-3.6-6-6.5-11.6-6.5
				c-5.5,0-8.2,2.9-11.6,6.5c-3.6,3.9-8,8.7-16.5,8.7c-1.9,0-3.4-1.5-3.4-3.4s1.5-3.4,3.4-3.4c5.5,0,8.2-2.9,11.6-6.5
				c3.6-3.9,8-8.7,16.5-8.7s12.9,4.8,16.5,8.7c3.4,3.6,6,6.5,11.6,6.5c5.5,0,8.2-2.9,11.5-6.5c3.6-3.9,8-8.7,16.5-8.7
				s12.9,4.8,16.5,8.7c3.4,3.6,6,6.5,11.6,6.5c5.5,0,8.2-2.9,11.5-6.5c3.6-3.9,8-8.7,16.5-8.7s12.9,4.8,16.5,8.7
				c3.4,3.6,6,6.5,11.5,6.5s8.2-2.9,11.5-6.5c3.6-3.9,8-8.7,16.5-8.7s12.9,4.8,16.5,8.7c3.4,3.6,6,6.5,11.5,6.5s8.2-2.9,11.5-6.5
				c3.6-3.9,8-8.7,16.5-8.7s12.9,4.8,16.5,8.7c3.4,3.6,6,6.5,11.5,6.5c1.9,0,3.4,1.5,3.4,3.4S1499,1632.6,1497.1,1632.6z"/>
		</g>
		<g id="XMLID_134_">
			<path id="XMLID_135_" class="st1" d="M933.9,236.6c-10.3,0-15.6-5.8-20-10.5c-4.1-4.4-7.3-7.9-14-7.9s-9.9,3.5-14,7.9
				c-4.3,4.7-9.7,10.5-20,10.5s-15.6-5.8-20-10.5c-4.1-4.4-7.3-7.9-14-7.9s-9.9,3.5-14,7.9c-4.3,4.7-9.7,10.5-20,10.5
				s-15.6-5.8-20-10.5c-4.1-4.4-7.3-7.9-14-7.9s-9.9,3.5-14,7.9c-4.3,4.7-9.7,10.5-20,10.5s-15.6-5.8-20-10.5
				c-4.1-4.4-7.3-7.9-14-7.9s-9.9,3.5-14,7.9c-4.3,4.7-9.7,10.5-20,10.5s-15.6-5.8-20-10.5c-4.1-4.4-7.3-7.9-14-7.9s-9.9,3.5-14,7.9
				c-4.3,4.7-9.7,10.5-20,10.5c-2.3,0-4.1-1.8-4.1-4.1c0-2.3,1.8-4.1,4.1-4.1c6.7,0,9.9-3.5,14-7.9c4.3-4.7,9.7-10.5,20-10.5
				s15.6,5.8,20,10.5c4.1,4.4,7.3,7.9,14,7.9s9.9-3.5,14-7.9c4.3-4.7,9.7-10.5,20-10.5s15.6,5.8,20,10.5c4.1,4.4,7.3,7.9,14,7.9
				s9.9-3.5,14-7.9c4.3-4.7,9.7-10.5,20-10.5s15.6,5.8,20,10.5c4.1,4.4,7.3,7.9,14,7.9s9.9-3.5,14-7.9c4.3-4.7,9.7-10.5,20-10.5
				s15.6,5.8,20,10.5c4.1,4.4,7.3,7.9,14,7.9s9.9-3.5,14-7.9c4.3-4.7,9.7-10.5,20-10.5s15.6,5.8,20,10.5c4.1,4.4,7.3,7.9,14,7.9
				c2.3,0,4.1,1.8,4.1,4.1C938,234.8,936.2,236.6,933.9,236.6z"/>
		</g>
	</g>
	<path class="st1" d="M998.8,556.7c-23.5,0-42.7-19.1-42.7-42.7s19.1-42.7,42.7-42.7c23.6,0,42.7,19.1,42.7,42.7
		C1041.5,537.6,1022.3,556.7,998.8,556.7z M998.8,481.6c-17.9,0-32.4,14.6-32.4,32.4c0,17.8,14.6,32.4,32.4,32.4
		s32.4-14.6,32.4-32.4S1016.7,481.6,998.8,481.6z"/>
	<path class="st1" d="M647.1,1637.5c-22.6,0-41-18.4-41-41s18.4-41,41-41s41,18.4,41,41S669.7,1637.5,647.1,1637.5z M647.1,1562.4
		c-18.8,0-34.1,15.3-34.1,34.1c0,18.8,15.3,34.1,34.1,34.1s34.1-15.3,34.1-34.1S665.9,1562.4,647.1,1562.4z"/>
	<path class="st1" d="M1394.9,1203.8c-22.6,0-41-18.4-41-41s18.4-41,41-41s41,18.4,41,41S1417.5,1203.8,1394.9,1203.8z
		 M1394.9,1128.7c-18.8,0-34.1,15.3-34.1,34.1s15.3,34.1,34.1,34.1c18.8,0,34.1-15.3,34.1-34.1S1413.8,1128.7,1394.9,1128.7z"/>
	<path class="st1" d="M1704,300.6c-11.3,0-20.5-9.2-20.5-20.5s9.2-20.5,20.5-20.5s20.5,9.2,20.5,20.5S1715.3,300.6,1704,300.6z
		 M1704,263c-9.4,0-17.1,7.7-17.1,17.1s7.7,17.1,17.1,17.1s17.1-7.7,17.1-17.1S1713.4,263,1704,263z"/>
	<g>
		<g>
			<path class="st1" d="M1909.8,1500.8c-7.9-7.9-17.3-13.8-27.6-17.3c11-7.6,18.2-20.3,18.2-34.6c0-23.1-18.8-42-42-42
				c-23.1,0-42,18.8-42,42c0,14.3,7.2,27,18.2,34.6c-10.3,3.5-19.7,9.4-27.6,17.3c-13.7,13.7-21.3,31.9-21.3,51.3h11.3
				c0-33.8,27.5-61.3,61.3-61.3s61.3,27.5,61.3,61.3h11.3C1931.1,1532.8,1923.5,1514.5,1909.8,1500.8z M1858.5,1479.5
				c-16.9,0-30.6-13.7-30.6-30.6s13.7-30.6,30.6-30.6s30.6,13.7,30.6,30.6S1875.4,1479.5,1858.5,1479.5z"/>
		</g>
	</g>
	<g>
		<g>
			<path class="st1" d="M2148.8,755.5c-7.9-7.9-17.3-13.8-27.6-17.3c11-7.6,18.2-20.3,18.2-34.6c0-23.1-18.8-42-42-42
				s-42,18.8-42,42c0,14.3,7.2,27,18.2,34.6c-10.3,3.5-19.7,9.4-27.6,17.3c-13.7,13.7-21.3,31.9-21.3,51.3h11.3
				c0-33.8,27.5-61.3,61.3-61.3s61.3,27.5,61.3,61.3h11.3C2170.1,787.4,2162.6,769.2,2148.8,755.5z M2097.5,734.2
				c-16.9,0-30.6-13.7-30.6-30.6c0-16.9,13.7-30.6,30.6-30.6c16.9,0,30.6,13.7,30.6,30.6C2128.1,720.5,2114.4,734.2,2097.5,734.2z"
				/>
		</g>
	</g>
	<g>
		<g>
			<path class="st1" d="M1151.4,1183.3l-102.6-50.1c-8.8-4.4-23.9-4.4-32.7,0l-105,50.1c-7.4,3.5-8.6,8.6-8.6,11.2
				c0,2.7,1.2,7.4,8.6,11.2l8.6,4.1v47.2c-5.3,2.1-9.1,7.4-9.1,13.3c0,5.9,3.8,11.2,8.8,13.3l-13.3,42.2h37.2l-13.3-42.2
				c5.3-2.1,8.8-7.4,8.8-13.3c0-6.2-3.8-11.2-9.1-13.3v-42.2l15.6,7.7v61.3c0,0.9,0.3,1.8,0.9,2.7c1.5,1.8,28.9,39.2,84.9,39.2
				c56,0,83.5-37.8,84.7-39.2c0.6-0.9,0.9-1.8,0.9-2.7v-61.1l34.8-17.1c7.4-3.5,8.6-8.6,8.6-11.2
				C1159.7,1191.9,1158.8,1186.9,1151.4,1183.3z M1107.2,1282.4c-4.7,5.9-30.1,34.2-76.1,34.2s-71.4-28.3-76.1-34.2v-55.7l61.1,29.2
				c4.4,2.1,10.3,3.2,16.2,3.2c6.2,0,12.1-1.2,16.5-3.5l58.4-28.6V1282.4z M1147.3,1197.5l-35.4,17.4c-1.5,0-2.7,0.6-3.2,1.8l-64,31
				c-6.2,3.2-18.3,3.2-24.8,0l-78.8-37.8l90.5-10.6c2.7-0.3,4.4-2.7,4.1-5c-0.3-2.7-2.7-4.4-5-4.1l-105,12.4l-10.6-5
				c-2.7-1.2-3.2-2.7-3.2-2.7c0-0.3,0.6-1.5,3.2-2.7l105-50.4c3.2-1.5,7.7-2.4,12.1-2.4c4.7,0,9.4,0.9,12.4,2.4l102.6,50.1
				c2.7,1.2,3.2,2.4,3.2,2.9C1150.6,1194.8,1149.7,1196.3,1147.3,1197.5z"/>
		</g>
	</g>
	<g>
		<g>
			<path class="st1" d="M1445.9,263.1l-78.6-38.4c-6.8-3.4-18.3-3.4-25.1,0l-80.4,38.4c-5.6,2.7-6.5,6.5-6.5,8.6s0.9,5.6,6.5,8.6
				l6.5,3.2v36.1c-4.1,1.6-7,5.6-7,10.2s2.9,8.6,6.8,10.2l-10.2,32.3h28.4l-10.2-32.3c4.1-1.6,6.8-5.6,6.8-10.2
				c0-4.7-2.9-8.6-7-10.2v-32.3l12,5.9v47c0,0.7,0.2,1.4,0.7,2c1.1,1.4,22.1,30,65,30c42.9,0,63.9-28.9,64.8-30
				c0.5-0.7,0.7-1.4,0.7-2v-46.7l26.6-13.1c5.6-2.7,6.5-6.5,6.5-8.6C1452.3,269.7,1451.6,265.8,1445.9,263.1z M1412.1,339
				c-3.6,4.5-23,26.2-58.2,26.2c-35.2,0-54.6-21.7-58.2-26.2v-42.7l46.7,22.4c3.4,1.6,7.9,2.5,12.4,2.5c4.7,0,9.3-0.9,12.6-2.7
				l44.7-21.9V339z M1442.8,274l-27.1,13.3c-1.1,0-2,0.5-2.5,1.4l-49,23.7c-4.7,2.5-14,2.5-19,0l-60.3-28.9l69.3-8.1
				c2-0.2,3.4-2,3.2-3.8c-0.2-2-2-3.4-3.8-3.2l-80.4,9.5l-8.1-3.8c-2-0.9-2.5-2-2.5-2c0-0.2,0.5-1.1,2.5-2l80.4-38.6
				c2.5-1.1,5.9-1.8,9.3-1.8c3.6,0,7.2,0.7,9.5,1.8l78.6,38.4c2,0.9,2.5,1.8,2.5,2.3C1445.3,271.9,1444.6,273.1,1442.8,274z"/>
		</g>
	</g>
	<g>
		<circle class="st1" cx="1626.7" cy="958.8" r="5.1"/>
		<circle class="st1" cx="1626.7" cy="987.4" r="5.1"/>
		<circle class="st1" cx="1626.7" cy="1015.9" r="5.1"/>
		<circle class="st1" cx="1626.7" cy="1044.4" r="5.1"/>
		<path class="st1" d="M1769.1,1045.3c0,5.8,4.7,10.4,10.4,10.4h65.1c0.1,0,0.2,0.1,0.3,0.1l6.2,10.7c1.8,3.1,5,5,8.7,5h0
			c3.6,0,6.9-1.9,8.7-5l6.2-10.7c0.1-0.1,0.1-0.1,0.3-0.1h3.8c5.8,0,10.4-4.7,10.4-10.4V1025c0-5.8-4.7-10.4-10.4-10.4h-99
			c-5.8,0-10.4,4.7-10.4,10.4V1045.3z M1779.3,1025c0-0.1,0.1-0.2,0.2-0.2h99c0.1,0,0.2,0.1,0.2,0.2v20.3c0,0.1-0.1,0.2-0.2,0.2
			h-3.8c-3.7,0-7.2,2-9.1,5.3l-6,10.3l-6-10.3c-1.9-3.2-5.4-5.3-9.1-5.3h-65.1c-0.1,0-0.2-0.1-0.2-0.2V1025z"/>
		<path class="st1" d="M1779.5,986.9h3.8c0.1,0,0.2,0.1,0.3,0.1l6.2,10.7c1.8,3.1,5,5,8.7,5c3.6,0,6.9-1.9,8.7-5l6.2-10.7
			c0.1-0.1,0.1-0.1,0.3-0.1h65.1c5.8,0,10.4-4.7,10.4-10.4v-20.3c0-5.8-4.7-10.4-10.4-10.4h-99c-5.8,0-10.4,4.7-10.4,10.4v20.3
			C1769.1,982.2,1773.8,986.9,1779.5,986.9z M1779.3,956.2c0-0.1,0.1-0.2,0.2-0.2h99c0.1,0,0.2,0.1,0.2,0.2v20.3
			c0,0.1-0.1,0.2-0.2,0.2h-65.1c-3.7,0-7.2,2-9.1,5.3l-6,10.3l-6-10.3c-1.9-3.2-5.4-5.3-9.1-5.3h-3.8c-0.1,0-0.2-0.1-0.2-0.2V956.2z
			"/>
		<path class="st1" d="M1724.8,953.7h-76.9c-2.8,0-5.1,2.3-5.1,5.1s2.3,5.1,5.1,5.1h76.9c2.8,0,5.1-2.3,5.1-5.1
			C1729.9,956,1727.6,953.7,1724.8,953.7L1724.8,953.7z"/>
		<path class="st1" d="M1724.8,982.3h-76.9c-2.8,0-5.1,2.3-5.1,5.1s2.3,5.1,5.1,5.1h76.9c2.8,0,5.1-2.3,5.1-5.1
			C1729.9,984.6,1727.6,982.3,1724.8,982.3L1724.8,982.3z"/>
		<path class="st1" d="M1724.8,1010.8h-76.9c-2.8,0-5.1,2.3-5.1,5.1c0,2.8,2.3,5.1,5.1,5.1h76.9c2.8,0,5.1-2.3,5.1-5.1
			C1729.9,1013.1,1727.6,1010.8,1724.8,1010.8L1724.8,1010.8z"/>
		<path class="st1" d="M1724.8,1039.3h-76.9c-2.8,0-5.1,2.3-5.1,5.1s2.3,5.1,5.1,5.1h76.9c2.8,0,5.1-2.3,5.1-5.1
			C1729.9,1041.6,1727.6,1039.3,1724.8,1039.3L1724.8,1039.3z"/>
		<path class="st1" d="M1910.3,907.4h-231.8c-2.8,0-5.1,2.3-5.1,5.1c0,2.8,2.3,5.1,5.1,5.1h231.8c5.7,0,10.4,4.7,10.4,10.4v154.7
			h-166.5c-2.8,0-5.1,2.3-5.1,5.1s2.3,5.1,5.1,5.1h166.5v22.5c0,5.7-4.7,10.4-10.4,10.4h-307.6c-5.7,0-10.4-4.7-10.4-10.4v-22.5
			h141.4c2.8,0,5.1-2.3,5.1-5.1s-2.3-5.1-5.1-5.1h-141.4V928c0-5.7,4.7-10.4,10.4-10.4h55.4c2.8,0,5.1-2.3,5.1-5.1
			c0-2.8-2.3-5.1-5.1-5.1h-55.4c-11.4,0-20.6,9.2-20.6,20.6v187.4c0,11.4,9.2,20.6,20.6,20.6h109.7l-5.4,40h-16.1
			c-2.8,0-5.1,2.3-5.1,5.1s2.3,5.1,5.1,5.1h127.4c2.8,0,5.1-2.3,5.1-5.1s-2.3-5.1-5.1-5.1h-12.3l-5.4-40h109.7
			c11.4,0,20.6-9.2,20.6-20.6V928C1931,916.6,1921.7,907.4,1910.3,907.4L1910.3,907.4z M1795.8,1176h-78.5l5.4-40h67.6L1795.8,1176z
			"/>
	</g>
	<g>
		<circle class="st1" cx="415.8" cy="606.7" r="3.9"/>
		<circle class="st1" cx="415.8" cy="628.4" r="3.9"/>
		<circle class="st1" cx="415.8" cy="650.1" r="3.9"/>
		<circle class="st1" cx="415.8" cy="671.8" r="3.9"/>
		<path class="st1" d="M524.1,672.4c0,4.4,3.6,7.9,7.9,7.9h49.5c0.1,0,0.2,0,0.2,0.1l4.7,8.1c1.4,2.4,3.8,3.8,6.6,3.8h0
			c2.7,0,5.2-1.4,6.6-3.8l4.7-8.1c0-0.1,0.1-0.1,0.2-0.1h2.9c4.4,0,7.9-3.6,7.9-7.9V657c0-4.4-3.6-7.9-7.9-7.9H532
			c-4.4,0-7.9,3.6-7.9,7.9V672.4z M531.9,657c0-0.1,0.1-0.2,0.2-0.2h75.3c0.1,0,0.2,0.1,0.2,0.2v15.4c0,0.1-0.1,0.2-0.2,0.2h-2.9
			c-2.8,0-5.5,1.5-6.9,4l-4.5,7.9l-4.5-7.9c-1.4-2.5-4.1-4-6.9-4H532c-0.1,0-0.2-0.1-0.2-0.2V657z"/>
		<path class="st1" d="M532,628.1h2.9c0.1,0,0.2,0,0.2,0.1l4.7,8.1c1.4,2.4,3.8,3.8,6.6,3.8c2.7,0,5.2-1.4,6.6-3.8l4.7-8.1
			c0-0.1,0.1-0.1,0.2-0.1h49.5c4.4,0,7.9-3.6,7.9-7.9v-15.4c0-4.4-3.6-7.9-7.9-7.9H532c-4.4,0-7.9,3.6-7.9,7.9v15.4
			C524.1,624.5,527.6,628.1,532,628.1z M531.9,604.7c0-0.1,0.1-0.2,0.2-0.2h75.3c0.1,0,0.2,0.1,0.2,0.2v15.4c0,0.1-0.1,0.2-0.2,0.2
			h-49.5c-2.8,0-5.5,1.5-6.9,4l-4.5,7.9l-4.5-7.9c-1.4-2.5-4.1-4-6.9-4H532c-0.1,0-0.2-0.1-0.2-0.2V604.7z"/>
		<path class="st1" d="M490.4,602.8H432c-2.1,0-3.9,1.7-3.9,3.9c0,2.1,1.7,3.9,3.9,3.9h58.4c2.1,0,3.9-1.7,3.9-3.9
			C494.3,604.6,492.5,602.8,490.4,602.8L490.4,602.8z"/>
		<path class="st1" d="M490.4,624.5H432c-2.1,0-3.9,1.7-3.9,3.9c0,2.1,1.7,3.9,3.9,3.9h58.4c2.1,0,3.9-1.7,3.9-3.9
			C494.3,626.3,492.5,624.5,490.4,624.5L490.4,624.5z"/>
		<path class="st1" d="M490.4,646.2H432c-2.1,0-3.9,1.7-3.9,3.9c0,2.1,1.7,3.9,3.9,3.9h58.4c2.1,0,3.9-1.7,3.9-3.9
			C494.3,648,492.5,646.2,490.4,646.2L490.4,646.2z"/>
		<path class="st1" d="M490.4,667.9H432c-2.1,0-3.9,1.7-3.9,3.9c0,2.1,1.7,3.9,3.9,3.9h58.4c2.1,0,3.9-1.7,3.9-3.9
			C494.3,669.7,492.5,667.9,490.4,667.9L490.4,667.9z"/>
		<path class="st1" d="M631.5,567.6H455.3c-2.1,0-3.9,1.7-3.9,3.9c0,2.1,1.7,3.9,3.9,3.9h176.2c4.4,0,7.9,3.5,7.9,7.9v117.6H512.8
			c-2.1,0-3.9,1.7-3.9,3.9c0,2.1,1.7,3.9,3.9,3.9h126.6v17.1c0,4.4-3.5,7.9-7.9,7.9H397.6c-4.4,0-7.9-3.5-7.9-7.9v-17.1h107.5
			c2.1,0,3.9-1.7,3.9-3.9c0-2.1-1.7-3.9-3.9-3.9H389.7V583.3c0-4.4,3.5-7.9,7.9-7.9h42.1c2.1,0,3.9-1.7,3.9-3.9
			c0-2.1-1.7-3.9-3.9-3.9h-42.1c-8.6,0-15.7,7-15.7,15.7v142.5c0,8.6,7,15.7,15.7,15.7H481l-4.1,30.4h-12.2c-2.1,0-3.9,1.7-3.9,3.9
			c0,2.1,1.7,3.9,3.9,3.9h96.9c2.1,0,3.9-1.7,3.9-3.9c0-2.1-1.7-3.9-3.9-3.9h-9.3l-4.1-30.4h83.4c8.6,0,15.7-7,15.7-15.7V583.3
			C647.1,574.6,640.1,567.6,631.5,567.6L631.5,567.6z M544.4,771.9h-59.7l4.1-30.4h51.4L544.4,771.9z"/>
	</g>
</g>
</svg>
